<svg xmlns="http://www.w3.org/2000/svg" width="29.931" height="29.79" viewBox="0 0 29.931 29.79"><defs><style>.a{fill:#fff;}</style></defs><g transform="translate(0 0)"><path class="a" d="M12.965,25.583A12.749,12.749,0,0,1,.207,12.895H-2A14.955,14.955,0,0,0,12.965,27.79ZM25.724,12.895A12.749,12.749,0,0,1,12.965,25.583V27.79A14.955,14.955,0,0,0,27.931,12.895ZM12.965.207A12.749,12.749,0,0,1,25.724,12.895h2.207A14.955,14.955,0,0,0,12.965-2Zm0-2.207A14.955,14.955,0,0,0-2,12.895H.207A12.749,12.749,0,0,1,12.965.207Z" transform="translate(2 2)"/><g transform="translate(6.62 8.827)"><g transform="translate(0 0)"><path class="a" d="M5.973,0A7.07,7.07,0,0,0,2.036,1.476,18.793,18.793,0,0,0,0,9.678a5.132,5.132,0,0,0,4.313,2.143s.523-.624.947-1.164A4.429,4.429,0,0,1,2.785,9s.142.1.4.242c.015,0,.028.015.056.028s.084.043.127.071A8.113,8.113,0,0,0,4.4,9.819a10.646,10.646,0,0,0,2.079.609,9.874,9.874,0,0,0,3.662.015,10.216,10.216,0,0,0,2.051-.609A7.979,7.979,0,0,0,13.815,9a4.481,4.481,0,0,1-2.559,1.674c.424.525.934,1.134.934,1.134A5.182,5.182,0,0,0,16.5,9.677a18.784,18.784,0,0,0-2.036-8.2A6.966,6.966,0,0,0,10.506,0l-.2.227a9.271,9.271,0,0,1,3.521,1.789A11.708,11.708,0,0,0,9.574.668,11.859,11.859,0,0,0,6.716.7a1.514,1.514,0,0,0-.241.028,11.02,11.02,0,0,0-3.209.894c-.523.227-.835.4-.835.4A9.289,9.289,0,0,1,6.137.171L5.995,0Zm-.36,5.237A1.488,1.488,0,0,1,7.056,6.8,1.5,1.5,0,0,1,5.614,8.36,1.506,1.506,0,0,1,4.171,6.8,1.5,1.5,0,0,1,5.614,5.237Zm5.161,0A1.506,1.506,0,0,1,12.217,6.8,1.5,1.5,0,0,1,10.775,8.36,1.506,1.506,0,0,1,9.333,6.8,1.5,1.5,0,0,1,10.775,5.237Z" transform="translate(0 0)"/></g></g></g></svg>