<svg xmlns="http://www.w3.org/2000/svg" width="29.931" height="29.79" viewBox="0 0 29.931 29.79"><defs><style>.a{opacity:0.5;}.b{fill:#fff;}</style></defs><g class="a"><g transform="translate(0 0)"><path class="b" d="M12.965,25.583A12.749,12.749,0,0,1,.207,12.895H-2A14.955,14.955,0,0,0,12.965,27.79ZM25.724,12.895A12.749,12.749,0,0,1,12.965,25.583V27.79A14.955,14.955,0,0,0,27.931,12.895ZM12.965.207A12.749,12.749,0,0,1,25.724,12.895h2.207A14.955,14.955,0,0,0,12.965-2Zm0-2.207A14.955,14.955,0,0,0-2,12.895H.207A12.749,12.749,0,0,1,12.965.207Z" transform="translate(2 2)"/><g transform="translate(6.62 7.723)"><g transform="translate(0 0)"><path class="b" d="M10.305,1.126c-.294.911-.558,1.77-.852,2.68a8.816,8.816,0,0,1,4.3,1.453A2.041,2.041,0,0,1,15.73,4.84a1.914,1.914,0,0,1,.76,3.233,1.156,1.156,0,0,0-.4,1.013,4.638,4.638,0,0,1-1.937,3.959,8.784,8.784,0,0,1-6.57,1.8,8.214,8.214,0,0,1-4.776-1.882,4.59,4.59,0,0,1-1.785-4.2c.02-.164-.183-.4-.335-.542A2.052,2.052,0,0,1,.146,5.934a1.838,1.838,0,0,1,1.9-1.166,3.2,3.2,0,0,1,.994.348.608.608,0,0,0,.689-.031,8.469,8.469,0,0,1,4.3-1.33.485.485,0,0,0,.527-.4c.274-.931.568-1.852.842-2.772.142-.45.355-.685.892-.542a21.338,21.338,0,0,0,2.271.481,1.033,1.033,0,0,0,.72-.153,1.524,1.524,0,0,1,2.2.266,1.493,1.493,0,0,1-.456,2.1,1.428,1.428,0,0,1-2.079-.573,1.021,1.021,0,0,0-.913-.645C11.472,1.4,10.914,1.259,10.305,1.126ZM8.663,12.789a4.072,4.072,0,0,0,2.515-.829c.142-.133.284-.44.213-.573-.142-.307-.436-.235-.689-.072a3.871,3.871,0,0,1-4.289.01c-.243-.153-.537-.266-.72.02-.193.317.061.522.314.7A4.691,4.691,0,0,0,8.663,12.789ZM5.935,9.474A1.135,1.135,0,0,0,7.051,8.4a1.149,1.149,0,0,0-1.1-1.166A1.09,1.09,0,0,0,4.84,8.349,1.07,1.07,0,0,0,5.935,9.474Zm5.222,0A1.122,1.122,0,0,0,12.273,8.39a1.14,1.14,0,0,0-1.1-1.156,1.154,1.154,0,0,0-1.146,1.1A1.141,1.141,0,0,0,11.157,9.474Z" transform="translate(0 0)"/></g></g></g></g></svg>