<svg xmlns="http://www.w3.org/2000/svg" width="29.931" height="29.79" viewBox="0 0 29.931 29.79"><defs><style>.a{opacity:0.5;}.b{fill:#fff;}</style></defs><g class="a"><g transform="translate(0 0)"><path class="b" d="M12.965,25.583A12.749,12.749,0,0,1,.207,12.895H-2A14.955,14.955,0,0,0,12.965,27.79ZM25.724,12.895A12.749,12.749,0,0,1,12.965,25.583V27.79A14.955,14.955,0,0,0,27.931,12.895ZM12.965.207A12.749,12.749,0,0,1,25.724,12.895h2.207A14.955,14.955,0,0,0,12.965-2Zm0-2.207A14.955,14.955,0,0,0-2,12.895H.207A12.749,12.749,0,0,1,12.965.207Z" transform="translate(2 2)"/><g transform="translate(7.723 8.827)"><g transform="translate(0 0)"><path class="b" d="M14.953,11.807H9.04a1.589,1.589,0,0,1,.19-.375c.313-.327.659-.628.965-.955a.684.684,0,0,0,.183-.409c.014-2.162.007-4.318.007-6.48a1.217,1.217,0,0,0-.027-.177c-.075.184-.129.3-.177.416q-1.509,3.837-3.025,7.68c-.061.15-.082.314-.326.314s-.306-.13-.381-.3Q4.686,7.674,2.936,3.827A1.245,1.245,0,0,0,2.7,3.452V3.7c0,1.794-.014,3.588.007,5.389a1.1,1.1,0,0,0,.231.614c.449.587.931,1.146,1.393,1.719a2.635,2.635,0,0,1,.2.375H0a1.865,1.865,0,0,1,.2-.389c.442-.546.884-1.091,1.339-1.63a1.192,1.192,0,0,0,.285-.8c-.014-2.149,0-4.3-.02-6.446a1.218,1.218,0,0,0-.245-.668C1.2,1.371.788.928.415.457A3.713,3.713,0,0,1,.177.007H2.019C2.753.007,3.494.014,4.228,0a.409.409,0,0,1,.449.293C5.682,2.538,6.708,4.768,7.728,7.005c.041.089.088.177.156.314.476-1.187.938-2.326,1.393-3.465.483-1.2.952-2.4,1.441-3.595.041-.1.163-.246.245-.246C12.282,0,13.594.007,14.994.007a2.389,2.389,0,0,1-.218.375c-.313.314-.653.6-.945.928a.87.87,0,0,0-.224.525q-.02,4.072,0,8.151a.87.87,0,0,0,.224.525c.285.327.612.607.911.921C14.81,11.521,14.858,11.644,14.953,11.807Z" transform="translate(0 0)"/></g></g></g></g></svg>