<svg xmlns="http://www.w3.org/2000/svg" width="29.931" height="29.79" viewBox="0 0 29.931 29.79"><defs><style>.a{opacity:0.5;}.b{fill:#fff;}</style></defs><g class="a"><g transform="translate(0 0)"><path class="b" d="M12.965,25.583A12.749,12.749,0,0,1,.207,12.895H-2A14.955,14.955,0,0,0,12.965,27.79ZM25.724,12.895A12.749,12.749,0,0,1,12.965,25.583V27.79A14.955,14.955,0,0,0,27.931,12.895ZM12.965.207A12.749,12.749,0,0,1,25.724,12.895h2.207A14.955,14.955,0,0,0,12.965-2Zm0-2.207A14.955,14.955,0,0,0-2,12.895H.207A12.749,12.749,0,0,1,12.965.207Z" transform="translate(2 2)"/><g transform="translate(7.442 8.589)"><g transform="translate(0 0)"><path class="b" d="M0,11.522A6.5,6.5,0,0,0,4.617,10.16a3.54,3.54,0,0,1-1.844-.681,3.16,3.16,0,0,1-1.1-1.6H2.953c.007-.028.014-.057.021-.092A3.294,3.294,0,0,1,.52,4.633c.451.128.88.255,1.317.376.014-.028.035-.057.049-.085A3.44,3.44,0,0,1,.645,2.952,3.4,3.4,0,0,1,.984.61,9.115,9.115,0,0,0,7.571,4.023a3.923,3.923,0,0,1,.139-1.908A3.162,3.162,0,0,1,12.819.83a.486.486,0,0,0,.548.128c.548-.2,1.088-.411,1.65-.624a3.936,3.936,0,0,1-1.227,1.724c.534-.142,1.068-.291,1.595-.433.021.021.042.035.062.057-.4.426-.79.873-1.227,1.256a.872.872,0,0,0-.326.709A9.163,9.163,0,0,1,9.408,11.7a8.707,8.707,0,0,1-9.2-.021C.153,11.643.1,11.6,0,11.522Z" transform="translate(0 0)"/></g></g></g></g></svg>