<svg xmlns="http://www.w3.org/2000/svg" viewBox="0 0 250 250"><defs><style>.cls-1{fill:none}.cls-2{fill:#8cc540;}.cls-3{fill:#f8e887;}.cls-4{fill:#f8f9f6;}.cls-5{fill:#595d59;}.cls-6{fill:#109545;}.cls-7{fill:#f8faf4;}.cls-8{fill:#fefdf8;}.cls-9{fill:#5a5b5d;}</style></defs><title>Asset 2</title><g id="Layer_2" data-name="Layer 2"><g id="Layer_1-2" data-name="Layer 1"><path class="cls-1" d="M1,251V1H251V251ZM246,125.59C247,61.4,194.29,7.89,130.44,5.9,63,3.79,9.05,57.73,6.86,121.21,4.65,185.5,55.12,244.64,126.56,244.85A118.78,118.78,0,0,0,246,125.59Z" transform="translate(-1 -1)"/><path class="cls-2" d="M246,125.59a118.78,118.78,0,0,1-119.4,119.26C55.12,244.64,4.65,185.5,6.86,121.21,9.05,57.73,63,3.79,130.44,5.9,194.29,7.89,247,61.4,246,125.59ZM128.25,66.23l29,9.76c8.47,3.33,17,6.56,25.4,10,7.35,3,15.15,5.41,21.79,9.61,11.65,7.37,13.76,19.07,6.56,30.76a58.11,58.11,0,0,1-7.31,9.57c-9.17,9.64-18.8,18.86-27.79,28.66-11.79,12.85-21.64,27-27.17,43.82a51.59,51.59,0,0,0-2.28,25.29c47.45-8.19,87.52-49.16,90.33-102.32a110.33,110.33,0,0,0-83.44-113C102.09,5.53,48,30.92,25.41,80.92c-17.71,39.25-7.54,85.31,10.74,106,1-2.47,2-4.74,2.8-7.05,7.18-19.63,8.28-40.27,10-60.79,1-12.15,3.14-24.25,12-33.12,15.26-15.32,33.86-23.07,55.89-21C120.67,65.25,124.45,65.78,128.25,66.23Zm3.9,31.85A21,21,0,0,0,111,76.88,21.4,21.4,0,0,0,89.33,98.33a21.8,21.8,0,0,0,21.37,21.39C122.44,119.88,132.2,110,132.15,98.08Zm56.29,43c-19.82,5.56-39.56,11.46-60,1.66C140.21,157,169.41,152.32,188.44,141.05Zm-1.1-28.23c-2.2,3.21-4.53,5.16-4.24,6.55a6.78,6.78,0,0,0,4.48,4.39c1.18.21,4-2.61,4.09-4.15C191.74,117.86,189.52,116,187.34,112.82Z" transform="translate(-1 -1)"/><path class="cls-3" d="M128.25,66.23c-3.8-.45-7.58-1-11.38-1.33-22-2.06-40.63,5.69-55.89,21C52.13,94.78,50,106.88,49,119c-1.76,20.52-2.86,41.16-10,60.79-.84,2.31-1.81,4.58-2.8,7.05C17.87,166.23,7.7,120.17,25.41,80.92c22.58-50,76.68-75.39,128-62.58a110.33,110.33,0,0,1,83.44,113c-2.81,53.16-42.88,94.13-90.33,102.32a51.59,51.59,0,0,1,2.28-25.29c5.53-16.79,15.38-31,27.17-43.82,9-9.8,18.62-19,27.79-28.66a58.11,58.11,0,0,0,7.31-9.57c7.2-11.69,5.09-23.39-6.56-30.76C197.82,91.41,190,89,182.67,86c-8.43-3.45-16.93-6.68-25.41-10-3-3.1-5.54-7.11-9.18-9.1C141.89,63.52,134.94,64.29,128.25,66.23Zm101.22,67c.85-1.59,1.24-2,1.27-2.43C232,115,230.46,99.68,224,84.93c-7.55-17.34-20.24-30.21-34.6-41.85-11.28-9.14-22.55-18.23-37.54-20.6-7.33-1.17-14.64-2.54-23.38.08,8.16,2.06,15.13,3.11,21.56,5.58,12.07,4.62,24.59,8.79,35.52,15.45,14.7,8.95,22.11,24.51,29.24,39.58C222.19,98.7,226.54,115.23,229.47,133.22Z" transform="translate(-1 -1)"/><path class="cls-4" d="M132.15,98.08c0,12-9.71,21.8-21.45,21.64A21.8,21.8,0,0,1,89.33,98.33,21.4,21.4,0,0,1,111,76.88,21,21,0,0,1,132.15,98.08ZM110.7,113.34a14.9,14.9,0,0,0,15.2-15.07,15.21,15.21,0,0,0-14.93-15A15,15,0,0,0,95.85,98.5,14.69,14.69,0,0,0,110.7,113.34Z" transform="translate(-1 -1)"/><path class="cls-5" d="M188.44,141.05c-19,11.27-48.23,15.92-60,1.66C148.88,152.51,168.62,146.61,188.44,141.05Z" transform="translate(-1 -1)"/><path class="cls-6" d="M128.25,66.23c6.69-1.94,13.64-2.71,19.83.66,3.64,2,6.16,6,9.18,9.1Z" transform="translate(-1 -1)"/><path class="cls-7" d="M187.34,112.82c2.18,3.2,4.4,5,4.33,6.79,0,1.54-2.91,4.36-4.09,4.15a6.78,6.78,0,0,1-4.48-4.39C182.81,118,185.14,116,187.34,112.82Z" transform="translate(-1 -1)"/><path class="cls-8" d="M229.47,133.22c-2.93-18-7.28-34.52-14.63-50C207.71,68.1,200.3,52.54,185.6,43.59c-10.93-6.66-23.45-10.83-35.52-15.45-6.43-2.47-13.4-3.52-21.56-5.58,8.74-2.62,16-1.25,23.38-.08,15,2.37,26.26,11.46,37.54,20.6C203.8,54.72,216.49,67.59,224,84.93c6.42,14.75,7.91,30.08,6.7,45.86C230.71,131.22,230.32,131.63,229.47,133.22Z" transform="translate(-1 -1)"/><path class="cls-9" d="M110.7,113.34A14.69,14.69,0,0,1,95.85,98.5,15,15,0,0,1,111,83.28a15.21,15.21,0,0,1,14.93,15A14.9,14.9,0,0,1,110.7,113.34Z" transform="translate(-1 -1)"/></g></g></svg>