<svg xmlns="http://www.w3.org/2000/svg" viewBox="0 0 250 250"><defs><style>.cls-1{fill:none;}.cls-2{fill:#0bd76b;}.cls-3{fill:#aaf0cb;}.cls-4{fill:#b2f2d0;}.cls-5{fill:#15202c;}.cls-6{fill:#13d870;}.cls-7{fill:#111d29;}.cls-8{fill:#1a2531;}.cls-9{fill:#1d2834;}.cls-10{fill:#979ca2;}.cls-11{fill:#a1efc6;}.cls-12{fill:#a0a4a9;}.cls-13{fill:#9aeec1;}</style></defs><title>Asset 1</title><g id="Layer_2" data-name="Layer 2"><g id="Layer_1-2" data-name="Layer 1"><g id="Layer_1-2-2" data-name="Layer 1-2"><path class="cls-1" d="M174.46,0H250V250H0V0H133V1.59l-1.78.34-3.75,1.72-6.19.59-4.42,2.2-4.1.74-2.86,3.63.3,3.12,1.2,3.89.35,2.76c.53,2.53,1.07,5.06,1.6,7.58l.52,2.72,1.28,2.57,2-2.39,4.23-1.32,6.36-2.07,3.66-.62,6-1.64c9.37-.2,18.76-.91,28.13-.52,15.28.64,29.64,6.43,42.56,17.75,14.91,13,23.09,31.06,21.14,56.42a93.24,93.24,0,0,1-11.6,38c-15.36,28.39-36.39,45.82-60,57.9-10.33,5.29-10.19,5-8.51,19.94.75,6.75,2.88,8.31,7.17,6,6.72-3.58,13.64-6.6,20.17-10.76,26.41-16.89,49-40,62.63-76.77,9.33-25.37,10.66-51.37,1.2-77.31C233.77,38.4,223.17,26.37,210.87,17l-7-4.63-2.62-1.08-2.72-1.77-2.71-.82-2.17-1.57-3-.6-4.45-2.28-5.13-.53-2.8-1.45ZM44.62,83.73h0l2.16-2.91Q52,74.76,57.2,68.72l2.39-2.42,9.18-8L71.29,56a2.12,2.12,0,0,1,.85-.42l2.53-2.19,8.93-5.81,2.66-1.78L87.92,45l2.71-1.73,2.62-1.14L96,40.58l7.89-3,2-2.79-.14-3.34c-.43-1.72-.87-3.42-1.3-5.17l-.65-5.23-1.19-5.21c-.13-.45-.25-.89-.36-1.35-1-4.35-2.24-2.55-3.59-.34l-1.9.51L92.25,17l-1.88.59-3.49,2L56.71,40.22,54.17,42.5a1.35,1.35,0,0,1-.76.47L51,45.43a1.44,1.44,0,0,1-.72.54l-2.39,2.5-7.18,7.81-4.55,5.48-6.43,8.79-4.06,6.17-4.58,8.43L19.4,88.57,14.62,99.71l-3.34,9.67-.9,3.57-1.07,3.16-1,5.71-.87,3.12-.5,11.42v15.38l.49,10L9,168l.37,2.6,1.2,3,.59,2.28,3.69,9.41,3.59,6.95,1.87,3.28,7.52,10.17,2.39,2.55,11.13,10,7,4.57,1.69.76,3.58,2.19,2.66,1.06,2.3,1.42,4.18,1.24L65,231.08l5,.61,5.47,2.11,7.26.48c.66.66,1.32,1.91,2,1.92q13.17.21,26.22,0c.67,0,1.32-1.23,2-1.91l11.15-1.14,3.8-1.57,5.08-.52,2.27-1.38,5.2-1.37c3,.81,3.25.48,2.51-3.65l-1.41-5.57-.61-4.77-1.35-7c-.27-6.31-2.39-4.78-4.79-2.12l-1.9.39-5.61,2.11-5,1-2.3,1.14-2,.35-7.45.27-6,.64L89.93,211l-4.87-.55-6.39-.25-2-.32-2.28-1.21-4-.94-4.55-1.88L63,205l-8-4.41-1.71-.75-2.58-2.09L47,195.13,44.45,193l-7.18-7.66-3.33-4.22-1-1.6q-1.6-3-3.18-5.92l-2.32-5.64-1.38-3.59-1-3.56-.73-3.42L23.92,152l-.12-15.9.61-6.71,5.18-18a4.42,4.42,0,0,1,.28-1.14l1.59-3.51,3.84-8.15,1.84-3.28,5.49-8.58ZM79.9,117.82l-2,3.09,5.78,9.38L86.18,128c4.41-6,8.87-12,13.16-18.08,1.83-2.6,3.15-3,5.27-.26,4.65,6,9.79,11.28,14.35,17.41,2.81,3.8,4.52,3.8,7.3-.1C136.5,112.68,147,98.88,157.11,84.52c3.7-5.26,6.89-9.3,12.23-.24l4.89-33.37-23.38,7.88c4.78,9.81,4.86,9.83.82,15-8.54,11-17.16,21.9-25.63,33-2.22,2.93-3.89,3.42-6.16.17-3.68-5.27-7.83-10-11.35-15.41-3.2-5-5.5-5.28-8.92-.22C94,99.55,87.92,107.09,82.07,114.9l-2.17,2.91Zm85.83,53.94V91.21c-7.9,9.84-16.58,17.19-21.39,27.87-3.2,7.11-.92,19-1.05,28.72v24ZM83.48,172c5.9,0,11-.24,16.1.08,3.59.23,4.49-1.74,4.43-6.41-.18-14.39,0-28.78-.1-43.16a60.84,60.84,0,0,0-.91-6.44c-6.88,10-12.93,18.71-18.92,27.51a5.42,5.42,0,0,0-.6,2.7C83.47,154.54,83.48,162.8,83.48,172Zm29.91,0c6.18,0,12-.18,17.78.08,3.36.15,4.26-1.88,4.16-6.15-.16-7.82,0-15.64-.07-23.47,0-3.7-.24-7.41-.44-12.9-4.14,4.87-6.94,9-10.29,11.9-4.78,4.14-6.44-6.05-11.14-5.34Z"/><path class="cls-2" d="M113.83,30.88c-.17-.9-.35-1.82-.53-2.72-.52-2.52-1.06-5.05-1.59-7.58l-.33-2.76c-.4-1.3-.78-2.6-1.2-3.89-.1-1-.19-2.08-.3-3.13q1.44-1.8,2.86-3.62l4.1-.74,4.42-2.2,6.24-.59L131.24,2,133,1.61l12.71-.22c4.69.09,9.38.38,14.06.17A55.51,55.51,0,0,0,168.09,0h6.37l3.79,2.29,2.8,1.45,5.13.52,4.45,2.28,3,.6c.71.52,1.43,1.05,2.16,1.56l2.72.82,2.71,1.77,2.62,1.09,7,4.62c12.29,9.42,22.89,21.42,29.35,39.06,9.51,26,8.18,52-1.19,77.31-13.57,36.87-36.22,59.89-62.64,76.77-6.53,4.17-13.44,7.18-20.16,10.76-4.31,2.29-6.44.74-7.18-6-1.68-14.93-1.82-14.66,8.52-19.94,23.61-12.08,44.64-29.51,60-57.9a93.34,93.34,0,0,0,11.6-38c2-25.37-6.23-43.38-21.15-56.43-12.88-11.35-27.24-17.14-42.52-17.78-9.37-.39-18.76.32-28.13.52l-6,1.64-3.66.62-6.36,2.07-4.26,1.32Z"/><path class="cls-3" d="M168.09,0a56.81,56.81,0,0,1-8.29,1.54c-4.68.21-9.37-.08-14.06-.17V0Z"/><path class="cls-4" d="M145.74,0V1.37L133,1.59V0Z"/><path class="cls-5" d="M133,205.61l1.9-.39,4.78,2.11c.46,2.34.91,4.67,1.35,7l.61,4.77c.47,1.86.95,3.71,1.42,5.57l-2.52,3.65-5.2,1.37-2.26,1.38-5.08.52-3.81,1.57L113,234.32H82.79l-7.3-.52-5.59-2.1-5-.6-2.22-1.53-4.18-1.25-2.3-1.41-2.66-1.07-3.58-2.19-1.69-.76-7-4.57-11.13-10-2.39-2.55-7.52-10.17-1.87-3.28-3.59-6.95L11,175.94l-.59-2.29-1.2-3L8.86,168c-.51-2.08-1-4.17-1.55-6.25l-.46-10V136.43L7.36,125l.87-3.13,1-5.7,1-3.18.9-3.56,3.34-9.67,4.78-11.14L21,85.21l4.58-8.43,4-6.2L36,61.79l4.55-5.48,7.17-7.81,2.4-2.5a1.35,1.35,0,0,0,.71-.53L53.27,43a1.3,1.3,0,0,0,.76-.47l2.54-2.28L86.93,19.52l3.49-2,1.88-.58,4.51-2.29,1.9-.51,3.59.34c.1.46.22.9.36,1.35L103.85,21l.65,5.22,1.3,5.18.13,3.33-2,2.8-7.88,3L93.3,42.05,90.68,43.2,88,44.92l-1.71.91L83.6,47.61l-8.93,5.78-2.53,2.22a2.05,2.05,0,0,0-.8.42l-2.52,2.28-9.18,8-2.39,2.42q-5.26,6-10.47,12.1l-2.15,2.91h0l-2.05,3.06-5.49,8.59-1.84,3.27-3.84,8.15-1.59,3.51a4.51,4.51,0,0,0-.27,1.14q-2.61,9-5.18,18c-.21,2.24-.41,4.47-.6,6.71l.11,15.9.46,5.32.73,3.43,1,3.55,1.38,3.59,2.32,5.64q1.58,3,3.18,5.93c.31.53.63,1.06,1,1.6l3.32,4.22L44.39,193l2.54,2.18,3.68,2.61,2.58,2.09,1.71.76L63,205l2.91.89,4.55,1.88,4,.94,2.29,1.21,2,.32,6.39.25L90,211l14.63.1,6-.64,7.45-.27,1.95-.35,2.29-1.14,5-1Z"/><path class="cls-6" d="M82.07,114.9c5.85-7.81,12-15.35,17.49-23.54,3.42-5.06,5.73-4.75,8.92.22C112,97,116.16,101.72,119.83,107c2.28,3.25,3.94,2.77,6.16-.17,8.47-11.12,17.1-22,25.64-33,4-5.17,4-5.19-.78-15l23.43-7.88-4.89,33.37c-5.35-9.06-8.53-5-12.24.24C147,98.88,136.5,112.68,126.29,127c-2.77,3.89-4.48,3.89-7.29.09-4.55-6.13-9.69-11.42-14.36-17.41-2.12-2.72-3.43-2.28-5.26.26C95.06,116.06,90.6,122,86.22,128L83.7,130.3l-5.82-9.39,2-3.09h0Z"/><path class="cls-7" d="M165.73,171.76H143.29v-24c.13-9.74-2.15-21.61,1.05-28.72,4.79-10.68,13.49-18,21.39-27.87Z"/><path class="cls-8" d="M83.48,172V146.29a5.46,5.46,0,0,1,.6-2.71c6-8.8,12-17.53,18.92-27.51a61.5,61.5,0,0,1,.88,6.48c0,14.38-.09,28.77.09,43.16,0,4.67-.86,6.64-4.42,6.41C94.49,171.82,89.38,172,83.48,172Z"/><path class="cls-9" d="M113.34,172V136.19c4.7-.72,6.33,9.47,11.15,5.33,3.34-2.89,6.14-7,10.28-11.9.21,5.49.42,9.2.45,12.9,0,7.83-.1,15.65.07,23.47.09,4.27-.8,6.3-4.17,6.16C125.33,171.88,119.52,172,113.34,172Z"/><path class="cls-10" d="M82.79,234.28H113c-.65.67-1.3,1.9-2,1.91q-13.16.19-26.22,0C84.1,236.19,83.44,234.94,82.79,234.28Z"/><path class="cls-10" d="M104.67,211.12,90,211Z"/><path class="cls-10" d="M24.35,129.42q2.59-9,5.18-18Q26.94,120.44,24.35,129.42Z"/><path class="cls-10" d="M23.86,152l-.1-15.9Z"/><path class="cls-10" d="M6.94,136.42v0Z"/><path class="cls-10" d="M118.09,210.21l-7.46.27Z"/><path class="cls-10" d="M63.05,205,55,200.58Z"/><path class="cls-10" d="M14.58,99.75l-3.34,9.67Z"/><path class="cls-10" d="M41.22,218.37l7,4.56Z"/><path class="cls-4" d="M121.32,29.74l6.36-2.07Z"/><path class="cls-11" d="M210.84,17l-7-4.63Z"/><path class="cls-10" d="M85.06,210.48l-6.39-.25Z"/><path class="cls-10" d="M11.1,176l3.7,9.41Z"/><path class="cls-10" d="M133,205.61l-5.61,2.11Z"/><path class="cls-10" d="M139.59,207.33l-4.78-2.11C137.22,202.56,139.33,201,139.59,207.33Z"/><path class="cls-12" d="M40.71,56.26l-4.55,5.48Z"/><path class="cls-12" d="M29.72,70.53l-4,6.19Z"/><path class="cls-4" d="M111.71,20.58c.53,2.53,1.07,5.06,1.59,7.58C112.78,25.64,112.24,23.11,111.71,20.58Z"/><path class="cls-4" d="M131.34,27.07l6-1.65Z"/><path class="cls-10" d="M70.51,207.76l-4.59-1.88Z"/><path class="cls-10" d="M69.94,231.7l5.55,2.1Z"/><path class="cls-10" d="M96.81,14.66,92.3,16.94Z"/><path class="cls-4" d="M121.26,4.24l-4.42,2.2Z"/><path class="cls-11" d="M190.63,6.52l-4.45-2.28Z"/><path class="cls-10" d="M32.92,179.51q-1.61-3-3.18-5.93Z"/><path class="cls-10" d="M7.43,161.77c.51,2.08,1,4.17,1.55,6.24C8.5,165.94,7.94,163.85,7.43,161.77Z"/><path class="cls-10" d="M140.45,228.33l2.52-3.65C143.67,228.81,143.48,229.12,140.45,228.33Z"/><path class="cls-4" d="M112.74,7.18Q111.32,9,109.88,10.8,111.32,9,112.74,7.18Z"/><path class="cls-10" d="M37.21,185.32l-3.33-4.21Z"/><path class="cls-10" d="M90.42,17.49l-3.49,2Z"/><path class="cls-4" d="M113.83,30.88l3.25.18-2,2.39Z"/><path class="cls-10" d="M49.93,223.65l3.59,2.19Z"/><path class="cls-10" d="M102.25,14.51l-3.59-.34C100,11.94,101.29,10.14,102.25,14.51Z"/><path class="cls-4" d="M131.24,2,127.5,3.68Z"/><path class="cls-10" d="M124.1,233.17l3.81-1.57Z"/><path class="cls-10" d="M103.83,21.05l-1.2-5.22Z"/><path class="cls-10" d="M105.78,31.45l-1.31-5.17C104.9,28,105.39,29.73,105.78,31.45Z"/><path class="cls-10" d="M141.56,219.11l-.62-4.77Z"/><path class="cls-11" d="M181.05,3.69l-2.8-1.45Z"/><path class="cls-11" d="M195.8,8.69c-.73-.52-1.45-1-2.16-1.57C194.35,7.66,195.11,8.17,195.8,8.69Z"/><path class="cls-4" d="M110.18,13.93c.39,1.29.78,2.59,1.2,3.89C111,16.52,110.57,15.22,110.18,13.93Z"/><path class="cls-11" d="M201.23,11.28l-2.71-1.77Z"/><path class="cls-10" d="M103.9,37.58l2-2.8Z"/><path class="cls-12" d="M56.71,40.22,54.17,42.5Z"/><path class="cls-10" d="M93.28,42.09,96,40.56Z"/><path class="cls-13" d="M82.07,114.9l-2.17,2.91Z"/><path class="cls-13" d="M79.9,117.82l-2,3.09Z"/><path class="cls-10" d="M44.62,83.73l2.16-2.91Z"/><path class="cls-10" d="M42.57,86.79l2-3.06Z"/><path class="cls-10" d="M18.33,192.34l1.86,3.28Z"/><path class="cls-10" d="M47,195.16,44.45,193Z"/><path class="cls-10" d="M53.25,199.86l-2.58-2.09Z"/><path class="cls-12" d="M21.11,85.15,19.4,88.57Z"/><path class="cls-10" d="M57.19,68.72l2.39-2.42Z"/><path class="cls-10" d="M35.24,98.65l1.84-3.27Z"/><path class="cls-10" d="M10.35,113l-1,3.13Z"/><path class="cls-10" d="M27.72,205.79c.78.84,1.57,1.7,2.39,2.54Z"/><path class="cls-13" d="M83.68,130.29,86.21,128Z"/><path class="cls-10" d="M76.76,209.91l-2.29-1.21Z"/><path class="cls-10" d="M8.31,121.87,7.44,125Z"/><path class="cls-10" d="M72.14,55.61l2.53-2.19Z"/><path class="cls-10" d="M83.6,47.61l2.66-1.78Z"/><path class="cls-12" d="M50.26,46l-2.39,2.5Z"/><path class="cls-10" d="M68.82,58.25,71.34,56Z"/><path class="cls-10" d="M87.94,45l2.72-1.73Z"/><path class="cls-10" d="M9.35,170.61l1.2,3Z"/><path class="cls-10" d="M27.42,168,26,164.35Z"/><path class="cls-10" d="M56.2,226.91l2.29,1.41Z"/><path class="cls-10" d="M62.68,229.57l2.21,1.53Z"/><path class="cls-10" d="M133,231.08l2.26-1.38Z"/><path class="cls-10" d="M29.81,110.31l1.59-3.51Z"/><path class="cls-10" d="M25.06,160.8l-.73-3.43Z"/><path class="cls-12" d="M53.41,43,51,45.41Z"/><path class="cls-10" d="M122.33,208.76,120,209.9Z"/></g></g></g></svg>