<svg xmlns="http://www.w3.org/2000/svg" viewBox="0 0 368.64 368.64"><defs><style>.cls-1{fill:#1976d2;}.cls-1,.cls-2,.cls-3,.cls-4{fill-rule:evenodd;}.cls-2{fill:#f8c54d;}.cls-3{fill:#fbd73a;}.cls-4{fill:#e4c436;}</style></defs><g id="Layer_2" data-name="Layer 2"><g id="Layer_1-2" data-name="Layer 1"><path class="cls-1" d="M343.92,92.18c50.89,88.14,20.69,200.85-67.46,251.74S75.61,364.61,24.72,276.46A184.25,184.25,0,0,1,92.18,24.72C180.32-26.17,293,4,343.92,92.18Z"/><polygon class="cls-2" points="317.52 172.92 318.29 175.66 314.87 177.51 314.3 174.13 317.52 172.92"/><polygon class="cls-2" points="309.35 175.53 305.7 173.42 309.13 167.48 312.45 167.21 315.82 169.16 315.53 169.65 309.35 175.53"/><polygon class="cls-2" points="330.16 153.76 326.59 159.95 320.05 145.62 323.71 143.37 327.98 146.76 330.16 153.76"/><polygon class="cls-2" points="314.13 164.29 310.49 162.19 309.36 157.98 312.82 152 316.33 155.29 314.94 158.26 316.01 159.64 314.13 164.29"/><polygon class="cls-2" points="324.13 167.72 328.56 170.27 322.85 172.13 324.13 167.72"/><polygon class="cls-2" points="320.79 170 317.06 167.84 316.87 164.01 318.25 160.12 324.43 163.69 320.79 170"/><polygon class="cls-2" points="329.12 167.98 325.27 165.75 331.75 154.52 335.32 150.99 337.41 153.63 336.52 160.27 332.28 167.62 330.07 166.34 329.12 167.98"/><polygon class="cls-2" points="358.18 150.03 357.7 156.26 354.08 160.07 349.01 155.13 350.25 149.46 358.18 150.03"/><path class="cls-3" d="M161.94,367.25A184.48,184.48,0,0,1,14.45,255.81l6.51-.76,15,8.66,8.56-2.32L51,264.53l9.25,14.58,30.8.24L105.88,290,114,278.86l6.85-1.84,4.6-7.95L124,262.9l8.1-14-1-1.18,4.52-7.83,30.73-6.09,15.78,9.33-.6,3.58,5.43,4.61,2.44-4.22,7.4,2,3,29.31,10.57,6.11-.18,13.4-2.82,3.84-4.83,8.37-.25,8.55-10.49,22L181,334.41l-13.79,14.13L163,350.46l-1.76,3,5.87,3.39L162.5,367Z"/><path class="cls-3" d="M237.76,360.73A183.26,183.26,0,0,1,200.15,368l3.24-1.14,4.07-1.09,4.68-8.11L203.4,356l-11.05,6.64-2.78.63.15-2.69-5.79-3.25.78-5.89,3.24-3.53,5-.5-4.14,6.42,1.33,3.18,18.34-8.93,4.82,1.3-2-9,4.72-5.31L209.53,319l-3.65-4.5,2.87-6.17,5-8.72,5.4-3.77,11.22,4.45,3.8,4.66L231,314.86l-7.5,8.52,4.65,4.27,3.36-3.54,7.48,6.18-4.09,10.6,5.68,12.31Z"/><path class="cls-3" d="M343.92,92.18a183.61,183.61,0,0,1,20.25,132.31l-1.11-.34-5.21,6.56,4.24,2.16A185.32,185.32,0,0,1,350,265.06l-7.1,5.18-6.68-3.86-4.68,4.79-3.65-5.88,4.56-7.91-4.69-5.89,14.77-15.63-.65,18.65,7.77-2.78,5.56-13.2-.5-1.71,0,0-.12-.34L353,230.78l2.89-6.16-3.16-1.22L350.63,225l-.94-.65,2.1-5.14-2.61-1.93,2.42-4.67,6,2.35,2.24-9.65-.12-22.32-8-2.09L346,183.77l-6.69,8.55-10.62-6.13-1.82,4.75,6,8.78-2.61,11.72L343,218.81l1,7.95-10.84,11.5-7.89-5.75-2,3.56-.87,12.58-11.29-5.92-8.49,4.66-6.39-4.07,1.61-8.2-2.44-.8-8.48,6.09-4.42-2.78,1.17-2.48.14,0,9.2-8.53,3.58,1.46.34,4.26,3.07,1.77,2.72-2.81-2.36-2.45,2.45-6.24.54-.46L303,222l.81-2.15,4.23.26,1.91-1.42,2.35-4.06-.44-2.76-3.36-1.94-3.17,2.86L302.85,216l.08-1-1.66-5.16,2.55-.39,2.55-2.58-3-12.77-1.52.53.29-16.12L296.77,160l-4.86-3.9L291,140.17l-2.5-9-11.86-6L285,119.3l6.69,4,12.75-22.1.83-14.78-6.31-10.3L292.78,70l-8.9-.87-6.32,8.37,1.33,19.85-5.49-1.48-5.71-9.14-8.18,9.82L242,87.89,230.9,101.37l5.45,15.83-9,10.18-8,.81-5.72,11.41,3.1,2.22-6.5,4.35-14.7.64-7,11.71H178.45l-9.71-4.78L156.23,164l-9.68,16.38-10.71.27-6.61,6-5.7-5.21-5.59-13.88-21.2-15.36-1.52-10.55L101.77,131l-4.18-7.17-13.22-4.08L76.14,99.44l-4.69-7.69,1.11-14.22,3.12-8-2.94-2.09L68.3,71.74l-3-2.54L63.51,62l-5.09.77-3.36,5.45L51,65.5l-3.38-3.91-.47-.36a181.37,181.37,0,0,1,18-17.48l7.67.06,14,9.64,12.52-1.52,13.26,11.21,3.32-3.28L147.94,78.4s14.54-6.14,14.9-6.76,4.69-4.93,4.69-4.93l6.72,2.39,25.95-3.94,5.56,5.13,10.16,6.47,1.18,13.75,12.49,5.35L239,82.13l19.26-3.81L265,71.66,268.87,67l4.28,3.3,4.71-6-2.62-1.52L288.7,48.79,302.59,48l3.32,5.53,7.69-.6A184.53,184.53,0,0,1,343.92,92.18Z"/><polygon class="cls-4" points="184.32 357.56 183.93 357.34 184.32 354.4 184.32 357.56"/></g></g></svg>