<svg xmlns="http://www.w3.org/2000/svg" viewBox="0 0 250.38 251.24"><defs><style>.cls-1{fill:none;}.cls-2{fill:#23345c;}.cls-3{fill:#989796;}</style></defs><title>Asset 1</title><g id="Layer_2" data-name="Layer 2"><g id="Layer_1-2" data-name="Layer 1"><g id="Layer_1-2-2" data-name="Layer 1-2"><path class="cls-1" d="M116.55,251.24H0V0H108.9c-4,1.46-7.9,3.3-12.1,4.3C75,9.47,59.19,20.71,46.15,34.21,14.92,66.47,5.15,103.39,11,142.62c2.25,15,8.45,29.87,14.51,44.39,3.56,8.46,10.78,10,24,7.11,8.13-1.73,7.95-7.23,8-12.36,0-20.31-.08-40.62,0-60.93,0-9.54,4.21-12.33,17.51-12.34,14.7,0,18.5,2.37,18.56,12.21.13,19.33,0,38.67,0,58,0,2,.28,4.1.45,6.42,10.41-1.11,12.83-6.08,12.82-12.52,0-26.18-.23-52.37.23-78.55,0-3.71,1.91-9,5.37-10.79,13.9-7.18,30.51.25,30.55,13.12V161c0,2.52.31,5,.47,7.53,11.71-3.12,13-9.73,12.84-17.53-.35-27.65-.36-55.31.15-83,0-3.86,2.37-9.51,6.05-11.2,14.81-6.76,29.7.29,29.74,13.36.06,21,0,42.09,0,63.14a53.11,53.11,0,0,0,.64,5.91l2.66.8c9.9-10.29,19.36-20.86,29.81-30.81C238.28,96.93,237,84.28,229.28,71c-1-1.78-1.6-3.7-2.6-5.51-9.41-18-22-34.06-41.65-47.09C172,9.71,156.45,5.52,141.41,0h109V251.24H128c2.32-1,4.59-2.71,7-2.79,33.24-1.14,54.66-17,72.88-35.67,16.92-17.36,26.32-37.7,30.43-59.17,2.12-11.06,2.5-22.32,3.67-33.49l-2.6-.44c-38.76,56.42-99.62,90.84-180.31,106.41,11.39,10.07,26.42,17.31,43.18,20.81C107.14,248,111.78,249.77,116.55,251.24Z"/><path class="cls-2" d="M141.41,0c15,5.52,30.59,9.71,43.9,18.44C205,31.44,217.56,47.5,227,65.53c.94,1.81,1.51,3.73,2.61,5.51,7.7,13.28,9,25.93-3.91,38.19-10.41,10-19.91,20.52-29.8,30.81l-2.67-.8a57.34,57.34,0,0,1-.64-5.91V70.19c0-13.07-14.93-20.12-29.74-13.36-3.68,1.69-6,7.34-6.05,11.2-.51,27.65-.49,55.31-.14,83,.1,7.8-1.08,14.41-12.85,17.53-.15-2.48-.45-5-.47-7.53V96.42c0-12.87-16.64-20.3-30.54-13.12-3.46,1.79-5.31,7.08-5.38,10.79-.45,26.18-.26,52.37-.23,78.55,0,6.44-2.36,11.41-12.82,12.52-.17-2.32-.44-4.37-.44-6.42v-58c0-9.84-3.91-12.21-18.56-12.21-13.3,0-17.47,2.8-17.52,12.34-.13,20.31,0,40.62,0,60.93,0,5.13.17,10.63-8,12.36-13.26,2.84-20.48,1.35-24-7.11C19.47,172.49,13.28,157.71,11,142.62,5.15,103.39,14.93,66.47,46.16,34.21,59.19,20.71,75,9.47,96.8,4.3c4.22-1,8.1-2.84,12.12-4.3Z"/><path class="cls-3" d="M116.55,251.24c-4.77-1.47-9.41-3.26-14.32-4.34-16.75-3.5-31.78-10.74-43.17-20.81,80.69-15.57,141.56-50,180.3-106.41l2.6.44c-1.17,11.17-1.55,22.43-3.67,33.49-4.11,21.47-13.54,41.81-30.43,59.17-18.12,18.62-39.59,34.53-72.88,35.67-2.36.08-4.64,1.82-6.95,2.79Z"/></g></g></g></svg>