<svg xmlns="http://www.w3.org/2000/svg" viewBox="0 0 94.6 94.6"><defs><style>.cls-1{fill:#3f91cb;}.cls-2,.cls-3{fill:#fff;}.cls-2{fill-rule:evenodd;}</style></defs><g id="Layer_2" data-name="Layer 2"><g id="Layer_1-2" data-name="Layer 1"><circle class="cls-1" cx="47.3" cy="47.3" r="47.3" transform="translate(-11.87 78.5) rotate(-72.8)"/><path class="cls-2" d="M47.3,21.47A26.49,26.49,0,0,0,39,73.09c1.33.24,1.81-.58,1.81-1.27V66.89c-7.37,1.59-8.91-3.13-8.91-3.13-1.2-3.06-2.94-3.88-2.94-3.88-2.4-1.64.18-1.61.18-1.61A5.58,5.58,0,0,1,33.15,61c2.36,4,6.2,2.88,7.72,2.23a5.53,5.53,0,0,1,1.68-3.54c-5.89-.67-12.08-2.95-12.08-13.1a10.25,10.25,0,0,1,2.74-7.1,9.44,9.44,0,0,1,.26-7s2.22-.72,7.27,2.71a25.11,25.11,0,0,1,13.27,0c5-3.45,7.2-2.74,7.2-2.74a9.49,9.49,0,0,1,.26,7,10.18,10.18,0,0,1,2.72,7.11C64.19,56.75,58,59,52.11,59.64a6.34,6.34,0,0,1,1.79,4.91v7.27c0,.7.48,1.52,1.82,1.27a26.49,26.49,0,0,0-8.39-51.62Z"/><path class="cls-3" d="M30.84,59.5c0,.13-.26.16-.45.08s-.3-.27-.24-.41.27-.16.46-.07S30.91,59.36,30.84,59.5Z"/><path class="cls-3" d="M31.92,60.69c-.12.12-.38.07-.55-.12A.42.42,0,0,1,31.3,60c.13-.12.36-.07.54.12S32.05,60.58,31.92,60.69Z"/><path class="cls-3" d="M33,62.22c-.17.12-.44,0-.59-.23s-.17-.52,0-.63.42,0,.59.22A.48.48,0,0,1,33,62.22Z"/><path class="cls-3" d="M34.39,63.69c-.14.16-.46.11-.68-.1s-.3-.52-.14-.68a.51.51,0,0,1,.68.1C34.47,63.23,34.55,63.54,34.39,63.69Z"/><path class="cls-3" d="M36.37,64.55a.53.53,0,0,1-.67.21c-.3-.09-.49-.33-.43-.54s.37-.3.67-.22S36.43,64.34,36.37,64.55Z"/><path class="cls-3" d="M38.53,64.71c0,.22-.24.4-.56.4s-.58-.17-.58-.38.25-.4.57-.41.57.17.57.39Z"/><path class="cls-3" d="M40.56,64.36a.55.55,0,0,1-.51.49c-.31.06-.59-.07-.62-.28s.18-.44.49-.5A.54.54,0,0,1,40.56,64.36Z"/></g></g></svg>