<svg xmlns="http://www.w3.org/2000/svg" width="24.806" height="24.805" viewBox="0 0 24.806 24.805"><g transform="translate(-745.932 -150.694)"><g transform="translate(745.932 150.694)"><path d="M772.37,157.011a1.454,1.454,0,1,0,1.454,1.454A1.454,1.454,0,0,0,772.37,157.011Z" transform="translate(-753.4 -152.582)"/><path d="M761.164,159.671a6.109,6.109,0,1,0,6.109,6.109A6.116,6.116,0,0,0,761.164,159.671Zm0,10.022a3.913,3.913,0,1,1,3.913-3.913A3.917,3.917,0,0,1,761.164,169.693Z" transform="translate(-748.659 -153.377)"/><path d="M763.287,175.5h-9.9a7.459,7.459,0,0,1-7.451-7.45v-9.9a7.459,7.459,0,0,1,7.451-7.45h9.9a7.459,7.459,0,0,1,7.451,7.45v9.9A7.459,7.459,0,0,1,763.287,175.5Zm-9.9-22.472a5.123,5.123,0,0,0-5.117,5.117v9.9a5.123,5.123,0,0,0,5.117,5.117h9.9a5.124,5.124,0,0,0,5.117-5.117v-9.9a5.123,5.123,0,0,0-5.117-5.117Z" transform="translate(-745.932 -150.694)"/></g></g></svg>