<svg xmlns="http://www.w3.org/2000/svg" width="29.931" height="29.79" viewBox="0 0 29.931 29.79"><defs><style>.a{opacity:0.5;}.b{fill:#fff;}</style></defs><g class="a"><g transform="translate(0 0)"><path class="b" d="M12.965,25.583A12.749,12.749,0,0,1,.207,12.895H-2A14.955,14.955,0,0,0,12.965,27.79ZM25.724,12.895A12.749,12.749,0,0,1,12.965,25.583V27.79A14.955,14.955,0,0,0,27.931,12.895ZM12.965.207A12.749,12.749,0,0,1,25.724,12.895h2.207A14.955,14.955,0,0,0,12.965-2Zm0-2.207A14.955,14.955,0,0,0-2,12.895H.207A12.749,12.749,0,0,1,12.965.207Z" transform="translate(2 2)"/></g><path class="b" d="M18.823,12.593c2.029,0,2.27.008,3.071.044a4.205,4.205,0,0,1,1.411.262,2.517,2.517,0,0,1,1.442,1.442,4.2,4.2,0,0,1,.262,1.411c.037.8.044,1.042.044,3.071s-.008,2.27-.044,3.071a4.208,4.208,0,0,1-.262,1.411,2.517,2.517,0,0,1-1.442,1.442,4.2,4.2,0,0,1-1.411.262c-.8.037-1.042.044-3.071.044s-2.27-.008-3.071-.044a4.207,4.207,0,0,1-1.411-.262A2.517,2.517,0,0,1,12.9,23.306a4.2,4.2,0,0,1-.262-1.411c-.037-.8-.044-1.042-.044-3.071s.008-2.27.044-3.071a4.2,4.2,0,0,1,.262-1.411A2.517,2.517,0,0,1,14.341,12.9a4.205,4.205,0,0,1,1.411-.262c.8-.037,1.042-.044,3.071-.044Zm0-1.369c-2.064,0-2.323.009-3.134.046a5.578,5.578,0,0,0-1.845.353,3.888,3.888,0,0,0-2.223,2.223,5.579,5.579,0,0,0-.353,1.845c-.037.81-.046,1.069-.046,3.134s.009,2.323.046,3.133a5.579,5.579,0,0,0,.353,1.845,3.886,3.886,0,0,0,2.223,2.223,5.578,5.578,0,0,0,1.845.353c.811.037,1.069.046,3.134.046s2.323-.009,3.134-.046a5.578,5.578,0,0,0,1.845-.353A3.886,3.886,0,0,0,26.025,23.8a5.579,5.579,0,0,0,.353-1.845c.037-.811.046-1.069.046-3.133s-.009-2.323-.046-3.134a5.579,5.579,0,0,0-.353-1.845A3.887,3.887,0,0,0,23.8,11.622a5.579,5.579,0,0,0-1.845-.353c-.81-.037-1.069-.046-3.133-.046Z" transform="translate(-3.928 -3.928)"/><path class="b" d="M21.828,17.926a3.9,3.9,0,1,0,2.76,1.143,3.9,3.9,0,0,0-2.76-1.143Zm0,6.436a2.533,2.533,0,1,1,1.791-.742A2.533,2.533,0,0,1,21.828,24.362Z" transform="translate(-6.933 -6.934)"/><path class="b" d="M31.613,17.817A.912.912,0,1,0,30.7,16.9.912.912,0,0,0,31.613,17.817Z" transform="translate(-12.661 -6.067)"/></g></svg>