<svg xmlns="http://www.w3.org/2000/svg" viewBox="0 0 251.75 251.75"><defs><style>.cls-1{fill:#ee2a7b;}.cls-2{fill:#fff;}</style></defs><g id="Layer_2" data-name="Layer 2"><g id="Layer_1-2" data-name="Layer 1"><circle class="cls-1" cx="125.87" cy="125.87" r="125.87" transform="translate(-52.14 125.87) rotate(-45)"/><path class="cls-2" d="M161.6,192.08H90.15a29.74,29.74,0,0,1-29.72-29.71V90.92A29.75,29.75,0,0,1,90.15,61.2H161.6a29.75,29.75,0,0,1,29.71,29.72v71.45A29.74,29.74,0,0,1,161.6,192.08ZM90.15,77.2A13.74,13.74,0,0,0,76.43,90.92v71.45a13.73,13.73,0,0,0,13.72,13.71H161.6a13.73,13.73,0,0,0,13.71-13.71V90.92A13.73,13.73,0,0,0,161.6,77.2Z"/><path class="cls-2" d="M125.87,158.75A32.11,32.11,0,1,1,158,126.64,32.14,32.14,0,0,1,125.87,158.75Zm0-48.21A16.11,16.11,0,1,0,142,126.64,16.12,16.12,0,0,0,125.87,110.54Z"/><circle class="cls-2" cx="157.31" cy="93.31" r="7.33"/></g></g></svg>