<svg xmlns="http://www.w3.org/2000/svg" width="29.931" height="29.79" viewBox="0 0 29.931 29.79"><defs><style>.a{opacity:0.5;}.b{fill:#fff;}</style></defs><g class="a"><g transform="translate(0 0)"><path class="b" d="M12.965,25.583A12.749,12.749,0,0,1,.207,12.895H-2A14.955,14.955,0,0,0,12.965,27.79ZM25.724,12.895A12.749,12.749,0,0,1,12.965,25.583V27.79A14.955,14.955,0,0,0,27.931,12.895ZM12.965.207A12.749,12.749,0,0,1,25.724,12.895h2.207A14.955,14.955,0,0,0,12.965-2Zm0-2.207A14.955,14.955,0,0,0-2,12.895H.207A12.749,12.749,0,0,1,12.965.207Z" transform="translate(2 2)"/></g><path class="b" d="M19.965,19.584l5.948,6.655H9.74l5.948-6.655,2.139,1.872ZM25.815,13H9.838l7.989,6.991ZM20.8,18.858l5.857,6.554V13.733ZM9,13.733v11.68l5.857-6.555Z" transform="translate(-2.932 -4.725)"/></g></svg>