<svg xmlns="http://www.w3.org/2000/svg" viewBox="0 0 1333.34 1333.34" shape-rendering="geometricPrecision" text-rendering="geometricPrecision" image-rendering="optimizeQuality" fill-rule="evenodd" clip-rule="evenodd"><path d="M0 1333.34h1333.34V0H0v1333.34zm325.02-887.42a34.71 34.71 0 00-11.28-29.26L230.1 315.9v-15.05h259.69l200.72 440.21 176.47-440.21h247.56v15.05l-71.5 68.56a20.89 20.89 0 00-7.94 20.07v503.75a20.903 20.903 0 007.94 20.07l69.83 68.56v15.05H761.61v-15.05l72.35-70.23c7.11-7.11 7.11-9.2 7.11-20.07V499.43l-201.15 510.86h-27.18L378.56 499.43v342.38a47.254 47.254 0 0012.96 39.3l94.09 114.13v15.05h-266.8v-15.05l94.09-114.13a45.594 45.594 0 0012.13-39.3V445.92z" fill="#12100e" fill-rule="nonzero"/></svg>