<?xml version="1.0" encoding="UTF-8" standalone="no"?>
<svg
   xmlns:dc="http://purl.org/dc/elements/1.1/"
   xmlns:cc="http://creativecommons.org/ns#"
   xmlns:rdf="http://www.w3.org/1999/02/22-rdf-syntax-ns#"
   xmlns:svg="http://www.w3.org/2000/svg"
   xmlns="http://www.w3.org/2000/svg"
   id="svg17"
   version="1.1"
   viewBox="0 0 250 250">
  <metadata
     id="metadata21">
    <rdf:RDF>
      <cc:Work
         rdf:about="">
        <dc:format>image/svg+xml</dc:format>
        <dc:type
           rdf:resource="http://purl.org/dc/dcmitype/StillImage" />
      </cc:Work>
    </rdf:RDF>
  </metadata>
  <defs
     id="defs4">
    <style
       id="style2">.cls-1{fill:none;}.cls-2{fill:#a901fe;}.cls-3{fill:#fefdfe;}</style>
  </defs>
  <title
     id="title6">Asset 1</title>
  <g
     data-name="Layer 2"
     id="Layer_2">
    <g
       data-name="Layer 1"
       id="Layer_1-2">
      <g
         data-name="Layer 1-2"
         id="Layer_1-2-2">
        <path
           id="path8"
           d="M0,250V0H250V250Zm133.43-72.86c.79,8.44,2.62,15.78,7.19,22.36A42.3,42.3,0,0,0,163,216.34c18.35,5.87,38-.69,49.22-17.75A41.15,41.15,0,0,0,218.86,176c.18-32.17.11-64.3,0-96.5a101.11,101.11,0,0,0-.84-12.3,39.89,39.89,0,0,0-13.22-24.93,41.32,41.32,0,0,0-23.56-10.77q-20-2.23-35.14,11.83c-4.89,4.56-9.53,9.42-14.24,14.17-4.06,4.11-8.07,8.3-12.13,12.39-.8.82-1.74,1.49-2.73,2.33a5.27,5.27,0,0,1-.25-.86,41,41,0,0,0-13.72-28.95A40.31,40.31,0,0,0,81.7,31.83c-17.36-2.68-31.83,3.1-42.59,17.76a39.64,39.64,0,0,0-7.67,23.69V174.15a37.83,37.83,0,0,0,1.62,12.58c1.86,5.42,3.85,10.59,7.45,15.11A41.53,41.53,0,0,0,62.2,216.63c16.19,4.49,30.53.61,42.92-11.24,4.78-4.57,9.4-9.34,14.07-14,4.1-4.15,8.16-8.37,12.25-12.53C132,178.28,132.59,177.85,133.43,177.14Z"
           class="cls-1" />
        <path
           id="path10"
           d="M133.43,177.14c-.84.69-1.47,1.14-2,1.67-4.09,4.15-8.15,8.37-12.25,12.53-4.67,4.71-9.29,9.48-14.07,14-12.41,11.85-26.73,15.73-42.92,11.24-8.7-2.42-15.85-7.48-21.69-14.79-3.6-4.52-5.59-9.68-7.45-15.11a37.87,37.87,0,0,1-1.62-12.58V73.28a39.64,39.64,0,0,1,7.67-23.69C49.87,34.93,64.34,29.15,81.7,31.85A40.31,40.31,0,0,1,103.07,42.4a41,41,0,0,1,13.72,28.95,5.27,5.27,0,0,0,.25.86,33.63,33.63,0,0,0,2.73-2.33c4.06-4.11,8.07-8.3,12.13-12.39,4.71-4.75,9.35-9.61,14.24-14.17q15.06-14.05,35.14-11.85a41.31,41.31,0,0,1,23.57,10.74,39.79,39.79,0,0,1,13.22,24.93,99,99,0,0,1,.84,12.29c.07,32.17.14,64.3,0,96.5a41.28,41.28,0,0,1-6.63,22.64C201,215.62,181.38,222.19,163,216.32a42.31,42.31,0,0,1-22.4-16.85C136.07,192.92,134.22,185.58,133.43,177.14Zm35.47-53c-.26-1.55-.65-3.69-1-5.84a40.79,40.79,0,0,0-9-20.58,42.29,42.29,0,0,0-40.31-15.05c-13,2.27-23.12,9.31-30,21.05-7,11.95-8.49,32.16,3.54,47.17a48.94,48.94,0,0,0,5.66,5.94c9.59,8.53,20.74,11.75,33.08,10.33,13.15-1.49,23.58-8.16,31.16-19.53,4.48-6.75,6.1-14.68,6.84-23.49Z"
           class="cls-2" />
        <path
           id="path12"
           d="M168.9,124.18c-.74,8.81-2.36,16.74-6.86,23.5-7.58,11.37-18,18-31.16,19.54-12.34,1.38-23.52-1.81-33.08-10.34a48.94,48.94,0,0,1-5.66-5.94c-12.06-15-10.56-35.21-3.54-47.17,6.9-11.75,17-18.77,30-21a42.2,42.2,0,0,1,29,5.26A41.75,41.75,0,0,1,159,97.76a40.85,40.85,0,0,1,8.93,20.58C168.23,120.49,168.64,122.63,168.9,124.18Z"
           class="cls-3" />
      </g>
    </g>
  </g>
</svg>
