<svg xmlns="http://www.w3.org/2000/svg" width="29.931" height="29.79" viewBox="0 0 29.931 29.79"><defs><style>.a{opacity:0.5;}.b{fill:#fff;}</style></defs><g class="a"><g transform="translate(0 0)"><path class="b" d="M12.965,25.583A12.749,12.749,0,0,1,.207,12.895H-2A14.955,14.955,0,0,0,12.965,27.79ZM25.724,12.895A12.749,12.749,0,0,1,12.965,25.583V27.79A14.955,14.955,0,0,0,27.931,12.895ZM12.965.207A12.749,12.749,0,0,1,25.724,12.895h2.207A14.955,14.955,0,0,0,12.965-2Zm0-2.207A14.955,14.955,0,0,0-2,12.895H.207A12.749,12.749,0,0,1,12.965.207Z" transform="translate(2 2)"/></g><path class="b" d="M22.235,23.32c.55-1.506,2.568-7.231,2.89-8.731.367-1.7-.4-1.863-2.143-1.294s-6.212,2.225-6.965,2.493-4.415,1.5-5.175,1.865c-1.55.832-.8,2.1.936,2.761,5.184,2.488,3.712,1.22,6.026,5.823.476,1.176,1.6,3.179,2.674,1.664a33.68,33.68,0,0,0,1.757-4.583Z" transform="translate(-3.38 -4.725)"/></g></svg>