<?xml version="1.0" ?><!DOCTYPE svg  PUBLIC '-//W3C//DTD SVG 1.1//EN'  'http://www.w3.org/Graphics/SVG/1.1/DTD/svg11.dtd'><svg height="43.3492mm" style="shape-rendering:geometricPrecision; text-rendering:geometricPrecision; image-rendering:optimizeQuality; fill-rule:evenodd; clip-rule:evenodd" version="1.1" viewBox="0 0 306 306" width="43.3492mm" xml:space="preserve" xmlns="http://www.w3.org/2000/svg" xmlns:xlink="http://www.w3.org/1999/xlink"><defs><style type="text/css">
   <![CDATA[
    .fil2 {fill:#57A9C2}
    .fil1 {fill:white}
    .fil0 {fill:#6BCFED}
   ]]>
  </style></defs><g id="Layer_x0020_1"><g id="_445052416"><rect class="fil0" height="306" rx="33" ry="33" width="306"/><path class="fil1" d="M152 122c-31,-2 -61,-13 -86,-43 -11,18 -5,42 13,55 -6,0 -13,-2 -19,-5 1,21 12,34 33,41 -6,1 -12,2 -18,1 5,16 17,27 38,28 -16,14 -36,20 -61,18 74,46 180,4 181,-105 8,-6 15,-13 21,-22 -7,3 -15,6 -23,7 9,-6 14,-14 17,-23 -8,5 -16,8 -26,10 -35,-32 -79,2 -70,38z"/><path class="fil2" d="M306 131l-58 -57c-3,9 -8,17 -17,23 8,-1 16,-4 23,-7 -6,9 -13,16 -21,22 -1,109 -107,151 -181,105l90 89 131 0 33 -33 0 -142z"/></g></g></svg>