<svg xmlns="http://www.w3.org/2000/svg" width="37.768" height="37.771" viewBox="0 0 37.768 37.771"><defs><style>.a{fill:#fefefe;fill-rule:evenodd;}.b{fill:#fdc644;}</style></defs><g transform="translate(0 0.001)"><path class="a" d="M1018.443,773.482a14.657,14.657,0,0,0,2.078-7.656,14.973,14.973,0,1,0-29.946,0,14.95,14.95,0,0,0,14.85,15.052,13.806,13.806,0,0,0,8.063-2.371l9.891,10.036,4.964-5.035Zm-12.5,1.859a9.639,9.639,0,1,1,9.631-9.778,9.461,9.461,0,0,1-2.088,6.075,7.231,7.231,0,0,1-1.3,1.581,10.468,10.468,0,0,1-6.24,2.122Z" transform="translate(-990.575 -750.773)"/></g><path class="b" d="M22.913,27.735A13.807,13.807,0,0,1,14.85,30.1,14.949,14.949,0,0,1,0,15.054,15.117,15.117,0,0,1,14.85,0a15.161,15.161,0,0,1,15.1,15.054,14.656,14.656,0,0,1-2.078,7.656l9.9,10.028L32.8,37.77ZM5.73,14.789a9.686,9.686,0,0,0,9.639,9.78,10.479,10.479,0,0,0,6.24-2.122,7.313,7.313,0,0,0,1.3-1.583A9.458,9.458,0,0,0,25,14.789a9.636,9.636,0,0,0-19.271,0Z" transform="translate(0 0)"/></svg>