<svg xmlns="http://www.w3.org/2000/svg" width="801.452" height="410.845" viewBox="0 0 801.452 410.845"><defs><style>.a{fill:#fff6e2;}.b{fill:#a8d29f;}.c{fill:#f7de8c;}.d{fill:#fdc644;}.e{fill:#82b378;}.f{fill:#f1a34f;}.g{fill:#ffb973;}.h{fill:#d86713;}.i{fill:#ed975d;}.j{fill:#0a3228;}.k{fill:#233862;}.l{fill:#022019;}.m{fill:#ffb27d;}.n{fill:#2c3a64;}.o{fill:#1f735e;}.p{fill:#a9453d;}.q{fill:#ee9849;}.r{fill:#e58638;}.s{fill:#2b478b;}.t{fill:#2e3552;}</style></defs><path class="a" d="M277.7,726.845S191.6,543.5,361.284,543.5c89.654,0,52.721-50.3,113.674-108.519s274.12-104.727,319.49,7.69S727.691,640.444,836.039,625.8c130.2-17.595,181.634,101.043,181.634,101.043Z" transform="translate(-237.663 -316.124)"/><path class="b" d="M1486.736,1217.524c-8.034-5.871-24.451-1.907-36.568,2.332a55.326,55.326,0,0,0-6.66-7.727c26.1-16.815,62.153-52.673,43.045-55.708-16.61-2.639-39.026,29.638-51.006,49.287-12.441-8.369-31.5-14.521-60.607-12.388-75.533,5.538-134.54-43.184-178.036-26.935-34.584,12.921-66.276,20.159-96.843,17.686,1.316-22.329,1.6-66.17-15.933-70.718-17.8-4.617-.34,45.171,9.365,70.032q-3.416-.437-6.815-1.043c-6.284-12.391-16.639-28.6-28.01-29.16-10.708-.522,2.508,14.056,15.514,26.406-37.38-7.848-81.719,22.537-82.455,58.463h466.656a43.239,43.239,0,0,0-4.488-12.158C1471.931,1225.539,1495.463,1223.9,1486.736,1217.524Z" transform="translate(-749.42 -830.065)"/><g transform="translate(183.184 380.218)"><rect class="c" width="122.993" height="27.772" transform="translate(37.923 0.001)"/><rect class="d" width="122.992" height="27.774"/></g><g transform="translate(364.247 279.977)"><g transform="translate(0 0)"><g transform="translate(0 0)"><rect class="c" width="91.583" height="128.009" transform="translate(119.821 128.009) rotate(180)"/><rect class="d" width="91.582" height="128.009" transform="translate(91.582 128.009) rotate(180)"/></g></g></g><g transform="translate(12.775 237.056)"><path class="e" d="M605.9,1188.482s-17.127,12.736-20.466,11.963,12.517-13.748,12.517-13.748c-5.967-2.869-24.515-1.07-24.515-1.07s-6.178,19.923-9.225,18.353,6.371-17.362,6.371-17.362c-6.646-.4-14.8,4.534-14.8,4.534-11.158,8.812.733,22.686.733,22.686a33.914,33.914,0,0,1-9.337,13.1s-10.064,7.443-10.763,20.741l1.826.163s2.9-12.386,8.158-18.244c.2-.212.5-.517.869-.887.857-.793,1.458-1.39,1.861-1.833,2.619-2.516,6.238-5.722,7.982-6.032a3.362,3.362,0,0,1-.074-.877c.024.281.048.57.074.877.6,7.012,14.2,13.135,22.569,14.395s5.782-2.181,2.9-7.282-12.009-7.383-14.091-9.732,2.222-2.354,7.265-.052,5.732,8.443,13.821,12.317,20.259-9.549,20.259-9.549c-6.446-.327-15.652-7.328-15.319-9.47s15.627,3.7,18.241,3.976,8.563-2.972,9.483-13.5S605.9,1188.482,605.9,1188.482Z" transform="translate(-445.554 -1117.206)"/><g transform="translate(0 30.197)"><path class="b" d="M307.452,1110.377s18.917-10.594,10.089-24.97c0,0-7.062-8.828-14.629-11.1,0,0,4.035,21.439,0,21.943s-2.775-24.214-2.775-24.214-19.926-9.584-27.745-8.828c0,0,12.359,20.935,8.323,20.43s-17.908-21.691-17.908-21.691-20.43-3.783-23.709,8.324,2.018,18.16,5.044,18.917,22.448.5,21.944,3.026-13.62,6.558-20.935,4.288c0,0,8.071,19.926,18.665,18.917s13.872-7.567,20.43-8.071,11.35,1.261,8.071,3.027-14.377.579-19.673,5.081-9.584,7.277.252,9.3,27.493.757,31.024-6.81Z" transform="translate(-238.065 -1061.39)"/><path class="e" d="M336.169,1157.713a40.237,40.237,0,0,1-5.045-18.412c-6.053-19.169-59.02-36.32-59.02-36.32,67.344,27.24,55.489,43.887,55.489,43.887,1.815,1.059,4.536,6.107,6.425,9.98.269.659.695,1.571,1.328,2.809h0c.256.56.461,1.018.6,1.338,3.467,8.676,1.631,23.657,1.631,23.657l2.1.565C344.337,1170.117,336.169,1157.713,336.169,1157.713Z" transform="translate(-261.737 -1090.314)"/></g><g transform="translate(83.089)"><path class="b" d="M527.28,1026.814s-24.936-13.964-13.3-32.915c0,0,9.309-11.637,19.284-14.629,0,0-5.32,28.261,0,28.926s3.657-31.918,3.657-31.918,26.266-12.634,36.573-11.637c0,0-16.292,27.6-10.972,26.931s23.606-28.593,23.606-28.593,26.931-4.987,31.253,10.972-2.66,23.938-6.649,24.936-29.591.665-28.926,3.99,17.953,8.644,27.6,5.652c0,0-10.639,26.266-24.6,24.936s-18.286-9.974-26.931-10.64-14.962,1.662-10.639,3.99,18.951.763,25.933,6.7,12.634,9.593-.333,12.252-36.24,1-40.894-8.977Z" transform="translate(-510.887 -962.241)"/><path class="e" d="M612.44,1017.064s-69.821,22.608-77.8,47.877c0,0,.333,11.3-6.65,24.271,0,0-10.768,16.351-4.629,36.255l2.77-.745s-2.421-19.749,2.149-31.185c.186-.421.457-1.025.795-1.763h0c.835-1.632,1.4-2.835,1.75-3.7,2.49-5.105,6.077-11.76,8.469-13.155C539.295,1074.915,523.668,1052.972,612.44,1017.064Z" transform="translate(-518.247 -1000.367)"/></g><path class="f" d="M450.417,1403.184a48.845,48.845,0,0,0,48.845-48.845H401.572A48.845,48.845,0,0,0,450.417,1403.184Z" transform="translate(-351.775 -1234.923)"/><path class="g" d="M476.03,1402.81a48.88,48.88,0,0,1-54.912-48.472h12.135A48.854,48.854,0,0,0,476.03,1402.81Z" transform="translate(-365.368 -1234.922)"/><path class="f" d="M492.37,1503.694H405.383a6.027,6.027,0,0,0-6.027,6.026H498.4A6.026,6.026,0,0,0,492.37,1503.694Z" transform="translate(-350.234 -1338.791)"/><path class="h" d="M495.957,1354.338h-98.91a.749.749,0,0,0,0,1.5h98.91a.749.749,0,0,0,0-1.5Z" transform="translate(-348.107 -1234.922)"/></g><g transform="translate(366.462 49.11)"><path class="i" d="M1772.549,493.589c-1.416-.215-5.682,3.729-5.682,3.729h0c-9.11,1.053-22.43,3.472-27.223,4.394-3.4.655-12.54-2.462-21.469-6.04-10.619-4.257-20.939-9.168-20.939-9.168-5.893-.3-12.584,10.45-.635,17.285,1.824,1.044,8.679,2.824,16.571,4.451h0c10.888,2.243,23.75,4.191,28.129,3.507,5.086-.8,19.482-6.062,28.045-10.1h0l.022-.011.1-.045a10.48,10.48,0,0,1,4.009-1.091c1.6.1,5.177-2.841,5.286-3.625S1773.965,493.8,1772.549,493.589Z" transform="translate(-1601.468 -443.442)"/><path class="j" d="M1719.268,743.772l-5.015,1.019s-22.954-25.79-26.5-36.643c-1.9-5.8-14.014-8.306-26.678-11.58-11.022-2.85-22.459-6.284-27.921-12.983-11.739-14.394,7.373-32.082,7.373-32.082s20.321,12.077,37.852,24.554c12.254,8.72,23.144,17.634,24.785,22.757C1707.152,711.273,1715.6,734.955,1719.268,743.772Z" transform="translate(-1559.31 -558.194)"/><path class="k" d="M1897.325,959.046h2.821c.945-.148,1.643-.422,2.612-.548a2.616,2.616,0,0,1,2.284.548.327.327,0,0,1,.027.029h11.985c.3-.43.012-1.428-.271-2.162a1.706,1.706,0,0,0-1.122-1.026,12.928,12.928,0,0,1-6.072-2.773c-1.291-1.167-6.234-4.289-6.234-4.289l-.026-.006c-.108,0-.625.161-2.873,2.059-1.163.979-3.144-1.384-3.144-1.384a2.823,2.823,0,0,0-.649.881,2.976,2.976,0,0,0-.258,1.84,11.925,11.925,0,0,1-.859,4.444c-.279.823-.515,1.406-.515,1.406S1894.9,958.742,1897.325,959.046Z" transform="translate(-1744.08 -764.96)"/><path class="l" d="M1678.382,676.057l-17.3,20.511c-11.022-2.85-22.459-6.284-27.921-12.983-11.739-14.394,7.373-32.082,7.373-32.082S1660.852,663.58,1678.382,676.057Z" transform="translate(-1559.31 -558.194)"/><path class="j" d="M1611.423,679.157s-1.4,4.4-3.666,11.017c-2.871,8.368-7.149,20.283-11.789,31.333-1.019,2.428-2.057,4.815-3.1,7.113-3.858,8.5-7.808,15.792-11.285,19.5-6.248,6.659-21.438,49.47-21.438,49.47l-3.785-1.048s-5.277-36.556,13.417-57.358a1.32,1.32,0,0,0,.378-.776.009.009,0,0,0,0-.008c.249-3.079,1.138-16.868,3.074-30.841.476-3.428,1.014-6.865,1.62-10.158.038-.211.078-.419.116-.627,2.844-15.227,5.567-22,9.082-25.407l25.844,7.357Z" transform="translate(-1508.075 -572.007)"/><path class="k" d="M1551.3,1079.721h2.822c.945-.149,1.643-.422,2.612-.549a2.617,2.617,0,0,1,2.285.549c.018.018.026.028.026.028h11.985c.3-.431.012-1.428-.271-2.162a1.705,1.705,0,0,0-1.122-1.026,12.924,12.924,0,0,1-6.071-2.773c-1.291-1.167-6.234-4.29-6.234-4.29l-.026-.006c-.109,0-.625.161-2.874,2.059-1.162.979-3.143-1.384-3.143-1.384a2.827,2.827,0,0,0-.65.881,2.98,2.98,0,0,0-.257,1.84,11.931,11.931,0,0,1-.859,4.444c-.28.823-.515,1.406-.515,1.406S1548.876,1079.417,1551.3,1079.721Z" transform="translate(-1503.442 -848.883)"/><path class="m" d="M1452.794,529.861s-4.324,10.579-9.31,20.876c-4.194,8.657-8.853,17.115-11.808,18.92-4.166,2.545-15.643,9.724-23.087,15.079,0,0-5.81-.044-6.713,1.068s-2.986,6.11-2.377,6.615,5.227.271,6.349-.879a10.469,10.469,0,0,1,3.7-1.892l.1-.031.023-.006h0c9.047-2.783,23.237-8.581,27.533-11.417,3.7-2.442,11.9-12.541,18.438-21.53h0c4.741-6.516,8.61-12.448,9.257-14.447C1469.134,529.116,1456.948,525.672,1452.794,529.861Z" transform="translate(-1399.389 -472.427)"/><path class="n" d="M1592.593,361.074a21.809,21.809,0,0,0-1.549-2,4.855,4.855,0,0,0,1.909-.287c1.518-.627,2.21-5.446,1.982-6.876s-2.336-5.562-4.936-5.974-5.287,2.475-5.287,2.475c.48-2.084,4.88-3.286,4.88-3.286-9.062,1.671-8.6,7.714-8.537,8.272-8.295-2.955-13.164,12.665-13.164,12.665l21.485,12.662s.056-3.45,2.107-3.228C1594.679,375.842,1597.34,367.992,1592.593,361.074Z" transform="translate(-1516.572 -345.124)"/><path class="m" d="M1617.713,465.87c-4.93,2.324-11.472-1.023-11.437-1.058.423-.423.275-1.688-.113-3.343a24.356,24.356,0,0,0-2.993-6.9c-.352-.6-.7-1.2-1.127-1.832l.564-.211,9.578-3.839s1.55,2.782,3.169,5.317c1.373,2.113,2.817,4.014,3.451,3.944C1618.84,457.911,1625.178,462.278,1617.713,465.87Z" transform="translate(-1540.323 -417.145)"/><path class="i" d="M1614.759,451.807c-.247,3.415-1.409,9.578-6.022,11.832a24.359,24.359,0,0,0-2.993-6.9Z" transform="translate(-1542.897 -419.316)"/><path class="m" d="M1579.638,425.748s12.47-4.915,9.29-12.634-3.713-13.551-11.809-10.739-8.42,6.39-7.985,9.225S1576.312,426.828,1579.638,425.748Z" transform="translate(-1517.352 -384.44)"/><path class="n" d="M1580.781,409.517c5.757-.813,7.438-3.14,7.438-3.14a15.949,15.949,0,0,1-8.419-6.715s-6.471-2.182-11.267,1.466a3.23,3.23,0,0,0-.606,1.353c-1.1-.36-2.752-.267-3.706,2.84-1.433,4.667,3.664,9.763,3.664,9.763,1.236-.349-.158-4.508-.353-6.728a10.5,10.5,0,0,1,1.213-4.716c.61.792,6.685,8.425,14.1,8.73a31.286,31.286,0,0,1-7.483-4.018A9.571,9.571,0,0,0,1580.781,409.517Z" transform="translate(-1513.844 -382.602)"/><path class="o" d="M1607.815,499.979c-.105-.372-.219-.759-.338-1.155a29.261,29.261,0,0,0,3.147-9.43,18.929,18.929,0,0,0-.6-9.227s-8.65-4.587-12.469-5.17a.213.213,0,0,0-.048-.014c-.045-.006-.1-.011-.153-.014-3.855-.532-12.2,1.172-12.2,1.172s1.61,4.286-2.933,7.144-9.393-.732-9.393-.732c-.146.1-.3.207-.462.32h0s-11.952,7.886-13.025,9.688-5.669,10.725-5.669,10.725,1.457,7.49,17.6,8.117a37.31,37.31,0,0,1,2.674,8.978c1.282,10.168-.206,18.189,1.288,24.124s28.434,2.551,33.312,1.409,3.781-6.352,4.156-11.412C1613.177,528.142,1609.4,505.589,1607.815,499.979Z" transform="translate(-1506.684 -435.352)"/><path class="l" d="M1722.181,517.26a29.262,29.262,0,0,1-3.169,9.472c-.423-1.866-2.148-8.7-4.93-11.8A23.869,23.869,0,0,1,1722.181,517.26Z" transform="translate(-1618.24 -463.218)"/></g><g transform="translate(218.029 111.823)"><path class="i" d="M1380.4,721.833s5.019-6.082,6.1-6.8,5.821-1.979,6.092-1.726.283.621-.3,1.14-2.829,1.827-2.509,1.974,7.083-3.22,8.058-2.087-.552,5.807-3.158,8.048-10.386,3.2-10.875,3.51C1379.657,728.546,1380.4,721.833,1380.4,721.833Z" transform="translate(-1237.716 -663.864)"/><path class="m" d="M1090.393,658.51s7.21,8.554,16.392,4.976c0,0,1.975-4.778,2-8.3,0-.433.009-.853.015-1.253.049-3.966.183-6.191.183-6.191l-.01,0c-.418-.174-14.036-5.765-14.025-5.3C1095.185,653.165,1090.393,658.51,1090.393,658.51Z" transform="translate(-1036.066 -614.584)"/><path class="i" d="M1109.831,650.671c1.313,2.434,5.819,7.2,12.484,8.936.049-3.966.183-6.191.183-6.191l-.01,0C1122.111,653.313,1109.44,649.953,1109.831,650.671Z" transform="translate(-1049.578 -620.257)"/><path class="m" d="M1115.749,600.922s-15.315,3.6-17.411-5.971-5.484-15.554,4.206-18.257,12.4.532,13.872,3.557S1119.679,599.739,1115.749,600.922Z" transform="translate(-1039.977 -568.176)"/><path class="p" d="M1081.039,580.422c-.209.134-3.5,1.146-9.746-11.286a10.83,10.83,0,0,1,.637-9.9c2.284-3.731,10.381-6.664,17.109-7.94s8.343,2.509,9.927,6.314c1.663,3.994,6.466,7.282,6.466,7.282-5.8,3.241-12.789-1.394-15.21-.632s-3.276,4.577-3.458,5.8-.461,2.239-3.5,1.146-1.376,4.314-.889,5.348C1082.371,576.55,1082.785,579.3,1081.039,580.422Z" transform="translate(-1022.154 -551.039)"/><g transform="translate(0 117.582)"><path class="n" d="M931.445,1379.306h-9.274c-1.944,0-4.1-1.972-4.645-5.584s-4.537-5.583-5.4-8.54,3.566-7.119,3.566-7.119l.74-.964.771-1.005,7.346,1.75s.181,1.773.295,4.031c.079,1.63.121,3.515.03,5.167-.216,3.942,1.09,8.187,4.545,8.954S931.445,1379.306,931.445,1379.306Z" transform="translate(-912.012 -1228.492)"/><path class="n" d="M1127.814,1401.139h-24.582a2.179,2.179,0,0,1-.522-.156c-1.641-.846-1.127-7.316-.93-9.314.038-.37.065-.587.065-.587s8.644-7.118,9.834-1.668c.038.17.081.337.127.5v0c1.5,5.1,8.209,7.416,12.083,8.061C1126.849,1398.475,1127.617,1400.251,1127.814,1401.139Z" transform="translate(-1043.823 -1250.235)"/><path class="q" d="M1087.771,960.671s-1.312,16.378-2.855,36.066c-2.1,26.745-4.619,59.6-4.868,65.819-.431,10.807-2.162,28.093-2.162,28.093s-4.1,4.107-12.317,2.376c0,0-7.319-24.677-9.41-50.785-.033-.428-.065-.859-.1-1.29-1.944-26.579-4.969-82.547-4.969-82.547Z" transform="translate(-1008.735 -951.919)"/><path class="r" d="M1087.771,960.671s-1.312,16.378-2.855,36.066l-28.757,45.5c-.033-.428-.065-.859-.1-1.29-1.944-26.579-4.969-82.547-4.969-82.547Z" transform="translate(-1008.735 -951.919)"/><path class="q" d="M993.45,947.813s-23.662,59.317-39.22,87.192-20.42,35.655-20.42,35.655-8.914-3.565-9.725-6c0,0,5.95-53.815,16.369-66.934,5.887-7.413,12.8-29.658,13.127-37.438s2.107-23.175,2.107-23.175Z" transform="translate(-920.408 -937.117)"/></g><g transform="translate(7.272 44.873)"><path class="j" d="M947.484,933.12s-.613,7.408-1.062,8.545-3.44,4.664-3.787,4.613-.553-.328-.378-1.046,1.207-2.936.88-2.878-3.751,6.3-5.114,5.952-2.7-4.792-1.886-7.929,6.319-8.062,6.529-8.568C944.45,927.523,947.484,933.12,947.484,933.12Z" transform="translate(-935.89 -859.593)"/><path class="j" d="M958.182,773.785c2.619.841,3.039.651,3.039.651s12.747-23.208,14.038-25.332,27.065-26.025,27.065-26.025l-6.624-24.7s-29.314,37.96-32.48,43.408c-5.231,9-8.3,29.906-8.3,29.906A7.663,7.663,0,0,0,958.182,773.785Z" transform="translate(-949.127 -698.379)"/></g><path class="j" d="M1072.247,720.164c-.092,5.073-.386,10.774-.784,16.566q-.037.515-.073,1.03c-.254,3.588-.53,7.184-.846,10.69-.127,1.406-.262,2.8-.4,4.161l-.022.184c-.011.511-.073,1.065-.13,1.571-1.292,13.134-2.647,23.511-2.9,23.671a1.474,1.474,0,0,1-1.008.257c-3.444-.433-13.721.349-22.135-1.482-7.1-1.5-13.213-4.337-19.691-8.165-.86-.508-2.82-1.854-2.661-2.86.157-1.106.446-2.7.814-4.712a255.089,255.089,0,0,0,4.231-33.069q.219-3.931.635-7.752a117.675,117.675,0,0,1,3.431-18.512c2.885-10.387,7.124-18.342,12.442-21.453.7-.39,4.434,1.99,7.868,4.193a15.159,15.159,0,0,0,9.757,2.312l2.858,3.161c3.461,4.023,7.146,9.379,8.151,16.993q.114.844.195,1.8A111.635,111.635,0,0,1,1072.247,720.164Z" transform="translate(-988.215 -640.895)"/><path class="l" d="M1134.123,771.915c-.092,5.073-.386,10.774-.784,16.566q-.037.515-.073,1.03c-19.675-12.315-22.706-34.851-22.706-34.851,9.679.425,17.369,2.65,23.3,5.832A111.634,111.634,0,0,1,1134.123,771.915Z" transform="translate(-1050.091 -692.646)"/><g transform="translate(58.716 49.936)"><path class="j" d="M1191.763,723.643c-1.014-2.744-2.592-2.565-2.592-2.565s-29.253,7.29-31.878,7.6-31.5-11.275-31.5-11.275-11.366-5.1-16.69-.443c-4.626,4.048-4.837,9.175-3.754,13.48a12.872,12.872,0,0,0,10.88,9.59c11.781,1.5,35.285,4.325,40.212,3.639,10.965-1.527,35.808-15.868,35.808-15.868A9.208,9.208,0,0,0,1191.763,723.643Z" transform="translate(-1104.806 -715.002)"/></g></g><g transform="translate(507.47)"><g transform="translate(70.946 104.86)"><path class="n" d="M2303.837,915.357s4.064,3.767,3.271,6.443-4.461,4.461-4.956,7.732-2.478,5.055-4.262,5.055h-8.507s-1.313-2.3,1.859-3,4.368-4.538,4.17-8.106a63.873,63.873,0,0,1,.3-8.327l6.74-1.586Z" transform="translate(-2230.096 -796.198)"/><path class="n" d="M2118.421,953.393a15.672,15.672,0,0,1-3.85.445h-19.237c.065-.572.512-2.612,3.658-3.119,3.554-.578,9.71-2.643,11.082-7.189.046-.145.085-.3.119-.445,1.09-4.857,9.019,1.486,9.019,1.486s.023.194.057.525C2119.457,946.882,2119.925,952.643,2118.421,953.393Z" transform="translate(-2095.335 -815.449)"/><path class="j" d="M2110.44,549.786s1.2,15.027,2.62,33.09c1.924,24.537,4.238,54.677,4.467,60.386.4,9.915,1.983,25.774,1.983,25.774s3.765,3.768,11.3,2.18a259.453,259.453,0,0,0,8.633-46.593c.03-.393.059-.788.089-1.183,1.784-24.385,4.559-75.734,4.559-75.734Z" transform="translate(-2105.84 -541.757)"/><path class="l" d="M2110.44,549.786s1.2,15.027,2.62,33.09l26.384,41.746c.03-.393.059-.788.089-1.183,1.784-24.385,4.559-75.734,4.559-75.734Z" transform="translate(-2105.84 -541.757)"/><path class="j" d="M2128.5,537.99s21.708,54.421,35.983,79.995,18.735,32.712,18.735,32.712,8.178-3.271,8.922-5.5c0,0-5.459-49.373-15.018-61.409-5.4-6.8-11.746-27.21-12.044-34.348s-1.933-21.263-1.933-21.263Z" transform="translate(-2118.399 -528.176)"/></g><g transform="translate(0 41.76)"><path class="m" d="M1876.472,460.559a65.26,65.26,0,0,0-6.879-1.279,14.188,14.188,0,0,0-4.5,1.8c-.046.281.118.51.717.55s2.571-.213,2.446.026-5.8,1.355-5.867,2.5,3.049,3.267,5.677,3.409,7.8-2.912,8.241-2.951C1880.062,464.284,1876.472,460.559,1876.472,460.559Z" transform="translate(-1862.384 -417.162)"/><path class="r" d="M1898.843,365.884c-.844-2.69-.646-3.118-.646-3.118s23.869-12.906,26.055-14.215,26.852-27.559,26.852-27.559l25.266,6.954s-39.1,29.784-44.7,32.991c-9.26,5.3-30.7,8.3-30.7,8.3A7.852,7.852,0,0,1,1898.843,365.884Z" transform="translate(-1887.275 -320.991)"/></g><path class="m" d="M2050.2,252.263s-8.857,15.585-17.515,17.619c0,0,.361-5.234,2.469-8.816-.863-1.018-1.621-1.953-2.278-2.791a52.3,52.3,0,0,1-3.216-4.5l2.939-7.9,1.994-5.359A25.751,25.751,0,0,0,2037.7,245,21.191,21.191,0,0,0,2050.2,252.263Z" transform="translate(-1978.712 -223.263)"/><path class="i" d="M2037.7,255.248s1.057,7.81-4.832,13.272a52.3,52.3,0,0,1-3.216-4.5l2.939-7.9A16.786,16.786,0,0,1,2037.7,255.248Z" transform="translate(-1978.712 -233.508)"/><path class="m" d="M1996.419,229.542s13.235-5.159,9.895-13.351-3.881-14.375-12.472-11.428-8.948,6.739-8.5,9.744S1992.89,230.673,1996.419,229.542Z" transform="translate(-1947.809 -197.881)"/><path class="q" d="M2100.591,354.1c-5.34,7.675-45.254,17.931-44.781,12.618a57.735,57.735,0,0,0-.006-10.479q-.15-1.708-.424-3.621a83.5,83.5,0,0,0-8.8-26.347c-.4-.779-.822-1.563-1.257-2.358a81.188,81.188,0,0,1-5.535-12.434c-2.766-7.992-3.88-15.638-2.485-20.637.006-.025.014-.046.022-.07,8.343-3.858,11.577-18.821,11.577-18.821s28.466,5.11,44.411,43.054C2093.318,315,2105.236,347.416,2100.591,354.1Z" transform="translate(-1983.616 -245.124)"/><path class="r" d="M2078.36,429.643q-.15-1.708-.424-3.621a83.494,83.494,0,0,0-8.8-26.347c.922-5.592,2.2-10.242,3.593-12.334,5.678-8.509,8.984-9.839,8.984-9.839S2090.233,413.407,2078.36,429.643Z" transform="translate(-2006.172 -318.531)"/><g transform="translate(10.901 34.284)"><path class="m" d="M1914.593,520.655s-7.874.414-9.095.853-5.055,3.5-5.013,3.868.331.6,1.1.434,3.152-1.186,3.081-.842-6.8,3.776-6.474,5.233,5,3.013,8.348,2.253,8.75-6.443,9.293-6.65C1920.431,524.051,1914.593,520.655,1914.593,520.655Z" transform="translate(-1898.177 -452.37)"/><path class="q" d="M1945.291,367.714c-1.578-2.549-.44-3.711-.44-3.711s24.326-19.046,26.233-20.97,10.739-32.562,10.739-32.562,3.04-12.4,10.159-13.767c6.186-1.188,10.462,1.872,13.26,5.46a13.192,13.192,0,0,1,.894,14.836c-6.211,10.466-18.74,31.24-22.4,34.79-8.143,7.9-35.388,18.938-35.388,18.938A9.436,9.436,0,0,1,1945.291,367.714Z" transform="translate(-1930.36 -296.443)"/></g><path class="s" d="M1996.949,186.964c.093-.183.362-.379,1.019-.58a2.751,2.751,0,0,0-1.332-.049c-.371-.907-1.275-2.451-2.969-2.463A2.088,2.088,0,0,1,1995,185.1c-2.322-1.471-6.624-1.9-17.366,1.679-14.157,4.715-7.084,12.934-4.938,13.593s6.1-3.57,9.648-4.147,5.475,4.372,6.829,4.782.584-.716,2-1.843,2.233,1.526,2.2,3.389,2.735,3.63,2.735,3.63l1.622-2.975c1.622-2.975,1.181-13.776-.369-15.72C1997.225,187.313,1997.089,187.139,1996.949,186.964Z" transform="translate(-1936.545 -183.872)"/></g><path class="t" d="M1.43,0H800.022a1.43,1.43,0,0,1,1.43,1.43v0a1.43,1.43,0,0,1-1.43,1.43H1.43A1.43,1.43,0,0,1,0,1.43v0A1.43,1.43,0,0,1,1.43,0Z" transform="translate(0 407.985)"/><rect class="c" width="125.421" height="164.736" transform="translate(543.238 243.248)"/><rect class="d" width="125.424" height="164.736" transform="translate(504.564 243.249)"/></svg>