<svg xmlns="http://www.w3.org/2000/svg" xmlns:xlink="http://www.w3.org/1999/xlink" width="677.229" height="615.315" viewBox="0 0 677.229 615.315"><defs><style>.a{fill:#fdc644;}.b{fill:#fff;}.c{fill:#0a3228;}.d{fill:#95cabd;}.e{fill:#b9e8dc;}.f{fill:#d39911;}.g{clip-path:url(#a);}.h{fill:#e6fff9;}.i{clip-path:url(#b);}.j{clip-path:url(#c);}.k{clip-path:url(#d);}.l{clip-path:url(#e);}.m{fill:#f6f6f6;}.n{fill:#f0f0f0;}.o{fill:#1a1a1a;}.p{fill:#fcc5b6;}.q{fill:#fcb19c;}.r{opacity:0.2;}.s{fill:#707070;}</style><clipPath id="a"><path class="a" d="M2541.214,1341.341H2273.025a23.4,23.4,0,0,1-23.37-23.37V758.45a23.4,23.4,0,0,1,23.37-23.37h268.189a23.4,23.4,0,0,1,23.369,23.37v559.521A23.4,23.4,0,0,1,2541.214,1341.341Zm-268.189-599a16.128,16.128,0,0,0-16.11,16.11v559.521a16.128,16.128,0,0,0,16.11,16.11h268.189a16.128,16.128,0,0,0,16.109-16.11V758.45a16.128,16.128,0,0,0-16.109-16.11Z" transform="translate(-2249.655 -735.08)"/></clipPath><clipPath id="b"><circle class="b" cx="95.593" cy="95.593" r="95.593"/></clipPath><clipPath id="c"><ellipse class="c" cx="92.95" cy="98.676" rx="92.95" ry="98.676"/></clipPath><clipPath id="d"><circle class="c" cx="28.413" cy="28.413" r="28.413" transform="translate(0 40.183) rotate(-45)"/></clipPath><clipPath id="e"><rect class="a" width="122.511" height="41.744" rx="20.872"/></clipPath></defs><g transform="translate(0)"><g transform="translate(-165.979 -340.14)"><g transform="translate(165.979 769.323)"><g transform="translate(0)"><path class="d" d="M1559.315,2846.9s-7.026,6.4-20.586,21.98q-5.071-6.394-9.773-13.363l-38.735-57.45,54.461-3.715c67.6-4.612,125.317,25.268,163.261,84.516l38.326,59.845-77.306-2.787c-48.69-1.755-91.259-22.281-123.768-59.3Z" transform="translate(-1490.221 -2793.886)"/></g><g transform="translate(13.713 10.495)"><path class="d" d="M1772.363,2961.952a.435.435,0,0,1-.208-.053L1556.264,2845.08a.438.438,0,1,1,.417-.77l215.891,116.819a.438.438,0,0,1-.209.823Z" transform="translate(-1556.035 -2844.257)"/></g></g><g transform="translate(218.719 629.554)"><g transform="translate(0)"><path class="e" d="M1859.37,2296.04s-5.4,7.82-19.025,23.344q7.016,4.169,14.551,7.9l62.12,30.693L1913.4,2303.5c-4.482-67.607-41.822-120.8-105.618-150.472l-64.439-29.967,13.114,76.236c8.26,48.017,34.3,87.454,75.342,114.712Z" transform="translate(-1743.348 -2123.065)"/></g><g transform="translate(19.965 23.049)"><path class="e" d="M1984.285,2432.866a.436.436,0,0,1-.354-.18l-144.678-198.3a.438.438,0,0,1,.708-.516l144.678,198.3a.438.438,0,0,1-.353.7Z" transform="translate(-1839.169 -2233.687)"/></g></g><g transform="translate(635.609 457.815)"><path class="f" d="M3747.955,1344.4h0a3.743,3.743,0,0,1-3.743-3.743v-38.112a3.743,3.743,0,0,1,3.743-3.743h0a3.743,3.743,0,0,1,3.743,3.743v38.112A3.743,3.743,0,0,1,3747.955,1344.4Z" transform="translate(-3744.212 -1298.801)"/></g><g transform="translate(635.609 516.499)"><path class="f" d="M3747.955,1651.568h0a3.743,3.743,0,0,1-3.743-3.743V1584.2a3.743,3.743,0,0,1,3.743-3.743h0a3.743,3.743,0,0,1,3.743,3.743v63.626A3.743,3.743,0,0,1,3747.955,1651.568Z" transform="translate(-3744.212 -1580.456)"/></g><g transform="translate(323.991 340.14)"><g transform="translate(3.85 3.85)"><rect class="b" width="307.669" height="599.001" rx="31"/></g><g transform="translate(0.22 0.22)"><g class="g"><path class="a" d="M2284.5,3608.169l10.566.379H2284.5Z" transform="translate(-2277.239 -3009.547)"/><path class="a" d="M2284.5,3565.637l257.295,9.241H2295.066l-10.566-.38Z" transform="translate(-2277.239 -2975.877)"/><path class="a" d="M2284.5,3523.105l300.409,10.79v7.313h-43.114l-257.295-9.241Z" transform="translate(-2277.239 -2942.207)"/><path class="a" d="M2284.5,3480.573l300.409,10.79v8.861l-300.409-10.79Z" transform="translate(-2277.239 -2908.537)"/><path class="a" d="M2284.5,3438.042l300.409,10.79v8.862L2284.5,3446.9Z" transform="translate(-2277.239 -2874.867)"/><path class="a" d="M2284.5,3395.51l300.409,10.79v8.862l-300.409-10.79Z" transform="translate(-2277.239 -2841.197)"/><path class="a" d="M2284.5,3352.978l300.409,10.79v8.862l-300.409-10.79Z" transform="translate(-2277.239 -2807.526)"/><path class="a" d="M2284.5,3310.446l300.409,10.79v8.862l-300.409-10.79Z" transform="translate(-2277.239 -2773.856)"/><path class="a" d="M2284.5,3267.914l300.409,10.79v8.862l-300.409-10.79Z" transform="translate(-2277.239 -2740.186)"/><path class="a" d="M2284.5,3225.382l300.409,10.79v8.862l-300.409-10.79Z" transform="translate(-2277.239 -2706.516)"/><path class="a" d="M2284.5,3182.85l300.409,10.79v8.862l-300.409-10.79Z" transform="translate(-2277.239 -2672.846)"/><path class="a" d="M2284.5,3140.318l300.409,10.79v8.862L2284.5,3149.18Z" transform="translate(-2277.239 -2639.175)"/><path class="a" d="M2284.5,3097.787l300.409,10.79v8.862l-300.409-10.79Z" transform="translate(-2277.239 -2605.506)"/><path class="a" d="M2284.5,3055.255l300.409,10.79v8.862l-300.409-10.79Z" transform="translate(-2277.239 -2571.835)"/><path class="a" d="M2284.5,3012.723l300.409,10.79v8.862l-300.409-10.79Z" transform="translate(-2277.239 -2538.165)"/><path class="a" d="M2284.5,2970.191l300.409,10.79v8.862l-300.409-10.79Z" transform="translate(-2277.239 -2504.495)"/><path class="a" d="M2284.5,2927.659l300.409,10.79v8.862l-300.409-10.79Z" transform="translate(-2277.239 -2470.825)"/><path class="a" d="M2284.5,2885.127l300.409,10.79v8.862l-300.409-10.79Z" transform="translate(-2277.239 -2437.155)"/><path class="a" d="M2284.5,2842.6l300.409,10.79v8.862l-300.409-10.79Z" transform="translate(-2277.239 -2403.485)"/><path class="a" d="M2284.5,2800.063l300.409,10.79v8.862l-300.409-10.79Z" transform="translate(-2277.239 -2369.814)"/><path class="a" d="M2284.5,2757.532l300.409,10.79v8.862l-300.409-10.79Z" transform="translate(-2277.239 -2336.144)"/><path class="a" d="M2284.5,2715l300.409,10.79v8.862l-300.409-10.79Z" transform="translate(-2277.239 -2302.474)"/><path class="a" d="M2284.5,2672.468l300.409,10.79v8.862L2284.5,2681.33Z" transform="translate(-2277.239 -2268.804)"/><path class="a" d="M2284.5,2629.936l300.409,10.79v8.862L2284.5,2638.8Z" transform="translate(-2277.239 -2235.134)"/><path class="a" d="M2284.5,2587.4l300.409,10.79v8.862l-300.409-10.79Z" transform="translate(-2277.239 -2201.464)"/><path class="a" d="M2284.5,2544.873l300.409,10.79v8.862l-300.409-10.79Z" transform="translate(-2277.239 -2167.794)"/><path class="a" d="M2284.5,2502.341l300.409,10.79v8.862L2284.5,2511.2Z" transform="translate(-2277.239 -2134.124)"/><path class="a" d="M2284.5,2459.809l300.409,10.79v8.862L2284.5,2468.67Z" transform="translate(-2277.239 -2100.453)"/><path class="a" d="M2284.5,2417.277l300.409,10.79v8.862l-300.409-10.79Z" transform="translate(-2277.239 -2066.783)"/><path class="a" d="M2284.5,2374.745l300.409,10.79v8.862l-300.409-10.79Z" transform="translate(-2277.239 -2033.113)"/><path class="a" d="M2284.5,2332.213,2584.908,2343v8.862l-300.409-10.79Z" transform="translate(-2277.239 -1999.443)"/><path class="a" d="M2284.5,2289.681l300.409,10.79v8.861l-300.409-10.79Z" transform="translate(-2277.239 -1965.773)"/><path class="a" d="M2284.5,2247.149l300.409,10.79v8.862l-300.409-10.79Z" transform="translate(-2277.239 -1932.103)"/><path class="a" d="M2284.5,2204.618l300.409,10.79v8.862l-300.409-10.79Z" transform="translate(-2277.239 -1898.432)"/><path class="a" d="M2284.5,2162.086l300.409,10.79v8.862l-300.409-10.79Z" transform="translate(-2277.239 -1864.762)"/><path class="a" d="M2284.5,2119.554l300.409,10.79v8.862l-300.409-10.79Z" transform="translate(-2277.239 -1831.092)"/><path class="a" d="M2284.5,2077.022l300.409,10.79v8.862l-300.409-10.79Z" transform="translate(-2277.239 -1797.422)"/><path class="a" d="M2284.5,2034.49l300.409,10.79v8.862l-300.409-10.79Z" transform="translate(-2277.239 -1763.752)"/><path class="a" d="M2284.5,1991.958l300.409,10.79v8.862L2284.5,2000.82Z" transform="translate(-2277.239 -1730.082)"/><path class="a" d="M2284.5,1949.427l300.409,10.79v8.862l-300.409-10.79Z" transform="translate(-2277.239 -1696.412)"/><path class="a" d="M2284.5,1906.895l300.409,10.79v8.862l-300.409-10.79Z" transform="translate(-2277.239 -1662.741)"/><path class="a" d="M2284.5,1864.363l300.409,10.79v8.862l-300.409-10.79Z" transform="translate(-2277.239 -1629.071)"/><path class="a" d="M2284.5,1821.831l300.409,10.79v8.862l-300.409-10.79Z" transform="translate(-2277.239 -1595.401)"/><path class="a" d="M2284.5,1779.3l300.409,10.79v8.862l-300.409-10.79Z" transform="translate(-2277.239 -1561.731)"/><path class="a" d="M2284.5,1736.767l300.409,10.79v8.862l-300.409-10.79Z" transform="translate(-2277.239 -1528.061)"/><path class="a" d="M2284.5,1694.235l300.409,10.79v8.862L2284.5,1703.1Z" transform="translate(-2277.239 -1494.391)"/><path class="a" d="M2284.5,1651.7l300.409,10.79v8.862l-300.409-10.79Z" transform="translate(-2277.239 -1460.721)"/><path class="a" d="M2284.5,1609.172l300.409,10.79v8.862l-300.409-10.79Z" transform="translate(-2277.239 -1427.051)"/><path class="a" d="M2284.5,1566.64l300.409,10.79v8.862L2284.5,1575.5Z" transform="translate(-2277.239 -1393.38)"/><path class="a" d="M2284.5,1524.108l300.409,10.79v8.862L2284.5,1532.97Z" transform="translate(-2277.239 -1359.71)"/><path class="a" d="M2284.5,1481.576l300.409,10.79v8.862l-300.409-10.79Z" transform="translate(-2277.239 -1326.04)"/><path class="a" d="M2284.5,1439.044l300.409,10.79v8.862l-300.409-10.79Z" transform="translate(-2277.239 -1292.37)"/><path class="a" d="M2284.5,1396.512l300.409,10.79v8.862l-300.409-10.79Z" transform="translate(-2277.239 -1258.7)"/><path class="a" d="M2284.5,1353.98l300.409,10.79v8.862l-300.409-10.79Z" transform="translate(-2277.239 -1225.03)"/><path class="a" d="M2284.5,1311.448l300.409,10.79v8.862L2284.5,1320.31Z" transform="translate(-2277.239 -1191.359)"/><path class="a" d="M2284.5,1268.917l300.409,10.79v8.862l-300.409-10.79Z" transform="translate(-2277.239 -1157.689)"/><path class="a" d="M2284.5,1226.385l300.409,10.79v8.862l-300.409-10.79Z" transform="translate(-2277.239 -1124.019)"/><path class="a" d="M2284.5,1183.853l300.409,10.79v8.862l-300.409-10.79Z" transform="translate(-2277.239 -1090.349)"/><path class="a" d="M2284.5,1141.321l300.409,10.79v8.862l-300.409-10.79Z" transform="translate(-2277.239 -1056.679)"/><path class="a" d="M2284.5,1098.789l300.409,10.79v8.862l-300.409-10.79Z" transform="translate(-2277.239 -1023.009)"/><path class="a" d="M2284.5,1056.257l300.409,10.79v8.862l-300.409-10.79Z" transform="translate(-2277.239 -989.339)"/><path class="a" d="M2284.5,1013.726l300.409,10.79v8.862l-300.409-10.79Z" transform="translate(-2277.239 -955.668)"/><path class="a" d="M2284.5,971.194l300.409,10.79v8.862L2284.5,980.055Z" transform="translate(-2277.239 -921.998)"/><path class="a" d="M2284.5,928.662l300.409,10.79v8.862L2284.5,937.524Z" transform="translate(-2277.239 -888.328)"/><path class="a" d="M2284.5,886.13l300.409,10.79v8.862L2284.5,894.992Z" transform="translate(-2277.239 -854.658)"/><path class="a" d="M2284.5,843.6l300.409,10.79v8.862L2284.5,852.46Z" transform="translate(-2277.239 -820.988)"/><path class="a" d="M2284.5,801.066l300.409,10.79v8.862L2284.5,809.928Z" transform="translate(-2277.239 -787.318)"/><path class="a" d="M2350.571,769.924l234.337,8.417V787.2L2284.5,776.413v-6.489Z" transform="translate(-2277.239 -762.664)"/><path class="a" d="M2835.949,778.341l-234.337-8.417h234.337Z" transform="translate(-2528.28 -762.664)"/><path class="a" d="M2249.655,3606.917l219.959,7.9H2249.655Z" transform="translate(-2249.655 -3008.556)"/><path class="a" d="M2249.655,3564.386l314.929,11.311v5.451h-94.97l-219.959-7.9Z" transform="translate(-2249.655 -2974.886)"/><path class="a" d="M2249.655,3521.854l314.929,11.311v8.862l-314.929-11.311Z" transform="translate(-2249.655 -2941.216)"/><path class="a" d="M2249.655,3479.322l314.929,11.311v8.862l-314.929-11.312Z" transform="translate(-2249.655 -2907.546)"/><path class="a" d="M2249.655,3436.79l314.929,11.312v8.862l-314.929-11.311Z" transform="translate(-2249.655 -2873.875)"/><path class="a" d="M2249.655,3394.258l314.929,11.311v8.862l-314.929-11.311Z" transform="translate(-2249.655 -2840.206)"/><path class="a" d="M2249.655,3351.726l314.929,11.311v8.862l-314.929-11.311Z" transform="translate(-2249.655 -2806.535)"/><path class="a" d="M2249.655,3309.194l314.929,11.311v8.862l-314.929-11.312Z" transform="translate(-2249.655 -2772.865)"/><path class="a" d="M2249.655,3266.662l314.929,11.311v8.862l-314.929-11.311Z" transform="translate(-2249.655 -2739.195)"/><path class="a" d="M2249.655,3224.131l314.929,11.311v8.862l-314.929-11.311Z" transform="translate(-2249.655 -2705.525)"/><path class="a" d="M2249.655,3181.6l314.929,11.311v8.862l-314.929-11.311Z" transform="translate(-2249.655 -2671.855)"/><path class="a" d="M2249.655,3139.067l314.929,11.311v8.862l-314.929-11.311Z" transform="translate(-2249.655 -2638.185)"/><path class="a" d="M2249.655,3096.535l314.929,11.311v8.862L2249.655,3105.4Z" transform="translate(-2249.655 -2604.514)"/><path class="a" d="M2249.655,3054l314.929,11.311v8.862l-314.929-11.311Z" transform="translate(-2249.655 -2570.845)"/><path class="a" d="M2249.655,3011.471l314.929,11.311v8.862l-314.929-11.311Z" transform="translate(-2249.655 -2537.175)"/><path class="a" d="M2249.655,2968.939l314.929,11.311v8.862L2249.655,2977.8Z" transform="translate(-2249.655 -2503.504)"/><path class="a" d="M2249.655,2926.407l314.929,11.311v8.862l-314.929-11.311Z" transform="translate(-2249.655 -2469.834)"/><path class="a" d="M2249.655,2883.876l314.929,11.312v8.861l-314.929-11.311Z" transform="translate(-2249.655 -2436.164)"/><path class="a" d="M2249.655,2841.344l314.929,11.311v8.862l-314.929-11.311Z" transform="translate(-2249.655 -2402.494)"/><path class="a" d="M2249.655,2798.812l314.929,11.311v8.862l-314.929-11.311Z" transform="translate(-2249.655 -2368.824)"/><path class="a" d="M2249.655,2756.28l314.929,11.312v8.862l-314.929-11.311Z" transform="translate(-2249.655 -2335.153)"/><path class="a" d="M2249.655,2713.749l314.929,11.312v8.862l-314.929-11.311Z" transform="translate(-2249.655 -2301.484)"/><path class="a" d="M2249.655,2671.217l314.929,11.311v8.862l-314.929-11.311Z" transform="translate(-2249.655 -2267.813)"/><path class="a" d="M2249.655,2628.685,2564.583,2640v8.862l-314.929-11.311Z" transform="translate(-2249.655 -2234.143)"/><path class="a" d="M2249.655,2586.153l314.929,11.311v8.862l-314.929-11.311Z" transform="translate(-2249.655 -2200.473)"/><path class="a" d="M2249.655,2543.621l314.929,11.311v8.862l-314.929-11.311Z" transform="translate(-2249.655 -2166.803)"/><path class="a" d="M2249.655,2501.089l314.929,11.311v8.862l-314.929-11.311Z" transform="translate(-2249.655 -2133.133)"/><path class="a" d="M2249.655,2458.557l314.929,11.311v8.862l-314.929-11.311Z" transform="translate(-2249.655 -2099.463)"/><path class="a" d="M2249.655,2416.025l314.929,11.311v8.862l-314.929-11.311Z" transform="translate(-2249.655 -2065.792)"/><path class="a" d="M2249.655,2373.494l314.929,11.311v8.862l-314.929-11.311Z" transform="translate(-2249.655 -2032.122)"/><path class="a" d="M2249.655,2330.962l314.929,11.311v8.862l-314.929-11.311Z" transform="translate(-2249.655 -1998.452)"/><path class="a" d="M2249.655,2288.43l314.929,11.311v8.862l-314.929-11.311Z" transform="translate(-2249.655 -1964.782)"/><path class="a" d="M2249.655,2245.9l314.929,11.311v8.862l-314.929-11.311Z" transform="translate(-2249.655 -1931.112)"/><path class="a" d="M2249.655,2203.366l314.929,11.312v8.861l-314.929-11.311Z" transform="translate(-2249.655 -1897.442)"/><path class="a" d="M2249.655,2160.834l314.929,11.311v8.862L2249.655,2169.7Z" transform="translate(-2249.655 -1863.771)"/><path class="a" d="M2249.655,2118.3l314.929,11.311v8.862l-314.929-11.311Z" transform="translate(-2249.655 -1830.102)"/><path class="a" d="M2249.655,2075.771l314.929,11.311v8.862l-314.929-11.312Z" transform="translate(-2249.655 -1796.431)"/><path class="a" d="M2249.655,2033.238l314.929,11.311v8.862L2249.655,2042.1Z" transform="translate(-2249.655 -1762.761)"/><path class="a" d="M2249.655,1990.707l314.929,11.311v8.862l-314.929-11.311Z" transform="translate(-2249.655 -1729.091)"/><path class="a" d="M2249.655,1948.175l314.929,11.311v8.862l-314.929-11.311Z" transform="translate(-2249.655 -1695.421)"/><path class="a" d="M2249.655,1905.643l314.929,11.311v8.862L2249.655,1914.5Z" transform="translate(-2249.655 -1661.751)"/><path class="a" d="M2249.655,1863.111l314.929,11.311v8.862l-314.929-11.311Z" transform="translate(-2249.655 -1628.081)"/><path class="a" d="M2249.655,1820.579l314.929,11.311v8.862l-314.929-11.311Z" transform="translate(-2249.655 -1594.41)"/><path class="a" d="M2249.655,1778.048l314.929,11.311v8.862l-314.929-11.311Z" transform="translate(-2249.655 -1560.74)"/><path class="a" d="M2249.655,1735.516l314.929,11.311v8.862l-314.929-11.311Z" transform="translate(-2249.655 -1527.07)"/><path class="a" d="M2249.655,1692.984l314.929,11.311v8.862l-314.929-11.311Z" transform="translate(-2249.655 -1493.4)"/><path class="a" d="M2249.655,1650.452l314.929,11.311v8.862l-314.929-11.311Z" transform="translate(-2249.655 -1459.73)"/><path class="a" d="M2249.655,1607.92l314.929,11.311v8.862l-314.929-11.311Z" transform="translate(-2249.655 -1426.06)"/><path class="a" d="M2249.655,1565.388l314.929,11.311v8.862l-314.929-11.311Z" transform="translate(-2249.655 -1392.39)"/><path class="a" d="M2249.655,1522.856l314.929,11.311v8.862l-314.929-11.311Z" transform="translate(-2249.655 -1358.719)"/><path class="a" d="M2249.655,1480.324l314.929,11.311v8.862l-314.929-11.311Z" transform="translate(-2249.655 -1325.049)"/><path class="a" d="M2249.655,1437.793l314.929,11.311v8.862l-314.929-11.311Z" transform="translate(-2249.655 -1291.379)"/><path class="a" d="M2249.655,1395.261l314.929,11.311v8.862l-314.929-11.311Z" transform="translate(-2249.655 -1257.709)"/><path class="a" d="M2249.655,1352.729l314.929,11.311v8.862l-314.929-11.311Z" transform="translate(-2249.655 -1224.039)"/><path class="a" d="M2249.655,1310.2l314.929,11.311v8.862l-314.929-11.311Z" transform="translate(-2249.655 -1190.369)"/><path class="a" d="M2249.655,1267.665l314.929,11.311v8.862l-314.929-11.311Z" transform="translate(-2249.655 -1156.698)"/><path class="a" d="M2249.655,1225.133l314.929,11.311v8.862l-314.929-11.311Z" transform="translate(-2249.655 -1123.028)"/><path class="a" d="M2249.655,1182.6l314.929,11.311v8.862l-314.929-11.311Z" transform="translate(-2249.655 -1089.358)"/><path class="a" d="M2249.655,1140.07l314.929,11.311v8.862l-314.929-11.311Z" transform="translate(-2249.655 -1055.688)"/><path class="a" d="M2249.655,1097.538l314.929,11.311v8.862L2249.655,1106.4Z" transform="translate(-2249.655 -1022.018)"/><path class="a" d="M2249.655,1055.006l314.929,11.311v8.862l-314.929-11.311Z" transform="translate(-2249.655 -988.348)"/><path class="a" d="M2249.655,1012.474l314.929,11.311v8.862l-314.929-11.311Z" transform="translate(-2249.655 -954.678)"/><path class="a" d="M2249.655,969.942l314.929,11.311v8.862L2249.655,978.8Z" transform="translate(-2249.655 -921.008)"/><path class="a" d="M2249.655,927.41l314.929,11.311v8.862l-314.929-11.311Z" transform="translate(-2249.655 -887.337)"/><path class="a" d="M2249.655,884.878l314.929,11.311v8.862L2249.655,893.74Z" transform="translate(-2249.655 -853.667)"/><path class="a" d="M2249.655,842.347l314.929,11.311v8.862l-314.929-11.311Z" transform="translate(-2249.655 -819.997)"/><path class="a" d="M2249.655,799.815l314.929,11.311v8.862l-314.929-11.311Z" transform="translate(-2249.655 -786.327)"/><path class="a" d="M2249.655,757.283l314.929,11.311v8.862l-314.929-11.311Z" transform="translate(-2249.655 -752.657)"/><path class="a" d="M2367.583,735.08l197,7.076v8.862l-314.929-11.311V735.08Z" transform="translate(-2249.655 -735.08)"/><path class="a" d="M3012.653,742.156l-197-7.076h197Z" transform="translate(-2697.724 -735.08)"/></g></g><path class="a" d="M2540.378,1340.725h-268.19a23.617,23.617,0,0,1-23.59-23.59V757.613a23.617,23.617,0,0,1,23.59-23.59h268.19a23.616,23.616,0,0,1,23.59,23.59v559.521A23.617,23.617,0,0,1,2540.378,1340.725Zm-268.19-606.261a23.176,23.176,0,0,0-23.149,23.149v559.521a23.176,23.176,0,0,0,23.149,23.15h268.19a23.176,23.176,0,0,0,23.15-23.15V757.613a23.176,23.176,0,0,0-23.15-23.149Zm268.19,599h-268.19a16.349,16.349,0,0,1-16.33-16.33V757.613a16.349,16.349,0,0,1,16.33-16.33h268.19a16.348,16.348,0,0,1,16.329,16.33v559.521A16.348,16.348,0,0,1,2540.378,1333.465Zm-268.19-591.741a15.908,15.908,0,0,0-15.889,15.89v559.521a15.908,15.908,0,0,0,15.889,15.89h268.19a15.908,15.908,0,0,0,15.889-15.89V757.613a15.907,15.907,0,0,0-15.889-15.89Z" transform="translate(-2248.599 -734.023)"/></g><g transform="translate(388.319 388.042)"><circle class="h" cx="95.593" cy="95.593" r="95.593"/><g class="i"><g transform="translate(2.643 40.212)"><g transform="translate(0 75.204)"><g class="j"><path class="c" d="M2580.6,1517.869l-10.573.182v-.182Z" transform="translate(-2570.026 -1517.869)"/><path class="c" d="M2694.149,1517.869,2570.026,1520v-1.949l10.573-.182Z" transform="translate(-2570.026 -1517.869)"/><path class="c" d="M2755.925,1518.758l-185.9,3.191V1520l124.123-2.131h61.776Z" transform="translate(-2570.026 -1517.869)"/><path class="c" d="M2755.925,1524.084l-185.9,3.191v-1.949l185.9-3.191Z" transform="translate(-2570.026 -1521.246)"/><path class="c" d="M2755.925,1533.44l-185.9,3.191v-1.949l185.9-3.191Z" transform="translate(-2570.026 -1528.653)"/><path class="c" d="M2755.925,1542.8l-185.9,3.191v-1.949l185.9-3.191Z" transform="translate(-2570.026 -1536.059)"/><path class="c" d="M2755.925,1552.152l-185.9,3.191v-1.949l185.9-3.191Z" transform="translate(-2570.026 -1543.466)"/><path class="c" d="M2755.925,1561.508l-185.9,3.191v-1.949l185.9-3.191Z" transform="translate(-2570.026 -1550.873)"/><path class="c" d="M2755.925,1570.864l-185.9,3.191v-1.949l185.9-3.191Z" transform="translate(-2570.026 -1558.279)"/><path class="c" d="M2755.925,1580.22l-185.9,3.191v-1.949l185.9-3.191Z" transform="translate(-2570.026 -1565.686)"/><path class="c" d="M2755.925,1589.576l-185.9,3.192v-1.949l185.9-3.191Z" transform="translate(-2570.026 -1573.092)"/><path class="c" d="M2755.925,1598.932l-185.9,3.191v-1.949l185.9-3.191Z" transform="translate(-2570.026 -1580.499)"/><path class="c" d="M2755.925,1608.288l-185.9,3.191v-1.949l185.9-3.191Z" transform="translate(-2570.026 -1587.905)"/><path class="c" d="M2755.925,1617.644l-185.9,3.191v-1.949l185.9-3.191Z" transform="translate(-2570.026 -1595.312)"/><path class="c" d="M2755.925,1627l-185.9,3.191v-1.949l185.9-3.191Z" transform="translate(-2570.026 -1602.719)"/><path class="c" d="M2755.925,1636.356l-185.9,3.191V1637.6l185.9-3.191Z" transform="translate(-2570.026 -1610.125)"/><path class="c" d="M2755.925,1645.712l-185.9,3.191v-1.949l185.9-3.191Z" transform="translate(-2570.026 -1617.532)"/><path class="c" d="M2755.925,1655.068l-185.9,3.191v-1.949l185.9-3.191Z" transform="translate(-2570.026 -1624.938)"/><path class="c" d="M2755.925,1664.424l-185.9,3.191v-1.949l185.9-3.192Z" transform="translate(-2570.026 -1632.345)"/><path class="c" d="M2755.925,1673.779l-185.9,3.191v-1.949l185.9-3.191Z" transform="translate(-2570.026 -1639.752)"/><path class="c" d="M2755.925,1683.135l-185.9,3.191v-1.949l185.9-3.191Z" transform="translate(-2570.026 -1647.158)"/><path class="c" d="M2755.925,1692.491l-185.9,3.191v-1.949l185.9-3.191Z" transform="translate(-2570.026 -1654.565)"/><path class="c" d="M2755.925,1701.847l-185.9,3.191v-1.949l185.9-3.191Z" transform="translate(-2570.026 -1661.971)"/><path class="c" d="M2755.925,1711.2l-185.9,3.191v-1.949l185.9-3.191Z" transform="translate(-2570.026 -1669.378)"/><path class="c" d="M2755.925,1720.559l-185.9,3.191V1721.8l185.9-3.191Z" transform="translate(-2570.026 -1676.784)"/><path class="c" d="M2755.925,1729.915l-185.9,3.192v-1.949l185.9-3.191Z" transform="translate(-2570.026 -1684.191)"/><path class="c" d="M2755.925,1739.271l-185.9,3.191v-1.949l185.9-3.191Z" transform="translate(-2570.026 -1691.598)"/><path class="c" d="M2755.925,1748.627l-185.9,3.191v-1.949l185.9-3.191Z" transform="translate(-2570.026 -1699.004)"/><path class="c" d="M2755.925,1757.983l-185.9,3.191v-1.949l185.9-3.191Z" transform="translate(-2570.026 -1706.411)"/><path class="c" d="M2755.925,1767.339l-185.9,3.191v-1.949l185.9-3.191Z" transform="translate(-2570.026 -1713.817)"/><path class="c" d="M2755.925,1776.695l-185.9,3.192v-1.949l185.9-3.191Z" transform="translate(-2570.026 -1721.224)"/><path class="c" d="M2755.925,1786.051l-185.9,3.192v-1.949l185.9-3.191Z" transform="translate(-2570.026 -1728.631)"/><path class="c" d="M2755.925,1795.407l-185.9,3.191v-1.949l185.9-3.191Z" transform="translate(-2570.026 -1736.037)"/><path class="c" d="M2755.925,1804.763l-185.9,3.191V1806l185.9-3.191Z" transform="translate(-2570.026 -1743.444)"/><path class="c" d="M2755.925,1814.118l-185.9,3.191v-1.949l185.9-3.191Z" transform="translate(-2570.026 -1750.85)"/><path class="c" d="M2755.925,1823.474l-185.9,3.191v-1.949l185.9-3.191Z" transform="translate(-2570.026 -1758.257)"/><path class="c" d="M2755.925,1832.83l-185.9,3.191v-1.949l185.9-3.191Z" transform="translate(-2570.026 -1765.664)"/><path class="c" d="M2755.925,1842.187l-185.9,3.191v-1.949l185.9-3.191Z" transform="translate(-2570.026 -1773.07)"/><path class="c" d="M2755.925,1851.542l-185.9,3.191v-1.949l185.9-3.191Z" transform="translate(-2570.026 -1780.477)"/><path class="c" d="M2755.925,1860.9l-185.9,3.191v-1.949l185.9-3.191Z" transform="translate(-2570.026 -1787.883)"/><path class="c" d="M2755.925,1870.254l-185.9,3.191V1871.5l185.9-3.191Z" transform="translate(-2570.026 -1795.29)"/><path class="c" d="M2755.925,1879.61l-185.9,3.191v-1.949l185.9-3.191Z" transform="translate(-2570.026 -1802.696)"/><path class="c" d="M2755.925,1888.966l-185.9,3.191v-1.949l185.9-3.191Z" transform="translate(-2570.026 -1810.103)"/><path class="c" d="M2755.925,1898.322l-185.9,3.191v-1.949l185.9-3.191Z" transform="translate(-2570.026 -1817.51)"/><path class="c" d="M2755.925,1907.678l-185.9,3.191v-1.949l185.9-3.191Z" transform="translate(-2570.026 -1824.916)"/><path class="c" d="M2755.925,1917.034l-185.9,3.192v-1.949l185.9-3.191Z" transform="translate(-2570.026 -1832.323)"/><path class="c" d="M2755.925,1926.39l-185.9,3.191v-1.949l185.9-3.191Z" transform="translate(-2570.026 -1839.729)"/><path class="c" d="M2570.026,1936.988l185.9-3.191v110.692h-185.9Z" transform="translate(-2570.026 -1847.136)"/></g></g><g transform="translate(51.665 0)"><g transform="translate(0)"><g class="k"><path class="c" d="M2883.095,1213.414l-8.613.148v-.148Z" transform="translate(-2862.712 -1201.644)"/><path class="c" d="M2931.309,1214.535l-56.827.976v-1.949l8.613-.148h48.214Z" transform="translate(-2862.712 -1201.644)"/><path class="c" d="M2931.309,1220.746l-56.827.976v-1.949l56.827-.975Z" transform="translate(-2862.712 -1205.906)"/><path class="c" d="M2931.309,1230.1l-56.827.975v-1.949l56.827-.976Z" transform="translate(-2862.712 -1213.313)"/><path class="c" d="M2931.309,1239.458l-56.827.976v-1.949l56.827-.976Z" transform="translate(-2862.712 -1220.719)"/><path class="c" d="M2931.309,1248.814l-56.827.976v-1.949l56.827-.976Z" transform="translate(-2862.712 -1228.126)"/><path class="c" d="M2931.309,1258.17l-56.827.976V1257.2l56.827-.976Z" transform="translate(-2862.712 -1235.532)"/><path class="c" d="M2931.309,1267.526l-56.827.975v-1.949l56.827-.976Z" transform="translate(-2862.712 -1242.939)"/><path class="c" d="M2931.309,1276.882l-56.827.976v-1.949l56.827-.976Z" transform="translate(-2862.712 -1250.346)"/><path class="c" d="M2931.309,1286.238l-56.827.976v-1.949l56.827-.976Z" transform="translate(-2862.712 -1257.752)"/><path class="c" d="M2931.309,1295.594l-56.827.975v-1.949l56.827-.976Z" transform="translate(-2862.712 -1265.159)"/><path class="c" d="M2931.309,1304.95l-56.827.976v-1.949l56.827-.976Z" transform="translate(-2862.712 -1272.565)"/><path class="c" d="M2931.309,1314.306l-56.827.976v-1.949l56.827-.975Z" transform="translate(-2862.712 -1279.972)"/><path class="c" d="M2931.309,1323.662l-56.827.976v-1.949l56.827-.976Z" transform="translate(-2862.712 -1287.379)"/><path class="c" d="M2931.309,1333.018l-56.827.975v-1.949l56.827-.976Z" transform="translate(-2862.712 -1294.785)"/><path class="c" d="M2931.309,1342.374l-56.827.975V1341.4l56.827-.975Z" transform="translate(-2862.712 -1302.192)"/><path class="c" d="M2931.309,1351.729l-56.827.976v-1.949l56.827-.976Z" transform="translate(-2862.712 -1309.598)"/><path class="c" d="M2931.309,1361.086l-56.827.976v-1.949l56.827-.975Z" transform="translate(-2862.712 -1317.005)"/><path class="c" d="M2931.309,1370.441l-56.827.976v-1.949l56.827-.976Z" transform="translate(-2862.712 -1324.412)"/><path class="c" d="M2931.309,1379.8l-56.827.976v-1.949l56.827-.976Z" transform="translate(-2862.712 -1331.818)"/><path class="c" d="M2931.309,1389.153l-56.827.975v-1.949l56.827-.976Z" transform="translate(-2862.712 -1339.225)"/><path class="c" d="M2931.309,1398.509l-56.827.976v-1.949l56.827-.976Z" transform="translate(-2862.712 -1346.631)"/><path class="c" d="M2931.309,1407.865l-56.827.975v-1.949l56.827-.976Z" transform="translate(-2862.712 -1354.038)"/><path class="c" d="M2931.309,1417.221l-56.827.976v-1.949l56.827-.976Z" transform="translate(-2862.712 -1361.444)"/><path class="c" d="M2931.309,1426.577l-56.827.975V1425.6l56.827-.975Z" transform="translate(-2862.712 -1368.851)"/><path class="c" d="M2931.309,1435.933l-56.827.976v-1.949l56.827-.976Z" transform="translate(-2862.712 -1376.258)"/><path class="c" d="M2931.309,1445.289l-56.827.976v-1.949l56.827-.976Z" transform="translate(-2862.712 -1383.664)"/><path class="c" d="M2931.309,1454.645l-56.827.975v-1.949l56.827-.976Z" transform="translate(-2862.712 -1391.071)"/><path class="c" d="M2931.309,1464l-56.827.976v-1.949l56.827-.976Z" transform="translate(-2862.712 -1398.477)"/><path class="c" d="M2931.309,1473.357l-56.827.975v-1.949l56.827-.976Z" transform="translate(-2862.712 -1405.884)"/><path class="c" d="M2874.482,1481.739l56.827-.976v1.123h-56.827Z" transform="translate(-2862.712 -1413.291)"/></g></g></g></g></g></g><g transform="translate(421.49 749.732)"><g class="l"><path class="a" d="M3301.775,2722.553l-.728-22.694h.728Z" transform="translate(-3179.265 -2699.859)"/><path class="a" d="M3293.3,2741.6l-1.338-41.744h1.893l.727,22.694v19.05Z" transform="translate(-3172.07 -2699.859)"/><path class="a" d="M3284.21,2741.6l-1.338-41.744h1.894l1.338,41.744Z" transform="translate(-3164.876 -2699.859)"/><path class="a" d="M3275.122,2741.6l-1.338-41.744h1.894l1.338,41.744Z" transform="translate(-3157.681 -2699.859)"/><path class="a" d="M3266.034,2741.6l-1.338-41.744h1.894l1.338,41.744Z" transform="translate(-3150.487 -2699.859)"/><path class="a" d="M3256.946,2741.6l-1.338-41.744h1.894l1.338,41.744Z" transform="translate(-3143.292 -2699.859)"/><path class="a" d="M3247.858,2741.6l-1.338-41.744h1.893l1.338,41.744Z" transform="translate(-3136.098 -2699.859)"/><path class="a" d="M3238.77,2741.6l-1.338-41.744h1.893l1.338,41.744Z" transform="translate(-3128.903 -2699.859)"/><path class="a" d="M3229.682,2741.6l-1.338-41.744h1.894l1.338,41.744Z" transform="translate(-3121.709 -2699.859)"/><path class="a" d="M3220.594,2741.6l-1.338-41.744h1.894l1.338,41.744Z" transform="translate(-3114.514 -2699.859)"/><path class="a" d="M3211.506,2741.6l-1.338-41.744h1.894l1.338,41.744Z" transform="translate(-3107.32 -2699.859)"/><path class="a" d="M3202.418,2741.6l-1.338-41.744h1.893l1.338,41.744Z" transform="translate(-3100.125 -2699.859)"/><path class="a" d="M3193.33,2741.6l-1.338-41.744h1.894l1.338,41.744Z" transform="translate(-3092.931 -2699.859)"/><path class="a" d="M3184.242,2741.6l-1.338-41.744h1.894l1.338,41.744Z" transform="translate(-3085.737 -2699.859)"/><path class="a" d="M3175.154,2741.6l-1.338-41.744h1.894l1.338,41.744Z" transform="translate(-3078.542 -2699.859)"/><path class="a" d="M3166.066,2741.6l-1.338-41.744h1.894l1.338,41.744Z" transform="translate(-3071.347 -2699.859)"/><path class="a" d="M3156.978,2741.6l-1.338-41.744h1.893l1.338,41.744Z" transform="translate(-3064.153 -2699.859)"/><path class="a" d="M3147.889,2741.6l-1.338-41.744h1.894l1.338,41.744Z" transform="translate(-3056.958 -2699.859)"/><path class="a" d="M3138.8,2741.6l-1.338-41.744h1.894l1.338,41.744Z" transform="translate(-3049.764 -2699.859)"/><path class="a" d="M3129.714,2741.6l-1.338-41.744h1.894l1.338,41.744Z" transform="translate(-3042.569 -2699.859)"/><path class="a" d="M3120.625,2741.6l-1.338-41.744h1.894l1.338,41.744Z" transform="translate(-3035.375 -2699.859)"/><path class="a" d="M3111.537,2741.6l-1.338-41.744h1.893l1.338,41.744Z" transform="translate(-3028.18 -2699.859)"/><path class="a" d="M3102.449,2741.6l-1.338-41.744H3103l1.338,41.744Z" transform="translate(-3020.986 -2699.859)"/><path class="a" d="M3093.361,2741.6l-1.338-41.744h1.894l1.338,41.744Z" transform="translate(-3013.791 -2699.859)"/><path class="a" d="M3084.273,2741.6l-1.338-41.744h1.894l1.338,41.744Z" transform="translate(-3006.597 -2699.859)"/><path class="a" d="M3075.185,2741.6l-1.338-41.744h1.894l1.338,41.744Z" transform="translate(-2999.402 -2699.859)"/><path class="a" d="M3066.1,2741.6l-1.338-41.744h1.894l1.338,41.744Z" transform="translate(-2992.208 -2699.859)"/><path class="a" d="M3057.009,2741.6l-1.338-41.744h1.894l1.338,41.744Z" transform="translate(-2985.013 -2699.859)"/><path class="a" d="M3047.921,2741.6l-1.338-41.744h1.894l1.338,41.744Z" transform="translate(-2977.819 -2699.859)"/><path class="a" d="M3038.833,2741.6l-1.338-41.744h1.894l1.338,41.744Z" transform="translate(-2970.624 -2699.859)"/><path class="a" d="M3029.745,2741.6l-1.338-41.744h1.894l1.338,41.744Z" transform="translate(-2963.429 -2699.859)"/><path class="a" d="M3020.657,2741.6l-1.338-41.744h1.894l1.338,41.744Z" transform="translate(-2956.235 -2699.859)"/><path class="a" d="M3011.569,2741.6l-1.338-41.744h1.893l1.338,41.744Z" transform="translate(-2949.041 -2699.859)"/><path class="a" d="M3002.481,2741.6l-1.338-41.744h1.894l1.338,41.744Z" transform="translate(-2941.846 -2699.859)"/><path class="a" d="M2993.393,2741.6l-1.338-41.744h1.894l1.338,41.744Z" transform="translate(-2934.652 -2699.859)"/><path class="a" d="M2984.3,2741.6l-1.338-41.744h1.894l1.338,41.744Z" transform="translate(-2927.457 -2699.859)"/><path class="a" d="M2975.217,2741.6l-1.338-41.744h1.894l1.338,41.744Z" transform="translate(-2920.262 -2699.859)"/><path class="a" d="M2966.129,2741.6l-1.338-41.744h1.893l1.338,41.744Z" transform="translate(-2913.069 -2699.859)"/><path class="a" d="M2957.041,2741.6l-1.338-41.744h1.893l1.338,41.744Z" transform="translate(-2905.874 -2699.859)"/><path class="a" d="M2947.953,2741.6l-1.338-41.744h1.894l1.338,41.744Z" transform="translate(-2898.679 -2699.859)"/><path class="a" d="M2938.865,2741.6l-1.338-41.744h1.894l1.338,41.744Z" transform="translate(-2891.485 -2699.859)"/><path class="a" d="M2929.777,2741.6l-1.338-41.744h1.894l1.338,41.744Z" transform="translate(-2884.29 -2699.859)"/><path class="a" d="M2920.688,2741.6l-1.338-41.744h1.893l1.338,41.744Z" transform="translate(-2877.096 -2699.859)"/><path class="a" d="M2911.6,2741.6l-1.338-41.744h1.893l1.338,41.744Z" transform="translate(-2869.901 -2699.859)"/><path class="a" d="M2902.512,2741.6l-1.338-41.744h1.894l1.338,41.744Z" transform="translate(-2862.707 -2699.859)"/><path class="a" d="M2893.424,2741.6l-1.338-41.744h1.894l1.338,41.744Z" transform="translate(-2855.512 -2699.859)"/><path class="a" d="M2884.337,2741.6,2883,2699.859h1.894l1.338,41.744Z" transform="translate(-2848.317 -2699.859)"/><path class="a" d="M2875.248,2741.6l-1.338-41.744h1.894l1.338,41.744Z" transform="translate(-2841.123 -2699.859)"/><path class="a" d="M2866.16,2741.6l-1.338-41.744h1.893l1.338,41.744Z" transform="translate(-2833.929 -2699.859)"/><path class="a" d="M2857.073,2741.6l-1.338-41.744h1.894l1.338,41.744Z" transform="translate(-2826.734 -2699.859)"/><path class="a" d="M2847.985,2741.6l-1.338-41.744h1.894l1.338,41.744Z" transform="translate(-2819.54 -2699.859)"/><path class="a" d="M2838.9,2741.6l-1.338-41.744h1.894l1.338,41.744Z" transform="translate(-2812.345 -2699.859)"/><path class="a" d="M2829.808,2741.6l-1.338-41.744h1.893l1.338,41.744Z" transform="translate(-2805.151 -2699.859)"/><path class="a" d="M2820.72,2741.6l-1.338-41.744h1.894l1.338,41.744Z" transform="translate(-2797.956 -2699.859)"/><path class="a" d="M2811.632,2741.6l-1.338-41.744h1.894l1.338,41.744Z" transform="translate(-2790.762 -2699.859)"/><path class="a" d="M2802.544,2741.6l-1.338-41.744h1.894l1.338,41.744Z" transform="translate(-2783.567 -2699.859)"/><path class="a" d="M2793.456,2741.6l-1.338-41.744h1.894l1.338,41.744Z" transform="translate(-2776.373 -2699.859)"/><path class="a" d="M2784.368,2741.6l-1.338-41.744h1.893l1.338,41.744Z" transform="translate(-2769.178 -2699.859)"/><path class="a" d="M2775.28,2741.6l-1.338-41.744h1.894l1.338,41.744Z" transform="translate(-2761.984 -2699.859)"/><path class="a" d="M2766.192,2741.6l-1.338-41.744h1.894l1.338,41.744Z" transform="translate(-2754.789 -2699.859)"/><path class="a" d="M2757.1,2741.6l-1.338-41.744h1.894L2759,2741.6Z" transform="translate(-2747.595 -2699.859)"/><path class="a" d="M2748.016,2741.6l-1.338-41.744h1.894l1.338,41.744Z" transform="translate(-2740.4 -2699.859)"/><path class="a" d="M2738.928,2741.6l-1.338-41.744h1.893l1.338,41.744Z" transform="translate(-2733.206 -2699.859)"/><path class="a" d="M2729.84,2741.6l-1.338-41.744h1.893l1.338,41.744Z" transform="translate(-2726.011 -2699.859)"/><path class="a" d="M2719.039,2699.859l1.338,41.744h-3.829v-41.744Z" transform="translate(-2716.548 -2699.859)"/></g></g><g transform="translate(346.029 620.636)"><rect class="b" width="273.122" height="45.814" rx="22.907"/></g><g transform="translate(346.029 679.666)"><rect class="m" width="273.122" height="45.814" rx="22.907"/></g><g transform="translate(361.427 695.946)"><circle class="a" cx="6.167" cy="6.167" r="6.167" transform="translate(0 12.178) rotate(-80.867)"/></g><g transform="translate(383.983 695.594)"><circle class="a" cx="6.167" cy="6.167" r="6.167" transform="translate(0 12.005) rotate(-76.717)"/></g><g transform="translate(405.587 694.292)"><circle class="a" cx="6.167" cy="6.167" r="6.167" transform="translate(0 8.722) rotate(-45)"/></g><g transform="translate(430.14 695.938)"><circle class="a" cx="6.167" cy="6.167" r="6.167" transform="translate(0 12.175) rotate(-80.783)"/></g><g transform="translate(452.704 695.594)"><circle class="a" cx="6.167" cy="6.167" r="6.167" transform="translate(0 12.005) rotate(-76.717)"/></g><g transform="translate(474.309 694.292)"><circle class="a" cx="6.167" cy="6.167" r="6.167" transform="translate(0 8.722) rotate(-45)"/></g><g transform="translate(498.518 695.594)"><circle class="a" cx="6.167" cy="6.167" r="6.167" transform="translate(0 12.005) rotate(-76.717)"/></g><g transform="translate(362.328 638.257)"><rect class="a" width="122.905" height="10.572" rx="5.286"/></g><g transform="translate(498.008 638.257)"><rect class="a" width="72.686" height="10.572" rx="5.286"/></g><g transform="translate(547.57 647.668)"><g transform="translate(0 70.038)"><path class="n" d="M3330.022,2678.416c3.45.94,17.453-.669,32.719-4.083,6.419,7.462,21.5,18.869,54.018,19.7,48.618,1.239,45.388-3.092,45.388-3.092,6.679-3.788,16.458-24.258,25.308-45.967,6.5,5.959,24.419,22.071,30.567,24.262,7.56,2.7,22.149,3.241,27.55-7.56s-3.78-28.635-3.78-28.635-11.348-28.632-25.933-53.48c-5.751-9.8-10.078-14.983-13.2-17.661a10.333,10.333,0,0,0-4.567-2.982l-37.631-12.764-59.836,4.669a10.229,10.229,0,0,0-6.077,2.62h0c-3.737,1.152-10.16,4.976-20.757,15.852-20.529,21.072-47,66.448-50.781,83.2S3324.079,2676.8,3330.022,2678.416Z" transform="translate(-3321.666 -2546.149)"/></g><g transform="translate(144.364 168.187)"><path class="o" d="M4014.935,3060.187a.394.394,0,0,1-.308-.638c5.365-6.761,12.423-20.828,20.977-41.811l.213-.523.417.382c5.141,4.714,17.955,16.259,25.881,21.62a.393.393,0,1,1-.441.652c-7.763-5.251-20.155-16.369-25.555-21.311-8.486,20.763-15.509,34.717-20.875,41.48A.394.394,0,0,1,4014.935,3060.187Z" transform="translate(-4014.542 -3017.215)"/></g><g transform="translate(160.684 77.204)"><path class="o" d="M4154.671,2691.615a.394.394,0,0,1-.315-.628,15.4,15.4,0,0,0,1.386-2.263c5.25-10.505-3.687-28.1-3.778-28.28-.129-.321-11.521-28.924-25.923-53.46-4.947-8.433-9.363-14.342-13.122-17.562l-.038-.038a9.948,9.948,0,0,0-4.393-2.868l-15.351-5.207a.393.393,0,0,1,.252-.745l15.345,5.2a10.731,10.731,0,0,1,4.717,3.073c3.821,3.28,8.285,9.249,13.269,17.743,14.433,24.59,25.845,53.247,25.959,53.534.362.7,9.193,18.1,3.766,28.956a16.138,16.138,0,0,1-1.458,2.38A.393.393,0,0,1,4154.671,2691.615Z" transform="translate(-4092.87 -2580.543)"/></g><g transform="translate(169.797 264.569)"><path class="o" d="M4144.8,3483.443c1.62,0,7.563-1.621,31.873-3.241s38.9,2.161,38.9,2.161,8.1,3.241,8.1,11.345-4.862,13.506-10.264,14.586-35.115,3.241-43.759,2.161-27.011-5.4-31.874-10.264S4144.8,3483.443,4144.8,3483.443Z" transform="translate(-4136.606 -3479.798)"/></g><g transform="translate(130.448 96.097)"><path class="a" d="M3972.849,2729.2H3951.78a3.756,3.756,0,0,1-3.794-5.177l14.792-47.63a7.806,7.806,0,0,1,7.01-5.177h21.069a3.756,3.756,0,0,1,3.795,5.177l-14.792,47.63A7.806,7.806,0,0,1,3972.849,2729.2Z" transform="translate(-3947.75 -2671.216)"/></g><g transform="translate(75.885 190.777)"><path class="c" d="M3685.877,3146.348l64.827,3.241s45.379-19.988,60.505-22.689,24.85-1.621,31.874,8.644,4.322,28.632-8.1,39.977-41.6,25.391-41.6,25.391-44.839,17.828-61.046,21.069-18.368,3.241-18.368,3.241-5.4,2.161-7.563-23.77-10.8-17.287-10.8-17.287S3685.877,3144.728,3685.877,3146.348Z" transform="translate(-3685.877 -3125.636)"/></g><g transform="translate(9.557 194.109)"><path class="c" d="M3426.3,3238.962s-34.034-13.505-47-35.655-13.506-37.276-9.724-48.08,24.851-13.506,24.851-13.506,10.264-1.621,32.954,8.644,87.517,48.621,87.517,48.621l11.345,7.023s3.241,7.563-4.862,18.368-17.287,9.724-17.287,9.724l-48.08-15.126-10.264,5.4-6.483,12.965Z" transform="translate(-3367.536 -3141.628)"/></g><g transform="translate(18.62 270.915)"><path class="o" d="M3484.5,3513.533s-10.8-3.276-29.172-3.276-34.575,1.092-38.9,4.913-7.023,10.373-4.322,15.286,8.024,10.786,24.851,10.918c20.57.162,28.092.546,43.758-5.459s12.425-16.924,12.425-16.924Z" transform="translate(-3411.033 -3510.257)"/></g><g transform="translate(85.613 270.375)"><path class="p" d="M3744.988,3507.664l-11.705,2.881s-2.341,6.843,1.44,12.245a62.5,62.5,0,0,0,5.943,7.563l16.207-3.782a43.224,43.224,0,0,1-9.184-9.724C3743.367,3510.365,3744.988,3507.664,3744.988,3507.664Z" transform="translate(-3732.566 -3507.664)"/></g><g transform="translate(158.54 255.788)"><path class="p" d="M4090.142,3437.658l24.31,12.965s4.322,6.483,1.621,11.885a23.539,23.539,0,0,1-6.483,8.1l-27.011-7.023s4.322-2.161,7.563-11.345S4090.142,3437.658,4090.142,3437.658Z" transform="translate(-4082.579 -3437.658)"/></g><g transform="translate(147.194 115.794)"><path class="q" d="M4063.241,2791.76l-3.983-19.706-12.7-6.009-16.27-.291a1.279,1.279,0,0,0-1.169,1.846h0a5.557,5.557,0,0,0,4.995,3.091l7.359-.02,7.992,2.542-11.974,1.6-7.544,4.654a3.839,3.839,0,0,0-1.388,5.043l1.819,3.487.642,5.57,2.78,3.057a6.555,6.555,0,0,0,5.829,2.07l1.979-.3,4.343,6.333c2.891,2.158,8.829,5.864,12.289,4.844h0a9.309,9.309,0,0,0,6.281-11.609Z" transform="translate(-4028.126 -2765.754)"/></g><g transform="translate(103.88 118.715)"><path class="p" d="M3824.658,2805.019l9.62-12.226,8.425-7.151a8.777,8.777,0,0,1,2-1.279l9.954-4.591.022.18a9.588,9.588,0,0,1-4.272,8.884l-6.338,4.355,14.746-2.8,11.322-5.63a5.281,5.281,0,0,1,5.835.19h0a6.959,6.959,0,0,1,2.705,5.71l-.078,4.746a11.912,11.912,0,0,1-4.13,8.62l-10.868,9.6a12.119,12.119,0,0,1-4.158,2.408l-30.031,8.814a6.279,6.279,0,0,1-6.824-2.3h0a12.064,12.064,0,0,1-.4-13.731Z" transform="translate(-3820.239 -2779.773)"/><g transform="translate(29.463 6.28)"><path class="o" d="M3962.04,2822.948a.393.393,0,0,1-.091-.776l8.683-2.082a17.9,17.9,0,0,0,5.367-2.22l11.36-7.887a.393.393,0,1,1,.448.646l-11.376,7.9a18.723,18.723,0,0,1-5.618,2.327l-8.68,2.082A.393.393,0,0,1,3962.04,2822.948Z" transform="translate(-3961.647 -2809.912)"/></g><g transform="translate(31.597 11.99)"><path class="o" d="M3972.284,2851.538a.393.393,0,0,1-.108-.771l7.553-2.168a17.927,17.927,0,0,0,4.525-2.043l12.489-9.161a.393.393,0,1,1,.466.634l-12.511,9.177a18.755,18.755,0,0,1-4.749,2.149l-7.555,2.168A.383.383,0,0,1,3972.284,2851.538Z" transform="translate(-3971.891 -2837.319)"/></g><g transform="translate(33.346 16.952)"><path class="o" d="M3980.677,2876.711a.393.393,0,0,1-.128-.765l7.148-2.456a17.89,17.89,0,0,0,5.443-3.1l11.058-9.171a.393.393,0,0,1,.5.606L3993.643,2871a18.678,18.678,0,0,1-5.686,3.233l-7.153,2.457A.388.388,0,0,1,3980.677,2876.711Z" transform="translate(-3980.283 -2861.133)"/></g></g><g transform="translate(108.133 58.85)"><path class="p" d="M3848.048,2492.45l-6.257,16.292a17.187,17.187,0,0,0-1.046,7.976h0a16.26,16.26,0,0,0,17.54,14.486h0a9.233,9.233,0,0,0,7.534-5.181l12.339-25.514Z" transform="translate(-3840.649 -2492.45)"/></g><g transform="translate(43.078 244.591)"><path class="b" d="M3620.651,3422.517a.375.375,0,0,1-.075-.008c-25.152-4.817-91.274-37.52-91.939-37.85a.393.393,0,1,1,.349-.7c.664.329,66.691,32.986,91.738,37.782a.394.394,0,0,1-.073.78Z" transform="translate(-3528.418 -3383.914)"/></g><g transform="translate(90.078 213.798)"><path class="b" d="M3827.318,3276.886a.4.4,0,0,1-.189-.048l-72.931-39.977a.394.394,0,0,1,.378-.69l72.931,39.977a.394.394,0,0,1-.19.739Z" transform="translate(-3753.994 -3236.123)"/></g><g transform="translate(141.399 218.119)"><path class="b" d="M4000.707,3278.721a.393.393,0,0,1-.169-.749l44.3-21.069a.393.393,0,1,1,.338.711l-44.3,21.069A.385.385,0,0,1,4000.707,3278.721Z" transform="translate(-4000.313 -3256.865)"/></g><g transform="translate(124.112 214.878)"><path class="b" d="M3917.736,3250.738a.393.393,0,0,1-.132-.764c7.451-2.661,18.745-8.563,18.858-8.622a.393.393,0,1,1,.365.7c-.114.06-11.456,5.987-18.959,8.666A.39.39,0,0,1,3917.736,3250.738Z" transform="translate(-3917.342 -3241.307)"/></g><g transform="translate(24.17 143.027)"><path class="o" d="M3438.063,2911.294a.393.393,0,0,1-.081-.778c.384-.081,38.611-8.1,59.436-11.887l11.955-2.168h8.1a.393.393,0,1,1,0,.787h-8.068l-11.85,2.155c-20.814,3.784-59.031,11.8-59.414,11.883A.405.405,0,0,1,3438.063,2911.294Z" transform="translate(-3437.67 -2896.461)"/></g><g transform="translate(57.124 165.718)"><path class="o" d="M3596.226,3032.62a.393.393,0,0,1-.093-.775c19.134-4.654,45.059-17.416,46.824-18.291l5.344-8.016a.393.393,0,0,1,.655.436l-5.46,8.19-.094.047c-.27.135-27.28,13.581-47.083,18.4A.38.38,0,0,1,3596.226,3032.62Z" transform="translate(-3595.833 -3005.362)"/></g><g transform="translate(54.423 127.902)"><path class="o" d="M3583.261,2847.341a.393.393,0,0,1-.309-.636l17.828-22.689a.393.393,0,0,1,.619.486l-17.828,22.689A.392.392,0,0,1,3583.261,2847.341Z" transform="translate(-3582.868 -2823.865)"/></g><g transform="translate(184.617 145.189)"><path class="o" d="M4237.844,2917.345a.391.391,0,0,1-.214-.064,83.384,83.384,0,0,0-20.369-9.66h-9.129a.393.393,0,1,1,0-.787l9.29.014a83.832,83.832,0,0,1,20.638,9.773.393.393,0,0,1-.215.723Z" transform="translate(-4207.738 -2906.834)"/></g><g transform="translate(168.951 159.234)"><path class="o" d="M4134.561,2984.758a.393.393,0,0,1-.387-.329l-1.621-9.724a.393.393,0,1,1,.775-.13l1.621,9.724a.395.395,0,0,1-.389.458Z" transform="translate(-4132.548 -2974.247)"/></g><g transform="translate(102.313)"><g transform="translate(50.868 31.245)"><path class="o" d="M4068.95,2382.853a36.7,36.7,0,0,0,3.055-8.262l1.168-4.16a14.011,14.011,0,0,0,.768-5.009,6.234,6.234,0,0,0-2.629-4.6,5.06,5.06,0,0,0-5.194-.271,9.08,9.08,0,0,0-2.817,3.089l-3.269,4.949a19.784,19.784,0,0,0-2.752,5.246c-.9,3.11-.224,6.454.756,9.541a9.407,9.407,0,0,0,1.746,3.515C4063.133,2390.638,4067.283,2385.8,4068.95,2382.853Z" transform="translate(-4056.86 -2359.96)"/></g><g transform="translate(0 17.382)"><path class="p" d="M3877.377,2302.3c-1.995-4.223-6.65-6.5-11.17-7.657a40.222,40.222,0,0,0-27.143,2.707,22.272,22.272,0,0,0-7.875,5.846c-3.994,4.979-4.547,11.909-7.5,17.536a5.474,5.474,0,0,0-2.3-.876,7.088,7.088,0,0,0-5.99,2.391,10.982,10.982,0,0,0-2.586,6.079,10,10,0,0,0,1.7,7.4c2.209,2.809,6.056,3.606,9.575,4.215-1.485,6.319.745,13.1,4.279,18.343a27.028,27.028,0,0,0,17.648,11.483c6.616,1.3,12.539-1.364,16.445-6.775,3.428-4.748,4.92-10.585,6.342-16.268l9.219-36.848A11.633,11.633,0,0,0,3877.377,2302.3Z" transform="translate(-3812.717 -2293.424)"/></g><g transform="translate(27.343 46.067)"><path class="o" d="M3947.377,2431.215a9.429,9.429,0,0,0-2.287-.072c-.676.092-1.192.375-1.135.782.075.541,1.075,1.1,2.053,1.487a33.772,33.772,0,0,0,7.455,1.794,7.191,7.191,0,0,0,3.319,0c.646-.282.651-.873.077-1.4a4.787,4.787,0,0,0-1.7-.759A40.115,40.115,0,0,0,3947.377,2431.215Z" transform="translate(-3943.95 -2431.099)"/></g><g transform="translate(46.656 48.802)"><path class="o" d="M4047.076,2446.246a8.987,8.987,0,0,1,2.068.993c.558.4.886.908.646,1.268-.318.478-1.465.54-2.517.456a31.935,31.935,0,0,1-7.463-1.759,6.877,6.877,0,0,1-2.95-1.542c-.444-.567-.174-1.13.581-1.362a4.556,4.556,0,0,1,1.866.07A37.928,37.928,0,0,1,4047.076,2446.246Z" transform="translate(-4036.645 -2444.223)"/></g><g transform="translate(29.128 53.648)"><ellipse class="o" cx="2.266" cy="1.359" rx="2.266" ry="1.359" transform="translate(0 4.408) rotate(-76.598)"/></g><g transform="translate(48.128 58.351)"><ellipse class="o" cx="2.266" cy="1.359" rx="2.266" ry="1.359" transform="translate(0 4.408) rotate(-76.598)"/></g><g transform="translate(29.36 69.69)"><path d="M3962.787,2552.647a.441.441,0,0,1-.081-.008,12.366,12.366,0,0,1-9.045-7.574.433.433,0,1,1,.808-.309,11.484,11.484,0,0,0,8.4,7.033.433.433,0,0,1-.081.857Z" transform="translate(-3953.632 -2544.478)"/></g><g transform="translate(10.377 67.795)"><path d="M3882.321,2560.6a.423.423,0,0,1-.1-.011,25.4,25.4,0,0,1-19.7-24.773.433.433,0,0,1,.433-.433h0a.432.432,0,0,1,.433.433,24.537,24.537,0,0,0,19.032,23.93.433.433,0,0,1-.1.854Z" transform="translate(-3862.523 -2535.381)"/></g><g transform="translate(1.152)"><path class="o" d="M3827.7,2258.89a1.347,1.347,0,0,0,.647-.255c2.2-1.563,4.058-4.381,5.792-6.436,1.939-2.3,5.042-2.5,6.991-4.794.971-1.142.748-4.406,1.759-5.513.437-.479,2.211-2.938,2.828-2.938,7.748.76,14.357,4.142,21.866,6.19,3.752,1.023,8.153.972,12.292,1.672,1.816.307,3.929,1.473,5.31.1a24.825,24.825,0,0,0,3.2-3.8,13.42,13.42,0,0,0,2.112-4.991c.832-4.568-1.262-9.106-3.3-13.278-1.585-3.246-5.2-7.447-8.45-9.018-3.043-1.47-6.729-.941-9.845-2.252-2.314-.974-4.207-2.923-6.664-3.439-2.679-.563-5.354.694-7.929,1.622a34.7,34.7,0,0,1-12.87,2.03,57.661,57.661,0,0,0-7.41-.192,9.227,9.227,0,0,0-6.51,3.108c-1.837,2.367-1.8,5.651-2.856,8.456-1.144,3.042-3.539,5.431-5.113,8.274-1.838,3.319-.338,7.632-.973,11.372a10.822,10.822,0,0,0-.054,5.039c.692,2.2,2.678,3.7,4.551,5.041,1.3.932.432,1.372,1.73,2.3C3825.7,2257.83,3826.69,2259,3827.7,2258.89Z" transform="translate(-3818.246 -2210)"/></g><g transform="translate(39.356 54.887)"><path class="p" d="M4006.1,2476.24a7.053,7.053,0,0,0,.792,1.757,19.012,19.012,0,0,1,1.843,4.871,2.373,2.373,0,0,1,.054,1.174,2.255,2.255,0,0,1-1.08,1.175,16.767,16.767,0,0,1-4.586,1.7,1.422,1.422,0,0,1-1.2-.051,1.164,1.164,0,0,1-.282-1.154c.3-1.916,1.255-3.677,1.6-5.586.283-1.566.149-3.193.461-4.753a2.978,2.978,0,0,1,.589-1.393,1.487,1.487,0,0,1,1.422-.515.894.894,0,0,1,.706,1.115A2.421,2.421,0,0,0,4006.1,2476.24Z" transform="translate(-4001.609 -2473.431)"/></g><g transform="translate(40.18 54.53)"><path d="M4005.993,2486.5a.433.433,0,0,1-.177-.828l4.491-2.015a2.221,2.221,0,0,0,1.164-2.82l-2.336-6.092a3.048,3.048,0,0,1,.356-2.852.433.433,0,1,1,.707.5,2.182,2.182,0,0,0-.255,2.043l2.336,6.092a3.088,3.088,0,0,1-1.618,3.92l-4.491,2.015A.435.435,0,0,1,4005.993,2486.5Z" transform="translate(-4005.56 -2471.715)"/></g><g transform="translate(4.127 43.845)"><path class="p" d="M3840.147,2421.263a4.831,4.831,0,0,1,2.274,1.594,4.781,4.781,0,0,1,.638,3.157,5,5,0,0,1-1.148,3.039,4.434,4.434,0,0,1-2.7,1.242,6.822,6.822,0,0,1-4.994-1.376,3.421,3.421,0,0,1-1.353-1.931,4.551,4.551,0,0,1,.439-2.451c.322-.849-1.049-2.021-.727-2.87.208-.549,2.064-.965,2.708-1.117A9.138,9.138,0,0,1,3840.147,2421.263Z" transform="translate(-3832.524 -2420.434)"/></g><g transform="translate(5.538 49.815)"><path d="M3839.731,2455.055a.426.426,0,0,1-.115-.016.432.432,0,0,1-.3-.532,7.8,7.8,0,0,1,5.516-5.406.433.433,0,1,1,.212.839,6.916,6.916,0,0,0-4.894,4.8A.433.433,0,0,1,3839.731,2455.055Z" transform="translate(-3839.298 -2449.089)"/></g></g><g transform="translate(102.25 83.603)"><path class="o" d="M3834.134,2633.67a21.709,21.709,0,0,1-10.341-2.56,22.3,22.3,0,0,1-11.375-19.471.393.393,0,0,1,.393-.387h.006a.392.392,0,0,1,.387.4,20.991,20.991,0,0,0,32.678,17.759.393.393,0,0,1,.438.653A21.974,21.974,0,0,1,3834.134,2633.67Z" transform="translate(-3812.415 -2611.252)"/></g><g transform="translate(25.113 202.1)"><path class="b" d="M3442.587,3193.928a.386.386,0,0,1-.186-.047.393.393,0,0,1-.16-.533,85.469,85.469,0,0,1,8.788-13.222.393.393,0,1,1,.612.495,84.744,84.744,0,0,0-8.708,13.1A.394.394,0,0,1,3442.587,3193.928Z" transform="translate(-3442.194 -3179.981)"/></g><g transform="translate(224.32 201.675)"><path class="b" d="M4408.006,3182.084a.392.392,0,0,1-.133-.024l-9.323-3.357a.393.393,0,1,1,.267-.74l9.323,3.357a.393.393,0,0,1-.133.763Z" transform="translate(-4398.29 -3177.94)"/></g><g transform="translate(54.172 277.608)"><path class="b" d="M3582.388,3554.58a.461.461,0,0,1-.461-.447l-.262-8.654a.461.461,0,0,1,.416-.472l26.748-2.622a.461.461,0,0,1,.09.917l-26.319,2.58.235,7.758,26.283-1.031a.476.476,0,0,1,.479.443.461.461,0,0,1-.443.479l-26.748,1.049Z" transform="translate(-3581.665 -3542.382)"/></g><g transform="translate(26.667 276.646)"><path class="b" d="M3452.34,3557.019a.461.461,0,0,1-.4-.228,17.612,17.612,0,0,1,.942-18.839.461.461,0,0,1,.744.544,16.669,16.669,0,0,0-.892,17.828.461.461,0,0,1-.4.695Z" transform="translate(-3449.656 -3537.764)"/></g><g transform="translate(198.399 271.315)"><path class="b" d="M4292.636,3523.389c-6.591,0-14.125-.065-17.8-.327a.461.461,0,1,1,.066-.92c6.655.476,26.115.3,29.388.266l-.238-8.793-29.716-.517a.461.461,0,0,1,.008-.922h.008l30.156.524a.461.461,0,0,1,.452.448l.262,9.7a.461.461,0,0,1-.455.474C4304.658,3523.326,4299.1,3523.389,4292.636,3523.389Z" transform="translate(-4273.884 -3512.176)"/></g><g transform="translate(247.761 271.009)"><path class="b" d="M4511.432,3526.343a.461.461,0,0,1-.384-.716,12.858,12.858,0,0,0-.167-14.192.461.461,0,1,1,.755-.528,13.8,13.8,0,0,1,.181,15.231A.461.461,0,0,1,4511.432,3526.343Z" transform="translate(-4510.797 -3510.71)"/></g></g><g class="r" transform="translate(250.71 938.716)"><ellipse class="s" cx="296.249" cy="8.37" rx="296.249" ry="8.37" transform="translate(0 0)"/></g></g></g></svg>