<svg xmlns="http://www.w3.org/2000/svg" width="525.96" height="432.268" viewBox="0 0 525.96 432.268"><defs><style>.a{fill:none;stroke:#fdc644;}.b,.d{fill:#0a3228;font-size:22px;}.b{font-family:Gotham-Book, Gotham;}.c{fill:#fdc644;}.d{font-family:GothamMedium, Gotham;}</style></defs><g transform="translate(0.5 0.577)"><line class="a" y2="403" transform="translate(25.96 6.5)"/><g transform="translate(-1104.54 -486)"><text class="b" transform="translate(1193 511)"><tspan x="0" y="0">If you want to join as a creator on Chilli </tspan><tspan x="0" y="27">Swap, let up and verify your profile.</tspan></text><g transform="translate(0 -0.06)"><g transform="translate(1104.54 486.06)"><path class="c" d="M-445.468,399.391l23-13.28,23,13.28v26.561l-23,13.281-23-13.281Z" transform="translate(448.929 -382.116)"/><path class="a" d="M-445.468,401.389l26.463-15.278,26.463,15.278v30.556l-26.463,15.279-26.463-15.279Z" transform="translate(445.468 -386.111)"/></g><text class="d" transform="translate(1131.004 524.616)"><tspan x="-12.265" y="0">01</tspan></text></g></g><g transform="translate(-1104.54 -482)"><text class="b" transform="translate(1193 595)"><tspan x="0" y="0">Add your name to Community Upvote</tspan></text><g transform="translate(0 69.94)"><path class="c" d="M-445.468,399.391l23-13.28,23,13.28v26.561l-23,13.281-23-13.281Z" transform="translate(1553.469 103.944)"/><text class="d" transform="translate(1130.004 524.616)"><tspan x="-14.597" y="0">02</tspan></text><path class="a" d="M-445.468,401.389l26.463-15.278,26.463,15.278v30.556l-26.463,15.279-26.463-15.279Z" transform="translate(1550.008 99.949)"/></g></g><g transform="translate(-1104.54 -478)"><text class="b" transform="translate(1193 665)"><tspan x="0" y="0">If you are a verified community member</tspan></text><g transform="translate(0 139.94)"><path class="c" d="M-445.468,399.391l23-13.28,23,13.28v26.561l-23,13.281-23-13.281Z" transform="translate(1553.469 103.944)"/><text class="d" transform="translate(1131.004 524.616)"><tspan x="-14.652" y="0">03</tspan></text><path class="a" d="M-445.468,401.389l26.463-15.278,26.463,15.278v30.556l-26.463,15.279-26.463-15.279Z" transform="translate(1550.008 99.949)"/></g></g><g transform="translate(-1104.54 -474)"><text class="b" transform="translate(1193 735)"><tspan x="0" y="0">Login to your account</tspan></text><g transform="translate(0 209.94)"><path class="c" d="M-445.468,399.391l23-13.28,23,13.28v26.561l-23,13.281-23-13.281Z" transform="translate(1553.469 103.944)"/><text class="d" transform="translate(1131.004 524.616)"><tspan x="-15.466" y="0">04</tspan></text><path class="a" d="M-445.468,401.389l26.463-15.278,26.463,15.278v30.556l-26.463,15.279-26.463-15.279Z" transform="translate(1550.008 99.949)"/></g></g><g transform="translate(-1104.54 -470)"><text class="b" transform="translate(1193 805)"><tspan x="0" y="0">Review the creator list</tspan></text><g transform="translate(0 279.94)"><path class="c" d="M-445.468,399.391l23-13.28,23,13.28v26.561l-23,13.281-23-13.281Z" transform="translate(1553.469 103.944)"/><text class="d" transform="translate(1131.004 524.616)"><tspan x="-14.817" y="0">05</tspan></text><path class="a" d="M-445.468,401.389l26.463-15.278,26.463,15.278v30.556l-26.463,15.279-26.463-15.279Z" transform="translate(1550.008 99.949)"/></g></g><g transform="translate(-1104.54 -466)"><text class="b" transform="translate(1193 841)"><tspan x="0" y="20">Raise up the artists whose work you’d </tspan><tspan x="0" y="47">like to support on Chilli Swap.</tspan></text><g transform="translate(0 349.94)"><path class="c" d="M-445.468,399.391l23-13.28,23,13.28v26.561l-23,13.281-23-13.281Z" transform="translate(1553.469 103.944)"/><text class="d" transform="translate(1131.004 524.616)"><tspan x="-15.18" y="0">06</tspan></text><path class="a" d="M-445.468,401.389l26.463-15.278,26.463,15.278v30.556l-26.463,15.279-26.463-15.279Z" transform="translate(1550.008 99.949)"/></g></g></g></svg>