<svg xmlns="http://www.w3.org/2000/svg" width="29.186" height="29.186" viewBox="0 0 29.186 29.186"><defs><style>.a{fill:#093127;}</style></defs><g transform="translate(0)"><path class="a" d="M35.106,275.985h5.837a.974.974,0,0,0,.973-.973v-.973a.974.974,0,0,0-.973-.973H35.106a.974.974,0,0,0-.973.973v.973A.974.974,0,0,0,35.106,275.985Zm0-1.946h5.837v.973H35.106Zm0,0" transform="translate(-32.187 -257.501)"/><path class="a" d="M34.619,393.508h6.81a.486.486,0,1,0,0-.973h-6.81a.486.486,0,1,0,0,.973Zm0,0" transform="translate(-32.187 -370.159)"/><path class="a" d="M34.619,427.64h10.7a.486.486,0,1,0,0-.973h-10.7a.486.486,0,1,0,0,.973Zm0,0" transform="translate(-32.187 -402.346)"/><path class="a" d="M34.619,461.773h3.891a.486.486,0,1,0,0-.973H34.619a.486.486,0,1,0,0,.973Zm0,0" transform="translate(-32.187 -434.533)"/><path class="a" d="M222.84,139.453h.973a.974.974,0,0,0,.973-.973v-.973a.974.974,0,0,0-.973-.973h-.973a.974.974,0,0,0-.973.973v.973A.974.974,0,0,0,222.84,139.453Zm0-1.946h.973v.973h-.974Zm0,0" transform="translate(-209.22 -128.752)"/><path class="a" d="M222.84,71.184h.973a.974.974,0,0,0,.973-.973v-.973a.974.974,0,0,0-.973-.973h-.973a.974.974,0,0,0-.973.973v.973A.974.974,0,0,0,222.84,71.184Zm0-1.946h.973v.973h-.974Zm0,0" transform="translate(-209.22 -64.374)"/><path class="a" d="M222.84,2.919h.973a.974.974,0,0,0,.973-.973V.973A.974.974,0,0,0,223.813,0h-.973a.974.974,0,0,0-.973.973v.973a.974.974,0,0,0,.973.973Zm0-1.946h.973v.973h-.974Zm0,0" transform="translate(-209.22)"/><path class="a" d="M291.105,71.184h.973a.974.974,0,0,0,.973-.973v-.973a.974.974,0,0,0-.973-.973h-.973a.974.974,0,0,0-.973.973v.973A.974.974,0,0,0,291.105,71.184Zm0-1.946h.973v.973h-.974Zm0,0" transform="translate(-273.594 -64.374)"/><path class="a" d="M359.372,139.453h.973a.974.974,0,0,0,.973-.973v-.973a.974.974,0,0,0-.973-.973h-.973a.974.974,0,0,0-.973.973v.973A.974.974,0,0,0,359.372,139.453Zm0-1.946h.973v.973h-.974Zm0,0" transform="translate(-337.968 -128.752)"/><path class="a" d="M359.372,2.919h.973a.974.974,0,0,0,.973-.973V.973A.974.974,0,0,0,360.345,0h-.973a.974.974,0,0,0-.973.973v.973a.974.974,0,0,0,.973.973Zm0-1.946h.973v.973h-.974Zm0,0" transform="translate(-337.968)"/><path class="a" d="M222.84,275.985h.973a.974.974,0,0,0,.973-.973v-.973a.974.974,0,0,0-.973-.973h-.973a.974.974,0,0,0-.973.973v.973A.974.974,0,0,0,222.84,275.985Zm0-1.946h.973v.973h-.974Zm0,0" transform="translate(-209.22 -257.501)"/><path class="a" d="M359.372,275.985h.973a.974.974,0,0,0,.973-.973v-.973a.974.974,0,0,0-.973-.973h-.973a.974.974,0,0,0-.973.973v.973A.974.974,0,0,0,359.372,275.985Zm0-1.946h.973v.973h-.974Zm0,0" transform="translate(-337.968 -257.501)"/><path class="a" d="M291.105,344.251h.973a.974.974,0,0,0,.973-.973V342.3a.974.974,0,0,0-.973-.973h-.973a.974.974,0,0,0-.973.973v.973A.974.974,0,0,0,291.105,344.251Zm0-1.946h.973v.973h-.974Zm0,0" transform="translate(-273.594 -321.874)"/><path class="a" d="M359.372,412.52h.973a.974.974,0,0,0,.973-.973v-.973a.974.974,0,0,0-.973-.973h-.973a.974.974,0,0,0-.973.973v.973A.974.974,0,0,0,359.372,412.52Zm0-1.946h.973v.973h-.974Zm0,0" transform="translate(-337.968 -386.253)"/><path class="a" d="M427.64,71.184h.973a.974.974,0,0,0,.973-.973v-.973a.974.974,0,0,0-.973-.973h-.973a.974.974,0,0,0-.973.973v.973A.974.974,0,0,0,427.64,71.184Zm0-1.946h.973v.973h-.974Zm0,0" transform="translate(-402.345 -64.374)"/><path class="a" d="M427.64,344.251h.973a.974.974,0,0,0,.973-.973V342.3a.974.974,0,0,0-.973-.973h-.973a.974.974,0,0,0-.973.973v.973A.974.974,0,0,0,427.64,344.251Zm0-1.946h.973v.973h-.974Zm0,0" transform="translate(-402.345 -321.874)"/><path class="a" d="M427.64,2.919h.973a.974.974,0,0,0,.973-.973V.973A.974.974,0,0,0,428.613,0h-.973a.974.974,0,0,0-.973.973v.973a.974.974,0,0,0,.973.973Zm0-1.946h.973v.973h-.974Zm0,0" transform="translate(-402.345)"/><path class="a" d="M1.46,206.218H27.727a1.461,1.461,0,0,0,1.459-1.459v-13.62a1.461,1.461,0,0,0-1.459-1.459h-.486a.974.974,0,0,0-.973-.973H25.3a.974.974,0,0,0-.973.973H19.458a.974.974,0,0,0-.973-.973h-.973a.974.974,0,0,0-.973.973h-.973a.974.974,0,0,0-.973-.973H13.62a.974.974,0,0,0-.973.973h-.855a.967.967,0,0,1-.688-.285L10.014,188.3a1.932,1.932,0,0,0-1.376-.57h-5.6a1.932,1.932,0,0,0-1.376.57L.57,189.394A1.932,1.932,0,0,0,0,190.77v13.989a1.461,1.461,0,0,0,1.459,1.459ZM25.3,189.68h.973v.973H25.3Zm-7.783,0h.973v.973h-.973Zm-3.891,0h.973v.973H13.62ZM.973,190.77a.967.967,0,0,1,.285-.688l1.091-1.091a.967.967,0,0,1,.688-.285h5.6a.967.967,0,0,1,.688.285l1.091,1.091a1.933,1.933,0,0,0,1.376.57h.855a.974.974,0,0,0,.973.973h.973a.974.974,0,0,0,.973-.973h.973a.974.974,0,0,0,.973.973h.973a.974.974,0,0,0,.973-.973h4.865a.974.974,0,0,0,.973.973h.973a.974.974,0,0,0,.973-.973h.486a.487.487,0,0,1,.487.486v13.62a.487.487,0,0,1-.487.487H1.46a.487.487,0,0,1-.487-.487Zm0,0" transform="translate(0 -177.032)"/></g></svg>