<svg xmlns="http://www.w3.org/2000/svg" width="29.665" height="29.664" viewBox="0 0 29.665 29.664"><defs><style>.a{fill:#093127;}</style></defs><g transform="translate(0 -0.001)"><g transform="translate(5.835 9.933)"><path class="a" d="M101.694,171.589a.579.579,0,1,0,0,.819A.58.58,0,0,0,101.694,171.589Z" transform="translate(-100.704 -171.42)"/></g><g transform="translate(0 22.712)"><path class="a" d="M14.67,395.216a2.028,2.028,0,0,0-1.634-3.229H3.187a2.026,2.026,0,0,0-1.633,3.228A2.9,2.9,0,0,0,0,397.781v.579a.579.579,0,0,0,.579.579H15.643a.579.579,0,0,0,.579-.579v-.579A2.9,2.9,0,0,0,14.67,395.216ZM2.572,393.4a.863.863,0,0,1,.615-.254h9.849a.869.869,0,1,1,0,1.738H3.187a.869.869,0,0,1-.615-1.484Zm-1.413,4.381A1.74,1.74,0,0,1,2.9,396.043H13.325a1.74,1.74,0,0,1,1.738,1.738Z" transform="translate(0 -391.987)"/></g><g transform="translate(0.001 0.001)"><g transform="translate(0 0)"><path class="a" d="M29.145,24.342a3.648,3.648,0,0,0-.7-.8L25.74,21.18a.575.575,0,0,0-.231-.2l-1.637-1.428-7.578-6.61a1.735,1.735,0,0,0-.509-2.767l.7-.7a2.319,2.319,0,0,0,2.237-.6,2.317,2.317,0,0,0,0-3.278L13.808.68A2.317,2.317,0,0,0,9.932,2.917L2.937,9.912a2.332,2.332,0,0,0-.6-.079A2.317,2.317,0,0,0,.7,13.789l4.916,4.916a2.317,2.317,0,0,0,3.877-2.237l.7-.7a1.739,1.739,0,0,0,2.768.508L21.03,25.55a.582.582,0,0,0,.079.1c.01.01.021.02.032.029l2.405,2.763c.06.071.124.14.19.206a3.446,3.446,0,0,0,2.449,1.019,3.556,3.556,0,0,0,.488-.034,3.506,3.506,0,0,0,2.587-1.791A3.428,3.428,0,0,0,29.145,24.342ZM11.35,1.5a1.158,1.158,0,0,1,1.639,0L17.9,6.415a1.159,1.159,0,0,1-1.638,1.639L11.35,3.138h0A1.16,1.16,0,0,1,11.35,1.5ZM8.073,17.886a1.16,1.16,0,0,1-1.639,0L1.518,12.97a1.159,1.159,0,0,1,1.638-1.639l4.917,4.917A1.16,1.16,0,0,1,8.073,17.886Zm2.439-4.078-1.62,1.62L3.976,10.512l6.555-6.555,4.916,4.916L13.824,10.5l-.016.015-3.276,3.276Zm2.069,1.209,0,0-.408.408a.579.579,0,0,1-.827-.812l3.291-3.291a.579.579,0,0,1,.983.416.574.574,0,0,1-.17.41l-.406.406-.008.008Zm1.2.439,1.693-1.693,7.169,6.254-2.616,2.616Zm7.009,8.053,2.729-2.729.875.763-2.842,2.842Zm7.459,3.766a2.357,2.357,0,0,1-1.734,1.209,2.3,2.3,0,0,1-1.959-.657c-.045-.044-.087-.091-.127-.138l-.006-.007-2.108-2.422,2.954-2.954,2.419,2.11.006,0a2.494,2.494,0,0,1,.478.55A2.288,2.288,0,0,1,28.248,27.275Z" transform="translate(-0.021 -0.001)"/></g></g><g transform="translate(7.473 5.836)"><path class="a" d="M132.433,100.877a.579.579,0,0,0-.819,0l-2.458,2.458a.579.579,0,0,0,.819.819l2.458-2.458A.579.579,0,0,0,132.433,100.877Z" transform="translate(-128.985 -100.707)"/></g></g></svg>