<svg xmlns="http://www.w3.org/2000/svg" width="35.382" height="35.381" viewBox="0 0 35.382 35.381"><defs><style>.a{fill:#337fff;}.b{fill:#fff;}</style></defs><g transform="translate(-361.318 -96.173)"><path class="a" d="M396.7,113.864a17.691,17.691,0,1,0-20.455,17.475V118.977h-4.492v-5.113h4.492v-3.9c0-4.434,2.641-6.883,6.682-6.883a27.158,27.158,0,0,1,3.96.346v4.353h-2.231a2.557,2.557,0,0,0-2.883,2.763v3.319h4.907l-.785,5.113h-4.122v12.362A17.694,17.694,0,0,0,396.7,113.864Z"/><path class="b" d="M385.895,118.977l.785-5.113h-4.907v-3.319a2.557,2.557,0,0,1,2.883-2.763h2.231v-4.353a27.158,27.158,0,0,0-3.96-.346c-4.041,0-6.682,2.449-6.682,6.883v3.9h-4.492v5.113h4.492v12.362a17.875,17.875,0,0,0,5.528,0V118.977Z"/></g></svg>