<svg xmlns="http://www.w3.org/2000/svg" width="30.374" height="30.374" viewBox="0 0 30.374 30.374"><defs><style>.a{fill:#c9c9c9;}</style></defs><path class="a" d="M27.333,33.72H25.187a.8.8,0,0,0-.8.8v9.781a.943.943,0,0,1-.942.942H4.7a.942.942,0,0,1-.941-.942V25.561a.943.943,0,0,1,.941-.942H14.978a.8.8,0,0,0,.8-.8V21.669a.8.8,0,0,0-.8-.8H4.7a4.7,4.7,0,0,0-4.7,4.7V44.305A4.7,4.7,0,0,0,4.7,49H23.441a4.7,4.7,0,0,0,4.7-4.7V34.525A.8.8,0,0,0,27.333,33.72Z" transform="translate(-0.001 -18.627)"/><path class="a" d="M135.347,0h-8.533a.8.8,0,0,0-.8.8V2.95a.8.8,0,0,0,.8.8h2.929l-11.021,11.02a.8.8,0,0,0,0,1.138l1.517,1.517a.8.8,0,0,0,1.138,0L132.4,6.409V9.337a.8.8,0,0,0,.8.8h2.145a.8.8,0,0,0,.8-.8V.8A.8.8,0,0,0,135.347,0Z" transform="translate(-105.777)"/></svg>