<svg xmlns="http://www.w3.org/2000/svg" width="329" height="397" viewBox="0 0 329 397"><defs><style>.a{fill:#fdc644;}.b{fill:#0a3228;}</style></defs><circle class="a" cx="127.5" cy="127.5" r="127.5" transform="translate(74)"/><ellipse class="b" cx="5" cy="5.5" rx="5" ry="5.5" transform="translate(0 200)"/><ellipse class="b" cx="5" cy="5.5" rx="5" ry="5.5" transform="translate(64 200)"/><circle class="b" cx="5.5" cy="5.5" r="5.5" transform="translate(128 200)"/><circle class="b" cx="5.5" cy="5.5" r="5.5" transform="translate(192 200)"/><ellipse class="b" cx="5" cy="5.5" rx="5" ry="5.5" transform="translate(0 262)"/><ellipse class="b" cx="5" cy="5.5" rx="5" ry="5.5" transform="translate(64 262)"/><circle class="b" cx="5.5" cy="5.5" r="5.5" transform="translate(128 262)"/><circle class="b" cx="5.5" cy="5.5" r="5.5" transform="translate(192 262)"/><circle class="b" cx="5" cy="5" r="5" transform="translate(0 325)"/><circle class="b" cx="5" cy="5" r="5" transform="translate(64 325)"/><ellipse class="b" cx="5.5" cy="5" rx="5.5" ry="5" transform="translate(128 325)"/><ellipse class="b" cx="5.5" cy="5" rx="5.5" ry="5" transform="translate(192 325)"/><circle class="b" cx="5" cy="5" r="5" transform="translate(0 387)"/><circle class="b" cx="5" cy="5" r="5" transform="translate(64 387)"/><ellipse class="b" cx="5.5" cy="5" rx="5.5" ry="5" transform="translate(128 387)"/><ellipse class="b" cx="5.5" cy="5" rx="5.5" ry="5" transform="translate(192 387)"/></svg>