<svg xmlns="http://www.w3.org/2000/svg" width="463.537" height="316.843" viewBox="0 0 463.537 316.843"><defs><style>.a{fill:#0a3228;}.b{fill:#fdc644;}</style></defs><ellipse class="a" cx="2.342" cy="2.342" rx="2.342" ry="2.342" transform="translate(458.854 0)"/><g transform="translate(441.59 0)"><ellipse class="a" cx="2.342" cy="2.342" rx="2.342" ry="2.342"/></g><g transform="translate(424.326 0)"><ellipse class="a" cx="2.342" cy="2.342" rx="2.342" ry="2.342"/></g><g transform="translate(407.061 0)"><ellipse class="a" cx="2.342" cy="2.342" rx="2.342" ry="2.342"/></g><g transform="translate(389.798 0)"><ellipse class="a" cx="2.342" cy="2.342" rx="2.342" ry="2.342"/></g><g transform="translate(372.533 0)"><ellipse class="a" cx="2.342" cy="2.342" rx="2.342" ry="2.342"/></g><g transform="translate(355.269 0)"><ellipse class="a" cx="2.342" cy="2.342" rx="2.342" ry="2.342"/></g><g transform="translate(338.005 0)"><ellipse class="a" cx="2.342" cy="2.342" rx="2.342" ry="2.342"/></g><g transform="translate(320.741 0)"><ellipse class="a" cx="2.342" cy="2.342" rx="2.342" ry="2.342"/></g><g transform="translate(303.477 0)"><ellipse class="a" cx="2.342" cy="2.342" rx="2.342" ry="2.342"/></g><ellipse class="a" cx="2.342" cy="2.342" rx="2.342" ry="2.342" transform="translate(458.854 15.53)"/><g transform="translate(441.59 15.53)"><g transform="translate(0 0)"><ellipse class="a" cx="2.342" cy="2.342" rx="2.342" ry="2.342"/></g></g><g transform="translate(424.326 15.53)"><g transform="translate(0 0)"><ellipse class="a" cx="2.342" cy="2.342" rx="2.342" ry="2.342"/></g></g><g transform="translate(407.061 15.53)"><g transform="translate(0 0)"><ellipse class="a" cx="2.342" cy="2.342" rx="2.342" ry="2.342"/></g></g><g transform="translate(389.798 15.53)"><g transform="translate(0 0)"><ellipse class="a" cx="2.342" cy="2.342" rx="2.342" ry="2.342"/></g></g><g transform="translate(372.533 15.53)"><g transform="translate(0 0)"><ellipse class="a" cx="2.342" cy="2.342" rx="2.342" ry="2.342"/></g></g><g transform="translate(355.269 15.53)"><g transform="translate(0 0)"><ellipse class="a" cx="2.342" cy="2.342" rx="2.342" ry="2.342"/></g></g><g transform="translate(338.005 15.53)"><g transform="translate(0 0)"><ellipse class="a" cx="2.342" cy="2.342" rx="2.342" ry="2.342"/></g></g><g transform="translate(320.741 15.53)"><g transform="translate(0 0)"><ellipse class="a" cx="2.342" cy="2.342" rx="2.342" ry="2.342"/></g></g><g transform="translate(303.477 15.53)"><g transform="translate(0 0)"><ellipse class="a" cx="2.342" cy="2.342" rx="2.342" ry="2.342"/></g></g><ellipse class="a" cx="2.342" cy="2.342" rx="2.342" ry="2.342" transform="translate(458.854 31.059)"/><g transform="translate(441.59 31.059)"><g transform="translate(0 0)"><ellipse class="a" cx="2.342" cy="2.342" rx="2.342" ry="2.342"/></g></g><g transform="translate(424.326 31.059)"><g transform="translate(0 0)"><ellipse class="a" cx="2.342" cy="2.342" rx="2.342" ry="2.342"/></g></g><g transform="translate(407.061 31.059)"><g transform="translate(0 0)"><ellipse class="a" cx="2.342" cy="2.342" rx="2.342" ry="2.342"/></g></g><g transform="translate(389.798 31.059)"><g transform="translate(0 0)"><ellipse class="a" cx="2.342" cy="2.342" rx="2.342" ry="2.342"/></g></g><g transform="translate(372.533 31.059)"><g transform="translate(0 0)"><ellipse class="a" cx="2.342" cy="2.342" rx="2.342" ry="2.342"/></g></g><g transform="translate(355.269 31.059)"><g transform="translate(0 0)"><ellipse class="a" cx="2.342" cy="2.342" rx="2.342" ry="2.342"/></g></g><g transform="translate(338.005 31.059)"><g transform="translate(0 0)"><ellipse class="a" cx="2.342" cy="2.342" rx="2.342" ry="2.342"/></g></g><g transform="translate(320.741 31.059)"><g transform="translate(0 0)"><ellipse class="a" cx="2.342" cy="2.342" rx="2.342" ry="2.342"/></g></g><g transform="translate(303.477 31.059)"><g transform="translate(0 0)"><ellipse class="a" cx="2.342" cy="2.342" rx="2.342" ry="2.342"/></g></g><g transform="translate(217.138 20.074)"><path class="a" d="M1581.944,14.8a37.8,37.8,0,1,1-37.8,37.8A37.842,37.842,0,0,1,1581.944,14.8Zm0,73.957A36.157,36.157,0,1,0,1545.786,52.6,36.2,36.2,0,0,0,1581.944,88.754Z" transform="translate(-1544.144 -14.797)"/></g><g transform="translate(0 10.205)"><path class="b" d="M1689-119.866c84.541,0,153.319,68.779,153.319,153.319S1773.54,186.772,1689,186.772s-153.321-68.779-153.321-153.319S1604.457-119.866,1689-119.866Zm0,305c83.636,0,151.677-68.041,151.677-151.677S1772.635-118.224,1689-118.224,1537.321-50.182,1537.321,33.453,1605.363,185.13,1689,185.13Z" transform="translate(-1535.678 119.866)"/></g><g transform="translate(245.217 48.154)"><ellipse class="a" cx="36.978" cy="36.978" rx="36.978" ry="36.978"/></g></svg>