<svg xmlns="http://www.w3.org/2000/svg" width="377.193" height="257.824" viewBox="0 0 377.193 257.824"><defs><style>.a{fill:#0a3228;}.b{fill:#fdc644;}</style></defs><g transform="translate(0)"><ellipse class="a" cx="1.905" cy="1.905" rx="1.905" ry="1.905" transform="translate(0 0)"/><g transform="translate(14.048 0)"><ellipse class="a" cx="1.905" cy="1.905" rx="1.905" ry="1.905"/></g><g transform="translate(28.096 0)"><g transform="translate(0)"><ellipse class="a" cx="1.905" cy="1.905" rx="1.905" ry="1.905"/></g></g><g transform="translate(42.145 0)"><g transform="translate(0)"><ellipse class="a" cx="1.905" cy="1.905" rx="1.905" ry="1.905"/></g></g><g transform="translate(56.193 0)"><g transform="translate(0)"><ellipse class="a" cx="1.905" cy="1.905" rx="1.905" ry="1.905"/></g></g><g transform="translate(70.241 0)"><g transform="translate(0)"><ellipse class="a" cx="1.905" cy="1.905" rx="1.905" ry="1.905"/></g></g><g transform="translate(84.289 0)"><g transform="translate(0)"><ellipse class="a" cx="1.905" cy="1.905" rx="1.905" ry="1.905"/></g></g><g transform="translate(98.338 0)"><g transform="translate(0)"><ellipse class="a" cx="1.905" cy="1.905" rx="1.905" ry="1.905"/></g></g><g transform="translate(112.386 0)"><g transform="translate(0)"><ellipse class="a" cx="1.905" cy="1.905" rx="1.905" ry="1.905"/></g></g><g transform="translate(126.434 0)"><g transform="translate(0)"><ellipse class="a" cx="1.905" cy="1.905" rx="1.905" ry="1.905"/></g></g><ellipse class="a" cx="1.905" cy="1.905" rx="1.905" ry="1.905" transform="translate(0 12.637)"/><g transform="translate(14.048 12.637)"><g transform="translate(0 0)"><ellipse class="a" cx="1.905" cy="1.905" rx="1.905" ry="1.905"/></g></g><g transform="translate(28.096 12.637)"><g transform="translate(0 0)"><ellipse class="a" cx="1.905" cy="1.905" rx="1.905" ry="1.905"/></g></g><g transform="translate(42.145 12.637)"><g transform="translate(0 0)"><ellipse class="a" cx="1.905" cy="1.905" rx="1.905" ry="1.905"/></g></g><g transform="translate(56.193 12.637)"><g transform="translate(0 0)"><ellipse class="a" cx="1.905" cy="1.905" rx="1.905" ry="1.905"/></g></g><g transform="translate(70.241 12.637)"><g transform="translate(0 0)"><ellipse class="a" cx="1.905" cy="1.905" rx="1.905" ry="1.905"/></g></g><g transform="translate(84.289 12.637)"><g transform="translate(0 0)"><ellipse class="a" cx="1.905" cy="1.905" rx="1.905" ry="1.905"/></g></g><g transform="translate(98.338 12.637)"><g transform="translate(0 0)"><ellipse class="a" cx="1.905" cy="1.905" rx="1.905" ry="1.905"/></g></g><g transform="translate(112.386 12.637)"><g transform="translate(0 0)"><ellipse class="a" cx="1.905" cy="1.905" rx="1.905" ry="1.905"/></g></g><g transform="translate(126.434 12.637)"><g transform="translate(0 0)"><ellipse class="a" cx="1.905" cy="1.905" rx="1.905" ry="1.905"/></g></g><ellipse class="a" cx="1.905" cy="1.905" rx="1.905" ry="1.905" transform="translate(0 25.274)"/><g transform="translate(14.048 25.274)"><g transform="translate(0 0)"><ellipse class="a" cx="1.905" cy="1.905" rx="1.905" ry="1.905"/></g></g><g transform="translate(28.096 25.274)"><g transform="translate(0 0)"><ellipse class="a" cx="1.905" cy="1.905" rx="1.905" ry="1.905"/></g></g><g transform="translate(42.145 25.274)"><g transform="translate(0 0)"><ellipse class="a" cx="1.905" cy="1.905" rx="1.905" ry="1.905"/></g></g><g transform="translate(56.193 25.274)"><g transform="translate(0 0)"><ellipse class="a" cx="1.905" cy="1.905" rx="1.905" ry="1.905"/></g></g><g transform="translate(70.241 25.274)"><g transform="translate(0 0)"><ellipse class="a" cx="1.905" cy="1.905" rx="1.905" ry="1.905"/></g></g><g transform="translate(84.289 25.274)"><g transform="translate(0 0)"><ellipse class="a" cx="1.905" cy="1.905" rx="1.905" ry="1.905"/></g></g><g transform="translate(98.338 25.274)"><g transform="translate(0 0)"><ellipse class="a" cx="1.905" cy="1.905" rx="1.905" ry="1.905"/></g></g><g transform="translate(112.386 25.274)"><g transform="translate(0 0)"><ellipse class="a" cx="1.905" cy="1.905" rx="1.905" ry="1.905"/></g></g><g transform="translate(126.434 25.274)"><g transform="translate(0 0)"><ellipse class="a" cx="1.905" cy="1.905" rx="1.905" ry="1.905"/></g></g><g transform="translate(138.986 16.335)"><g transform="translate(0)"><path class="a" d="M1574.9,14.8a30.759,30.759,0,1,0,30.759,30.759A30.793,30.793,0,0,0,1574.9,14.8Zm0,60.181a29.422,29.422,0,1,1,29.422-29.422A29.455,29.455,0,0,1,1574.9,74.978Z" transform="translate(-1544.144 -14.797)"/></g></g><g transform="translate(127.671 8.304)"><path class="b" d="M1660.438-119.866a124.9,124.9,0,0,0-124.76,124.76,124.761,124.761,0,0,0,249.522,0A124.9,124.9,0,0,0,1660.438-119.866Zm0,248.184A123.563,123.563,0,0,1,1537.015,4.894a123.424,123.424,0,0,1,246.849,0A123.564,123.564,0,0,1,1660.438,128.318Z" transform="translate(-1535.678 119.866)"/></g><g transform="translate(117.473 39.184)"><ellipse class="a" cx="30.09" cy="30.09" rx="30.09" ry="30.09"/></g></g></svg>