<svg xmlns="http://www.w3.org/2000/svg" width="580.805" height="397" viewBox="0 0 580.805 397"><defs><style>.a{fill:#0a3228;}.b{fill:#fdc644;}</style></defs><g transform="translate(0)"><ellipse class="a" cx="2.934" cy="2.934" rx="2.934" ry="2.934" transform="translate(574.937 0)"/><g transform="translate(553.305 0)"><ellipse class="a" cx="2.934" cy="2.934" rx="2.934" ry="2.934"/></g><g transform="translate(531.674 0)"><ellipse class="a" cx="2.934" cy="2.934" rx="2.934" ry="2.934"/></g><g transform="translate(510.042 0)"><ellipse class="a" cx="2.934" cy="2.934" rx="2.934" ry="2.934"/></g><g transform="translate(488.41 0)"><ellipse class="a" cx="2.934" cy="2.934" rx="2.934" ry="2.934"/></g><g transform="translate(466.779 0)"><ellipse class="a" cx="2.934" cy="2.934" rx="2.934" ry="2.934"/></g><g transform="translate(445.147 0)"><ellipse class="a" cx="2.934" cy="2.934" rx="2.934" ry="2.934"/></g><g transform="translate(423.515 0)"><ellipse class="a" cx="2.934" cy="2.934" rx="2.934" ry="2.934"/></g><g transform="translate(401.884 0)"><ellipse class="a" cx="2.934" cy="2.934" rx="2.934" ry="2.934"/></g><g transform="translate(380.252 0)"><ellipse class="a" cx="2.934" cy="2.934" rx="2.934" ry="2.934"/></g><ellipse class="a" cx="2.934" cy="2.934" rx="2.934" ry="2.934" transform="translate(574.937 19.458)"/><g transform="translate(553.305 19.458)"><g transform="translate(0 0)"><ellipse class="a" cx="2.934" cy="2.934" rx="2.934" ry="2.934"/></g></g><g transform="translate(531.674 19.458)"><g transform="translate(0 0)"><ellipse class="a" cx="2.934" cy="2.934" rx="2.934" ry="2.934"/></g></g><g transform="translate(510.042 19.458)"><g transform="translate(0 0)"><ellipse class="a" cx="2.934" cy="2.934" rx="2.934" ry="2.934"/></g></g><g transform="translate(488.41 19.458)"><g transform="translate(0 0)"><ellipse class="a" cx="2.934" cy="2.934" rx="2.934" ry="2.934"/></g></g><g transform="translate(466.779 19.458)"><g transform="translate(0 0)"><ellipse class="a" cx="2.934" cy="2.934" rx="2.934" ry="2.934"/></g></g><g transform="translate(445.147 19.458)"><g transform="translate(0 0)"><ellipse class="a" cx="2.934" cy="2.934" rx="2.934" ry="2.934"/></g></g><g transform="translate(423.515 19.458)"><g transform="translate(0 0)"><ellipse class="a" cx="2.934" cy="2.934" rx="2.934" ry="2.934"/></g></g><g transform="translate(401.884 19.458)"><g transform="translate(0 0)"><ellipse class="a" cx="2.934" cy="2.934" rx="2.934" ry="2.934"/></g></g><g transform="translate(380.252 19.458)"><g transform="translate(0 0)"><ellipse class="a" cx="2.934" cy="2.934" rx="2.934" ry="2.934"/></g></g><ellipse class="a" cx="2.934" cy="2.934" rx="2.934" ry="2.934" transform="translate(574.937 38.917)"/><g transform="translate(553.305 38.917)"><g transform="translate(0 0)"><ellipse class="a" cx="2.934" cy="2.934" rx="2.934" ry="2.934"/></g></g><g transform="translate(531.674 38.917)"><g transform="translate(0 0)"><ellipse class="a" cx="2.934" cy="2.934" rx="2.934" ry="2.934"/></g></g><g transform="translate(510.042 38.917)"><g transform="translate(0 0)"><ellipse class="a" cx="2.934" cy="2.934" rx="2.934" ry="2.934"/></g></g><g transform="translate(488.41 38.917)"><g transform="translate(0 0)"><ellipse class="a" cx="2.934" cy="2.934" rx="2.934" ry="2.934"/></g></g><g transform="translate(466.779 38.917)"><g transform="translate(0 0)"><ellipse class="a" cx="2.934" cy="2.934" rx="2.934" ry="2.934"/></g></g><g transform="translate(445.147 38.917)"><g transform="translate(0 0)"><ellipse class="a" cx="2.934" cy="2.934" rx="2.934" ry="2.934"/></g></g><g transform="translate(423.515 38.917)"><g transform="translate(0 0)"><ellipse class="a" cx="2.934" cy="2.934" rx="2.934" ry="2.934"/></g></g><g transform="translate(401.884 38.917)"><g transform="translate(0 0)"><ellipse class="a" cx="2.934" cy="2.934" rx="2.934" ry="2.934"/></g></g><g transform="translate(380.252 38.917)"><g transform="translate(0 0)"><ellipse class="a" cx="2.934" cy="2.934" rx="2.934" ry="2.934"/></g></g><g transform="translate(272.07 25.153)"><path class="a" d="M1591.506,14.8a47.362,47.362,0,1,1-47.362,47.362A47.416,47.416,0,0,1,1591.506,14.8Zm0,92.667a45.3,45.3,0,1,0-45.3-45.3A45.356,45.356,0,0,0,1591.506,107.464Z" transform="translate(-1544.144 -14.797)"/></g><g transform="translate(0 12.787)"><path class="b" d="M1727.787-119.866c105.928,0,192.107,86.179,192.107,192.107s-86.178,192.107-192.107,192.107-192.109-86.178-192.109-192.107S1621.857-119.866,1727.787-119.866Zm0,382.155c104.794,0,190.049-85.254,190.049-190.049s-85.255-190.049-190.049-190.049S1537.736-32.554,1537.736,72.241,1622.992,262.289,1727.787,262.289Z" transform="translate(-1535.678 119.866)"/></g><g transform="translate(307.253 60.336)"><ellipse class="a" cx="46.333" cy="46.333" rx="46.333" ry="46.333"/></g></g></svg>