<svg xmlns="http://www.w3.org/2000/svg" xmlns:xlink="http://www.w3.org/1999/xlink" width="35.382" height="35.381" viewBox="0 0 35.382 35.381"><defs><style>.a{fill:url(#a);}.b{fill:url(#b);}.c{fill:url(#c);}</style><linearGradient id="a" x1="-3.408" y1="-3.24" x2="4.328" y2="4.164" gradientUnits="objectBoundingBox"><stop offset="0.001" stop-color="#fbe18a"/><stop offset="0.209" stop-color="#fcbb45"/><stop offset="0.376" stop-color="#f75274"/><stop offset="0.524" stop-color="#d53692"/><stop offset="0.739" stop-color="#8f39ce"/><stop offset="1" stop-color="#5b4fe9"/></linearGradient><linearGradient id="b" x1="-0.421" y1="-0.381" x2="1.421" y2="1.381" xlink:href="#a"/><linearGradient id="c" x1="0.049" y1="0.068" x2="0.956" y2="0.936" xlink:href="#a"/></defs><g transform="translate(-297.216 -150.694)"><path class="a" d="M324.274,157.011a2.074,2.074,0,1,0,2.074,2.074A2.074,2.074,0,0,0,324.274,157.011Z"/><path class="b" d="M315.052,159.671a8.714,8.714,0,1,0,8.713,8.713A8.723,8.723,0,0,0,315.052,159.671Zm0,14.295a5.582,5.582,0,1,1,5.581-5.582A5.588,5.588,0,0,1,315.052,173.966Z"/><path class="c" d="M321.969,186.075H307.844a10.64,10.64,0,0,1-10.628-10.627V161.321a10.64,10.64,0,0,1,10.628-10.627h14.125A10.64,10.64,0,0,1,332.6,161.321v14.127A10.64,10.64,0,0,1,321.969,186.075Zm-14.125-32.053a7.307,7.307,0,0,0-7.3,7.3v14.127a7.307,7.307,0,0,0,7.3,7.3h14.125a7.308,7.308,0,0,0,7.3-7.3V161.321a7.308,7.308,0,0,0-7.3-7.3Z"/></g></svg>