<svg xmlns="http://www.w3.org/2000/svg" width="15" height="15" viewBox="0 0 15 15"><defs><style>.a{fill:#0c0c0c;}</style></defs><path class="a" d="M7.5,15a2.583,2.583,0,0,1-1.768-1.046,2.7,2.7,0,0,0-.666-.581,2.832,2.832,0,0,0-.942-.072,2.578,2.578,0,0,1-1.944-.5A2.493,2.493,0,0,1,1.7,10.861a2.8,2.8,0,0,0-.072-.942,2.7,2.7,0,0,0-.581-.666A2.557,2.557,0,0,1,0,7.5,2.625,2.625,0,0,1,1.043,5.732a2.7,2.7,0,0,0,.581-.666A2.8,2.8,0,0,0,1.7,4.124a2.57,2.57,0,0,1,.5-1.941,2.522,2.522,0,0,1,1.944-.5,2.791,2.791,0,0,0,.942-.072,2.706,2.706,0,0,0,.666-.581A2.588,2.588,0,0,1,7.5,0,2.617,2.617,0,0,1,9.268,1.046a2.7,2.7,0,0,0,.666.581,2.8,2.8,0,0,0,.942.072,2.578,2.578,0,0,1,1.944.5,2.506,2.506,0,0,1,.5,1.941,2.8,2.8,0,0,0,.072.942,2.7,2.7,0,0,0,.581.666A2.6,2.6,0,0,1,15,7.5a2.625,2.625,0,0,1-1.043,1.768,2.7,2.7,0,0,0-.581.666,2.8,2.8,0,0,0-.072.942,2.57,2.57,0,0,1-.5,1.941,2.522,2.522,0,0,1-1.944.5,2.784,2.784,0,0,0-.942.072,2.706,2.706,0,0,0-.666.581A2.588,2.588,0,0,1,7.5,15ZM4.428,12a2.933,2.933,0,0,1,1.134.173,3.456,3.456,0,0,1,1.106.883c.273.286.628.644.829.644s.556-.358.829-.644a3.456,3.456,0,0,1,1.106-.883A3.587,3.587,0,0,1,10.879,12a2.3,2.3,0,0,0,1-.119c.135-.119.126-.628.119-1a3.587,3.587,0,0,1,.17-1.448,3.456,3.456,0,0,1,.883-1.106c.286-.273.644-.628.644-.829s-.358-.556-.644-.829a3.456,3.456,0,0,1-.883-1.106A3.582,3.582,0,0,1,12,4.117a2.3,2.3,0,0,0-.119-1c-.119-.135-.628-.129-1-.119a3.593,3.593,0,0,1-1.448-.17,3.456,3.456,0,0,1-1.106-.883C8.053,1.658,7.7,1.3,7.5,1.3s-.556.358-.829.644a3.456,3.456,0,0,1-1.106.883A3.593,3.593,0,0,1,4.114,3a2.3,2.3,0,0,0-1,.119c-.135.119-.126.628-.119,1a3.587,3.587,0,0,1-.17,1.448,3.456,3.456,0,0,1-.883,1.106C1.655,6.944,1.3,7.3,1.3,7.5s.358.556.644.829a3.456,3.456,0,0,1,.883,1.106,3.582,3.582,0,0,1,.17,1.448,2.3,2.3,0,0,0,.119,1c.119.135.628.126,1,.119Z"/></svg>