<svg xmlns="http://www.w3.org/2000/svg" width="20.555" height="20.555" viewBox="0 0 20.555 20.555"><defs><style>.a{fill:#000;}</style></defs><g transform="translate(-24 -23.999)"><path class="a" d="M143.261,29.824l2.195-2.195V39.238a1.063,1.063,0,1,0,2.126,0V27.629l2.195,2.195a1.063,1.063,0,1,0,1.508-1.5l0,0-4.009-4.009a1.063,1.063,0,0,0-1.5,0h0l-4.009,4.009a1.063,1.063,0,1,0,1.5,1.508l0,0Z" transform="translate(-112.241)"/><path class="a" d="M43.491,232a1.063,1.063,0,0,0-1.063,1.063v8.151h-16.3v-8.151a1.063,1.063,0,0,0-2.126,0v8.505a1.772,1.772,0,0,0,1.772,1.772H42.783a1.772,1.772,0,0,0,1.772-1.772v-8.505A1.063,1.063,0,0,0,43.491,232Z" transform="translate(0 -198.787)"/></g></svg>