<svg xmlns="http://www.w3.org/2000/svg" width="42.988" height="35.381" viewBox="0 0 42.988 35.381"><defs><style>.a{fill:#3cf;}</style></defs><path class="a" d="M336.224,209.529a17.743,17.743,0,0,1-4.347,1.239c.7-.118,1.725-1.383,2.137-1.9a7.982,7.982,0,0,0,1.443-2.631c.038-.075.066-.169-.009-.226a.248.248,0,0,0-.231.019,22.145,22.145,0,0,1-5.155,1.972.343.343,0,0,1-.355-.094,4.186,4.186,0,0,0-.45-.46,9.137,9.137,0,0,0-2.5-1.531,8.707,8.707,0,0,0-3.83-.616,9.154,9.154,0,0,0-3.633,1.026,9.362,9.362,0,0,0-2.931,2.394,9.014,9.014,0,0,0-1.75,3.506,9.5,9.5,0,0,0-.093,3.7c.028.208.01.235-.177.208-7.08-1.054-12.948-3.587-17.712-9.015-.206-.236-.318-.236-.488.018-2.085,3.124-1.073,8.144,1.531,10.611.347.329.7.658,1.088.958a9.022,9.022,0,0,1-3.417-.958c-.207-.131-.311-.056-.329.179a5.432,5.432,0,0,0,.056,1.014,9.08,9.08,0,0,0,5.6,7.24,5.324,5.324,0,0,0,1.135.348,10.123,10.123,0,0,1-3.352.1c-.244-.047-.338.076-.244.31,1.475,4.02,4.658,5.216,7.042,5.9.32.055.639.055.959.13-.019.03-.038.03-.057.057-.79,1.206-3.532,2.1-4.809,2.549a17.219,17.219,0,0,1-7.3.935c-.393-.058-.475-.053-.582,0s-.013.161.113.262c.5.329,1.005.621,1.521.9a24.118,24.118,0,0,0,4.883,1.954c8.775,2.423,18.66.642,25.249-5.9,5.174-5.141,6.988-12.231,6.988-19.329,0-.278.327-.431.522-.578a17.062,17.062,0,0,0,3.437-3.574,1.088,1.088,0,0,0,.228-.684v-.037C336.4,209.415,336.4,209.449,336.224,209.529Z" transform="translate(-293.413 -205.288)"/></svg>