<svg xmlns="http://www.w3.org/2000/svg" width="61.531" height="56.403" viewBox="0 0 61.531 56.403"><defs><style>.a{fill:#fff;}</style></defs><g transform="translate(0 -21.333)"><g transform="translate(0 30.306)"><path class="a" d="M59.608,99.846H1.923a1.923,1.923,0,1,1,0-3.846H59.608a1.923,1.923,0,1,1,0,3.846Z" transform="translate(0 -96)"/></g><g transform="translate(43.892 30.306)"><path class="a" d="M374.046,120.356a8.829,8.829,0,0,1-8.819-8.819V97.923A1.924,1.924,0,0,1,367.15,96h13.8a1.923,1.923,0,0,1,1.92,1.923v13.614A8.829,8.829,0,0,1,374.046,120.356Zm-4.976-20.51v11.691a4.974,4.974,0,1,0,9.948,0V99.846Z" transform="translate(-365.227 -96)"/></g><g transform="translate(28.843 30.306)"><path class="a" d="M249.448,120.356A9.46,9.46,0,0,1,240,110.908V97.923A1.924,1.924,0,0,1,241.923,96H256.97a1.924,1.924,0,0,1,1.923,1.923v12.986a9.457,9.457,0,0,1-9.445,9.448Zm-5.6-20.51v11.063a5.6,5.6,0,1,0,11.2,0V99.846Z" transform="translate(-240 -96)"/></g><g transform="translate(13.793 30.306)"><path class="a" d="M124.221,120.356a9.46,9.46,0,0,1-9.448-9.448V97.923A1.924,1.924,0,0,1,116.7,96h15.049a1.924,1.924,0,0,1,1.923,1.923v12.986a9.458,9.458,0,0,1-9.448,9.448Zm-5.6-20.51v11.063a5.6,5.6,0,1,0,11.2,0V99.846Z" transform="translate(-114.773 -96)"/></g><g transform="translate(0 30.306)"><path class="a" d="M8.819,120.356A8.829,8.829,0,0,1,0,111.537V97.923A1.924,1.924,0,0,1,1.923,96h13.8a1.924,1.924,0,0,1,1.923,1.923v13.614A8.829,8.829,0,0,1,8.819,120.356ZM3.846,99.846v11.691a4.974,4.974,0,1,0,9.947,0V99.846Z" transform="translate(0 -96)"/></g><g transform="translate(0 57.226)"><path class="a" d="M54.48,340.51H7.05A7.056,7.056,0,0,1,0,333.46V321.923a1.923,1.923,0,1,1,3.846,0V333.46a3.209,3.209,0,0,0,3.2,3.2H54.48a3.209,3.209,0,0,0,3.2-3.2V321.923a1.923,1.923,0,1,1,3.846,0V333.46A7.056,7.056,0,0,1,54.48,340.51Z" transform="translate(0 -320)"/></g><g transform="translate(0 21.333)"><path class="a" d="M1.923,37.357A1.922,1.922,0,0,1,0,35.434v-7.05a7.056,7.056,0,0,1,7.05-7.05H54.48a7.056,7.056,0,0,1,7.05,7.05v4.274a1.923,1.923,0,0,1-3.846,0V28.383a3.209,3.209,0,0,0-3.2-3.2H7.05a3.209,3.209,0,0,0-3.2,3.2v7.05A1.922,1.922,0,0,1,1.923,37.357Z" transform="translate(0 -21.333)"/></g></g></svg>