<svg xmlns="http://www.w3.org/2000/svg" width="164.45" height="156.38" viewBox="0 0 164.45 156.38"><defs><style>.a{fill:#ffadb7;}</style></defs><g transform="translate(0 0)"><circle class="a" cx="2.77" cy="2.77" r="2.77"/><circle class="a" cx="2.77" cy="2.77" r="2.77" transform="translate(13.242)"/><circle class="a" cx="2.77" cy="2.77" r="2.77" transform="translate(26.485)"/><circle class="a" cx="2.77" cy="2.77" r="2.77" transform="translate(39.728)"/><circle class="a" cx="2.77" cy="2.77" r="2.77" transform="translate(52.97)"/><circle class="a" cx="2.77" cy="2.77" r="2.77" transform="translate(66.213)"/><circle class="a" cx="2.77" cy="2.77" r="2.77" transform="translate(79.455)"/><circle class="a" cx="2.77" cy="2.77" r="2.77" transform="translate(92.698)"/><circle class="a" cx="2.77" cy="2.77" r="2.77" transform="translate(105.94)"/><circle class="a" cx="2.77" cy="2.77" r="2.77" transform="translate(119.183)"/><circle class="a" cx="2.77" cy="2.77" r="2.77" transform="translate(132.425)"/><circle class="a" cx="2.77" cy="2.77" r="2.77" transform="translate(145.668)"/><circle class="a" cx="2.77" cy="2.77" r="2.77" transform="translate(158.91)"/></g><g transform="translate(0 15.084)"><circle class="a" cx="2.77" cy="2.77" r="2.77"/><circle class="a" cx="2.77" cy="2.77" r="2.77" transform="translate(13.242)"/><circle class="a" cx="2.77" cy="2.77" r="2.77" transform="translate(26.485)"/><circle class="a" cx="2.77" cy="2.77" r="2.77" transform="translate(39.728)"/><circle class="a" cx="2.77" cy="2.77" r="2.77" transform="translate(52.97)"/><circle class="a" cx="2.77" cy="2.77" r="2.77" transform="translate(66.213)"/><circle class="a" cx="2.77" cy="2.77" r="2.77" transform="translate(79.455)"/><circle class="a" cx="2.77" cy="2.77" r="2.77" transform="translate(92.698)"/><circle class="a" cx="2.77" cy="2.77" r="2.77" transform="translate(105.94)"/><circle class="a" cx="2.77" cy="2.77" r="2.77" transform="translate(119.183)"/><circle class="a" cx="2.77" cy="2.77" r="2.77" transform="translate(132.425)"/><circle class="a" cx="2.77" cy="2.77" r="2.77" transform="translate(145.668)"/><circle class="a" cx="2.77" cy="2.77" r="2.77" transform="translate(158.91)"/></g><g transform="translate(0 30.168)"><circle class="a" cx="2.77" cy="2.77" r="2.77"/><circle class="a" cx="2.77" cy="2.77" r="2.77" transform="translate(13.242)"/><circle class="a" cx="2.77" cy="2.77" r="2.77" transform="translate(26.485)"/><circle class="a" cx="2.77" cy="2.77" r="2.77" transform="translate(39.728)"/><circle class="a" cx="2.77" cy="2.77" r="2.77" transform="translate(52.97)"/><circle class="a" cx="2.77" cy="2.77" r="2.77" transform="translate(66.213)"/><circle class="a" cx="2.77" cy="2.77" r="2.77" transform="translate(79.455)"/><circle class="a" cx="2.77" cy="2.77" r="2.77" transform="translate(92.698)"/><circle class="a" cx="2.77" cy="2.77" r="2.77" transform="translate(105.94)"/><circle class="a" cx="2.77" cy="2.77" r="2.77" transform="translate(119.183)"/><circle class="a" cx="2.77" cy="2.77" r="2.77" transform="translate(132.425)"/><circle class="a" cx="2.77" cy="2.77" r="2.77" transform="translate(145.668)"/><circle class="a" cx="2.77" cy="2.77" r="2.77" transform="translate(158.91)"/></g><g transform="translate(0 45.252)"><circle class="a" cx="2.77" cy="2.77" r="2.77"/><circle class="a" cx="2.77" cy="2.77" r="2.77" transform="translate(13.242)"/><circle class="a" cx="2.77" cy="2.77" r="2.77" transform="translate(26.485)"/><circle class="a" cx="2.77" cy="2.77" r="2.77" transform="translate(39.728)"/><circle class="a" cx="2.77" cy="2.77" r="2.77" transform="translate(52.97)"/><circle class="a" cx="2.77" cy="2.77" r="2.77" transform="translate(66.213)"/><circle class="a" cx="2.77" cy="2.77" r="2.77" transform="translate(79.455)"/><circle class="a" cx="2.77" cy="2.77" r="2.77" transform="translate(92.698)"/><circle class="a" cx="2.77" cy="2.77" r="2.77" transform="translate(105.94)"/><circle class="a" cx="2.77" cy="2.77" r="2.77" transform="translate(119.183)"/><circle class="a" cx="2.77" cy="2.77" r="2.77" transform="translate(132.425)"/><circle class="a" cx="2.77" cy="2.77" r="2.77" transform="translate(145.668)"/><circle class="a" cx="2.77" cy="2.77" r="2.77" transform="translate(158.91)"/></g><g transform="translate(0 60.336)"><circle class="a" cx="2.77" cy="2.77" r="2.77"/><circle class="a" cx="2.77" cy="2.77" r="2.77" transform="translate(13.242)"/><circle class="a" cx="2.77" cy="2.77" r="2.77" transform="translate(26.485)"/><circle class="a" cx="2.77" cy="2.77" r="2.77" transform="translate(39.728)"/><circle class="a" cx="2.77" cy="2.77" r="2.77" transform="translate(52.97)"/><circle class="a" cx="2.77" cy="2.77" r="2.77" transform="translate(66.213)"/><circle class="a" cx="2.77" cy="2.77" r="2.77" transform="translate(79.455)"/><circle class="a" cx="2.77" cy="2.77" r="2.77" transform="translate(92.698)"/><circle class="a" cx="2.77" cy="2.77" r="2.77" transform="translate(105.94)"/><circle class="a" cx="2.77" cy="2.77" r="2.77" transform="translate(119.183)"/><circle class="a" cx="2.77" cy="2.77" r="2.77" transform="translate(132.425)"/><circle class="a" cx="2.77" cy="2.77" r="2.77" transform="translate(145.668)"/><circle class="a" cx="2.77" cy="2.77" r="2.77" transform="translate(158.91)"/></g><g transform="translate(0 75.42)"><circle class="a" cx="2.77" cy="2.77" r="2.77"/><circle class="a" cx="2.77" cy="2.77" r="2.77" transform="translate(13.242)"/><circle class="a" cx="2.77" cy="2.77" r="2.77" transform="translate(26.485)"/><circle class="a" cx="2.77" cy="2.77" r="2.77" transform="translate(39.728)"/><circle class="a" cx="2.77" cy="2.77" r="2.77" transform="translate(52.97)"/><circle class="a" cx="2.77" cy="2.77" r="2.77" transform="translate(66.213)"/><circle class="a" cx="2.77" cy="2.77" r="2.77" transform="translate(79.455)"/><circle class="a" cx="2.77" cy="2.77" r="2.77" transform="translate(92.698)"/><circle class="a" cx="2.77" cy="2.77" r="2.77" transform="translate(105.94)"/><circle class="a" cx="2.77" cy="2.77" r="2.77" transform="translate(119.183)"/><circle class="a" cx="2.77" cy="2.77" r="2.77" transform="translate(132.425)"/><circle class="a" cx="2.77" cy="2.77" r="2.77" transform="translate(145.668)"/><circle class="a" cx="2.77" cy="2.77" r="2.77" transform="translate(158.91)"/></g><g transform="translate(0 90.504)"><circle class="a" cx="2.77" cy="2.77" r="2.77"/><circle class="a" cx="2.77" cy="2.77" r="2.77" transform="translate(13.242)"/><circle class="a" cx="2.77" cy="2.77" r="2.77" transform="translate(26.485)"/><circle class="a" cx="2.77" cy="2.77" r="2.77" transform="translate(39.728)"/><circle class="a" cx="2.77" cy="2.77" r="2.77" transform="translate(52.97)"/><circle class="a" cx="2.77" cy="2.77" r="2.77" transform="translate(66.213)"/><circle class="a" cx="2.77" cy="2.77" r="2.77" transform="translate(79.455)"/><circle class="a" cx="2.77" cy="2.77" r="2.77" transform="translate(92.698)"/><circle class="a" cx="2.77" cy="2.77" r="2.77" transform="translate(105.94)"/><circle class="a" cx="2.77" cy="2.77" r="2.77" transform="translate(119.183)"/><circle class="a" cx="2.77" cy="2.77" r="2.77" transform="translate(132.425)"/><circle class="a" cx="2.77" cy="2.77" r="2.77" transform="translate(145.668)"/><circle class="a" cx="2.77" cy="2.77" r="2.77" transform="translate(158.91)"/></g><g transform="translate(0 105.588)"><circle class="a" cx="2.77" cy="2.77" r="2.77"/><circle class="a" cx="2.77" cy="2.77" r="2.77" transform="translate(13.242)"/><circle class="a" cx="2.77" cy="2.77" r="2.77" transform="translate(26.485)"/><circle class="a" cx="2.77" cy="2.77" r="2.77" transform="translate(39.728)"/><circle class="a" cx="2.77" cy="2.77" r="2.77" transform="translate(52.97)"/><circle class="a" cx="2.77" cy="2.77" r="2.77" transform="translate(66.213)"/><circle class="a" cx="2.77" cy="2.77" r="2.77" transform="translate(79.455)"/><circle class="a" cx="2.77" cy="2.77" r="2.77" transform="translate(92.698)"/><circle class="a" cx="2.77" cy="2.77" r="2.77" transform="translate(105.94)"/><circle class="a" cx="2.77" cy="2.77" r="2.77" transform="translate(119.183)"/><circle class="a" cx="2.77" cy="2.77" r="2.77" transform="translate(132.425)"/><circle class="a" cx="2.77" cy="2.77" r="2.77" transform="translate(145.668)"/><circle class="a" cx="2.77" cy="2.77" r="2.77" transform="translate(158.91)"/></g><g transform="translate(0 120.672)"><circle class="a" cx="2.77" cy="2.77" r="2.77"/><circle class="a" cx="2.77" cy="2.77" r="2.77" transform="translate(13.242)"/><circle class="a" cx="2.77" cy="2.77" r="2.77" transform="translate(26.485)"/><circle class="a" cx="2.77" cy="2.77" r="2.77" transform="translate(39.728)"/><circle class="a" cx="2.77" cy="2.77" r="2.77" transform="translate(52.97)"/><circle class="a" cx="2.77" cy="2.77" r="2.77" transform="translate(66.213)"/><circle class="a" cx="2.77" cy="2.77" r="2.77" transform="translate(79.455)"/><circle class="a" cx="2.77" cy="2.77" r="2.77" transform="translate(92.698)"/><circle class="a" cx="2.77" cy="2.77" r="2.77" transform="translate(105.94)"/><circle class="a" cx="2.77" cy="2.77" r="2.77" transform="translate(119.183)"/><circle class="a" cx="2.77" cy="2.77" r="2.77" transform="translate(132.425)"/><circle class="a" cx="2.77" cy="2.77" r="2.77" transform="translate(145.668)"/><circle class="a" cx="2.77" cy="2.77" r="2.77" transform="translate(158.91)"/></g><g transform="translate(0 135.756)"><circle class="a" cx="2.77" cy="2.77" r="2.77"/><circle class="a" cx="2.77" cy="2.77" r="2.77" transform="translate(13.242)"/><circle class="a" cx="2.77" cy="2.77" r="2.77" transform="translate(26.485)"/><circle class="a" cx="2.77" cy="2.77" r="2.77" transform="translate(39.728)"/><circle class="a" cx="2.77" cy="2.77" r="2.77" transform="translate(52.97)"/><circle class="a" cx="2.77" cy="2.77" r="2.77" transform="translate(66.213)"/><circle class="a" cx="2.77" cy="2.77" r="2.77" transform="translate(79.455)"/><circle class="a" cx="2.77" cy="2.77" r="2.77" transform="translate(92.698)"/><circle class="a" cx="2.77" cy="2.77" r="2.77" transform="translate(105.94)"/><circle class="a" cx="2.77" cy="2.77" r="2.77" transform="translate(119.183)"/><circle class="a" cx="2.77" cy="2.77" r="2.77" transform="translate(132.425)"/><circle class="a" cx="2.77" cy="2.77" r="2.77" transform="translate(145.668)"/><circle class="a" cx="2.77" cy="2.77" r="2.77" transform="translate(158.91)"/></g><g transform="translate(0 150.84)"><circle class="a" cx="2.77" cy="2.77" r="2.77"/><circle class="a" cx="2.77" cy="2.77" r="2.77" transform="translate(13.242)"/><circle class="a" cx="2.77" cy="2.77" r="2.77" transform="translate(26.485)"/><circle class="a" cx="2.77" cy="2.77" r="2.77" transform="translate(39.728)"/><circle class="a" cx="2.77" cy="2.77" r="2.77" transform="translate(52.97)"/><circle class="a" cx="2.77" cy="2.77" r="2.77" transform="translate(66.213)"/><circle class="a" cx="2.77" cy="2.77" r="2.77" transform="translate(79.455)"/><circle class="a" cx="2.77" cy="2.77" r="2.77" transform="translate(92.698)"/><circle class="a" cx="2.77" cy="2.77" r="2.77" transform="translate(105.94)"/><circle class="a" cx="2.77" cy="2.77" r="2.77" transform="translate(119.183)"/><circle class="a" cx="2.77" cy="2.77" r="2.77" transform="translate(132.425)"/><circle class="a" cx="2.77" cy="2.77" r="2.77" transform="translate(145.668)"/><circle class="a" cx="2.77" cy="2.77" r="2.77" transform="translate(158.91)"/></g></svg>