<svg xmlns="http://www.w3.org/2000/svg" width="63.674" height="63.897" viewBox="0 0 63.674 63.897"><defs><style>.a{fill:#fff;}</style></defs><g transform="translate(-0.894)"><path class="a" d="M246.293,8.119a1.257,1.257,0,0,0,1.257-1.257V1.257a1.257,1.257,0,1,0-2.514,0V6.863a1.257,1.257,0,0,0,1.257,1.257Z" transform="translate(-213.673)"/><path class="a" d="M63.342,115.079l-2.22-2.214a4.209,4.209,0,0,0-4.98-.711l-4.184-4.179.2-.2a4.362,4.362,0,0,0,0-6.159,4.314,4.314,0,0,0-2.188-1.183,4.389,4.389,0,0,0,.173-1.223,4.352,4.352,0,0,0-3.462-4.263,4.389,4.389,0,0,0,.173-1.223A4.348,4.348,0,0,0,43.4,89.46a4.35,4.35,0,0,0-4.649-5.551L30.456,82.34c-1.264-.24-2.844-.4-3.84.511a2.27,2.27,0,0,0-.19.2,4.371,4.371,0,0,0-4.586,1.008,4.324,4.324,0,0,0-1.273,3.081,4.395,4.395,0,0,0,.173,1.223,4.353,4.353,0,0,0-3.461,4.258,4.382,4.382,0,0,0,.173,1.226,4.358,4.358,0,0,0-2.7,6.725,4.355,4.355,0,0,0-1.673,7.205l.2.2L9.1,112.154a4.2,4.2,0,0,0-4.754.824l-2.222,2.215a4.2,4.2,0,0,0,0,5.929l2.773,2.769a1.257,1.257,0,0,0,1.776-1.778L3.9,119.344a1.685,1.685,0,0,1,0-2.371l2.222-2.216a1.683,1.683,0,0,1,2.05-.251,1.267,1.267,0,0,0,.158.193,1.251,1.251,0,0,0,.361.251l12.741,12.722a1.238,1.238,0,0,0,.606.612,1.682,1.682,0,0,1-.07,2.295l-2.22,2.217a1.688,1.688,0,0,1-2.376,0l-2.773-2.773a1.257,1.257,0,0,0-1.777,1.777l2.775,2.775a4.208,4.208,0,0,0,5.927,0l2.221-2.218a4.2,4.2,0,0,0,.588-5.191l4.709-4.7.015-.015c.539-.557,2.041-.453,3.493-.352a18.077,18.077,0,0,0,3.306.022l5.157,5.151a4.2,4.2,0,0,0,.713,4.976l2.221,2.218a4.2,4.2,0,0,0,5.928,0l13.471-13.455a4.2,4.2,0,0,0,0-5.93ZM29.988,84.809l5.452,1.032L32.177,89.1a7.923,7.923,0,0,1-1.956-1.421,5.782,5.782,0,0,1-1.85-2.857h0a1.1,1.1,0,0,1-.005-.124,4.259,4.259,0,0,1,1.623.11Zm-6.372,1.025a1.854,1.854,0,0,1,2.345-.222A8.99,8.99,0,0,0,28.483,89.5,9.308,9.308,0,0,0,32.1,91.742a1.845,1.845,0,0,1-2.82,2.356h0l-5.668-5.658a1.851,1.851,0,0,1,0-2.605Zm-3.284,5.485a1.854,1.854,0,0,1,2.612,0l4.564,4.555a1.847,1.847,0,0,1-2.615,2.61h0L21.43,95.023l-.017-.016L20.33,93.925a1.844,1.844,0,0,1,0-2.606ZM17.041,96.8a1.859,1.859,0,0,1,2.6-.009l3.473,3.472a1.845,1.845,0,0,1-2.614,2.6l-1.259-1.258h0l-2.2-2.2a1.849,1.849,0,0,1,0-2.608Zm-2.189,6.588a1.858,1.858,0,0,1,2.615,0l1.261,1.259a1.845,1.845,0,0,1-2.615,2.6l-.158-.157-.006-.006-.007-.006L14.854,106a1.846,1.846,0,0,1,0-2.607Zm25.613,14.284a1.257,1.257,0,0,0-1.777,0L37.57,118.79c-1.063,1.063-2.988.929-4.85.8-2.022-.141-4.113-.286-5.466,1.1l-4.629,4.624-11.577-11.56,4.1-4.09a4.359,4.359,0,0,0,6.635-3.717c0-.011,0-.022,0-.032h.033a4.348,4.348,0,0,0,4.357-4.352c0-.011,0-.022,0-.032H26.2a4.343,4.343,0,0,0,4.357-4.385h.034a4.36,4.36,0,0,0,3.72-6.627L37.9,86.934a1.844,1.844,0,0,1,.943-.5c.037,0,.074-.01.111-.017a1.842,1.842,0,0,1,1.564,3.126l-1.094,1.089-.011.01L38.157,91.9a1.257,1.257,0,0,0,1.776,1.779l1.1-1.1h0l.166-.165a1.851,1.851,0,0,1,2.608.006,1.844,1.844,0,0,1,0,2.605l-1.1,1.1h0l-1.259,1.254a1.257,1.257,0,0,0,1.774,1.781l1.265-1.26a1.845,1.845,0,0,1,2.611,2.607L44.9,102.7a1.257,1.257,0,1,0,1.778,1.777l1.075-1.075.019-.017a1.845,1.845,0,0,1,2.611,2.606l-1.093,1.091h0l-1.734,1.732A1.257,1.257,0,0,0,49.33,110.6l.848-.847,4.066,4.061L42.668,125.374l-4.148-4.143a4.944,4.944,0,0,0,.826-.664l1.118-1.116a1.256,1.256,0,0,0,0-1.777Zm21.1,1.556L48.1,132.685a1.689,1.689,0,0,1-2.376,0L43.5,130.467a1.681,1.681,0,0,1,0-2.368l13.471-13.455a1.689,1.689,0,0,1,2.376,0l2.22,2.214a1.685,1.685,0,0,1,0,2.372Z" transform="translate(0 -71.901)"/><path class="a" d="M86.672,9.462a1.257,1.257,0,0,0,1.776-1.779l-4.58-4.571a1.257,1.257,0,0,0-1.776,1.779Z" transform="translate(-70.742 -2.402)"/><path class="a" d="M372.908,9.83a1.253,1.253,0,0,0,.888-.368l4.576-4.571A1.257,1.257,0,1,0,376.6,3.113L372.02,7.684a1.257,1.257,0,0,0,.888,2.146Z" transform="translate(-324.487 -2.403)"/><path class="a" d="M60.29,430.569a1.257,1.257,0,0,0,.015,1.777l0,0a1.257,1.257,0,1,0-.019-1.781Z" transform="translate(-51.668 -376.506)"/><path class="a" d="M333.769,334.632a1.257,1.257,0,1,0-.565-2.38l-.007,0a1.256,1.256,0,0,0,.572,2.376Z" transform="translate(-290.23 -290.67)"/></g></svg>