<svg xmlns="http://www.w3.org/2000/svg" width="70.87" height="70.871" viewBox="0 0 70.87 70.871"><defs><style>.a{fill:#fff;}</style></defs><g transform="translate(-8 -8)"><path class="a" d="M72.012,46.327V23.912A8,8,0,1,0,62.867,16H8V61.724H42.35a18.277,18.277,0,1,0,29.662-15.4ZM70.869,10.286A5.715,5.715,0,1,1,65.154,16,5.722,5.722,0,0,1,70.869,10.286Zm-60.583,8H63.2a8,8,0,0,0,1.265,2.5l-6.991,6.991a3.31,3.31,0,0,0-2.939,0l-2.3-2.3A3.4,3.4,0,0,0,52.58,24a3.429,3.429,0,1,0-6.858,0,3.373,3.373,0,0,0,.344,1.469L40.333,31.2a3.4,3.4,0,0,0-1.47-.343,3.429,3.429,0,1,0,3.429,3.429,3.373,3.373,0,0,0-.344-1.469l5.733-5.732a3.315,3.315,0,0,0,2.939,0l2.3,2.3a3.4,3.4,0,0,0-.343,1.47,3.429,3.429,0,0,0,6.858,0,3.373,3.373,0,0,0-.344-1.469L66.086,22.4a7.953,7.953,0,0,0,3.64,1.511V44.768a18.178,18.178,0,0,0-22.861,3.757v-5.09H40.006V57.152h2.62a18.337,18.337,0,0,0-.275,2.286H10.286ZM56.009,29.718a1.143,1.143,0,1,1-1.143,1.143A1.144,1.144,0,0,1,56.009,29.718Zm-8-5.715a1.143,1.143,0,1,1,1.143,1.143A1.144,1.144,0,0,1,48.007,24Zm-8,10.288a1.143,1.143,0,1,1-1.143-1.143A1.144,1.144,0,0,1,40.006,34.291ZM60.581,69.726a9.145,9.145,0,1,1,9.145-9.145A9.155,9.155,0,0,1,60.581,69.726Zm-16-17.979a18.152,18.152,0,0,0-1.359,3.119h-.927V45.721h2.286Zm14.86-7.11v4.572a11.407,11.407,0,0,0-9.269,16.064L46.2,67.562A15.948,15.948,0,0,1,59.438,44.637Zm1.143,31.948a16,16,0,0,1-13.246-7.036l3.981-2.3a11.393,11.393,0,0,0,18.529,0l3.981,2.3A16,16,0,0,1,60.581,76.584Zm14.378-9.022-3.965-2.29a11.407,11.407,0,0,0-9.269-16.064V44.637A15.948,15.948,0,0,1,74.959,67.562Z"/><path class="a" d="M334.858,328a6.858,6.858,0,1,0,6.858,6.858A6.865,6.865,0,0,0,334.858,328Zm0,11.431a4.572,4.572,0,1,1,4.572-4.572A4.577,4.577,0,0,1,334.858,339.431Z" transform="translate(-274.277 -274.277)"/><path class="a" d="M40,96h2.286v2.286H40Z" transform="translate(-27.428 -75.426)"/><path class="a" d="M72,96H88v2.286H72Z" transform="translate(-54.855 -75.426)"/><path class="a" d="M40,128h2.286v2.286H40Z" transform="translate(-27.428 -102.854)"/><path class="a" d="M72,128H88v2.286H72Z" transform="translate(-54.855 -102.854)"/><path class="a" d="M40,160h2.286v2.286H40Z" transform="translate(-27.428 -130.282)"/><path class="a" d="M72,160H88v2.286H72Z" transform="translate(-54.855 -130.282)"/><path class="a" d="M40,192h2.286v2.286H40Z" transform="translate(-27.428 -157.709)"/><path class="a" d="M72,192H88v2.286H72Z" transform="translate(-54.855 -157.709)"/><path class="a" d="M40,283.431h6.858V272H40Zm2.286-9.145h2.286v6.858H42.286Z" transform="translate(-27.428 -226.279)"/><path class="a" d="M104,297.145h6.858V288H104Zm2.286-6.858h2.286v4.572h-2.286Z" transform="translate(-82.283 -239.993)"/><path class="a" d="M168,242.289h6.858V224H168Zm2.286-16h2.286V240h-2.286Z" transform="translate(-137.139 -185.137)"/></g></svg>