<svg xmlns="http://www.w3.org/2000/svg" width="14" height="14.001" viewBox="0 0 14 14.001"><defs><style>.a{fill:#fefefe;fill-rule:evenodd;}.b{fill:#fdc644;}</style></defs><g transform="translate(-1027.001 -88.999)"><g transform="translate(36.426 -661.774)"><path class="a" d="M1000.905,759.191a5.433,5.433,0,0,0,.77-2.838,5.55,5.55,0,1,0-11.1,0,5.542,5.542,0,0,0,5.5,5.58,5.117,5.117,0,0,0,2.989-.879l3.666,3.72,1.84-1.866Zm-4.633.689a3.573,3.573,0,1,1,3.57-3.624,3.507,3.507,0,0,1-.774,2.252,2.678,2.678,0,0,1-.483.586,3.88,3.88,0,0,1-2.313.787Z"/></g><path class="b" d="M1035.494,99.28a5.118,5.118,0,0,1-2.989.878,5.541,5.541,0,0,1-5.5-5.579,5.55,5.55,0,1,1,11.1,0,5.433,5.433,0,0,1-.77,2.838l3.669,3.717-1.84,1.866Zm-6.369-4.8a3.59,3.59,0,0,0,3.573,3.625,3.884,3.884,0,0,0,2.313-.787,2.712,2.712,0,0,0,.483-.587,3.506,3.506,0,0,0,.774-2.252,3.572,3.572,0,0,0-7.143,0Z"/></g></svg>